<svg version="1.1" xmlns="http://www.w3.org/2000/svg" style="display: block;" viewBox="0 0 2048 537" width="1293" height="339" preserveAspectRatio="none">
<defs>
	<linearGradient id="Gradient1" gradientUnits="userSpaceOnUse" x1="844.801" y1="262.504" x2="844.365" y2="258.876">
		<stop class="stop0" offset="0" stop-opacity="0.988235" stop-color="rgb(54,58,62)"/>
		<stop class="stop1" offset="1" stop-opacity="1" stop-color="rgb(124,124,128)"/>
	</linearGradient>
	<linearGradient id="Gradient2" gradientUnits="userSpaceOnUse" x1="786.821" y1="359.083" x2="780.284" y2="360.824">
		<stop class="stop0" offset="0" stop-opacity="0.988235" stop-color="rgb(58,61,62)"/>
		<stop class="stop1" offset="1" stop-opacity="1" stop-color="rgb(85,87,87)"/>
	</linearGradient>
	<linearGradient id="Gradient3" gradientUnits="userSpaceOnUse" x1="498.002" y1="322.578" x2="483.561" y2="337.951">
		<stop class="stop0" offset="0" stop-opacity="1" stop-color="rgb(36,42,44)"/>
		<stop class="stop1" offset="1" stop-opacity="1" stop-color="rgb(60,67,68)"/>
	</linearGradient>
	<linearGradient id="Gradient4" gradientUnits="userSpaceOnUse" x1="1138.11" y1="234.546" x2="1139.43" y2="241.894">
		<stop class="stop0" offset="0" stop-opacity="1" stop-color="rgb(28,28,29)"/>
		<stop class="stop1" offset="1" stop-opacity="1" stop-color="rgb(67,65,72)"/>
	</linearGradient>
	<linearGradient id="Gradient5" gradientUnits="userSpaceOnUse" x1="652.948" y1="301.82" x2="637.262" y2="302.015">
		<stop class="stop0" offset="0" stop-opacity="1" stop-color="rgb(10,12,13)"/>
		<stop class="stop1" offset="1" stop-opacity="1" stop-color="rgb(42,49,50)"/>
	</linearGradient>
	<linearGradient id="Gradient6" gradientUnits="userSpaceOnUse" x1="522.171" y1="365.937" x2="524.797" y2="331.302">
		<stop class="stop0" offset="0" stop-opacity="1" stop-color="rgb(22,25,24)"/>
		<stop class="stop1" offset="1" stop-opacity="1" stop-color="rgb(71,79,86)"/>
	</linearGradient>
	<linearGradient id="Gradient7" gradientUnits="userSpaceOnUse" x1="164.495" y1="32.6658" x2="161.088" y2="42.6298">
		<stop class="stop0" offset="0" stop-opacity="1" stop-color="rgb(40,59,87)"/>
		<stop class="stop1" offset="1" stop-opacity="1" stop-color="rgb(11,21,44)"/>
	</linearGradient>
	<linearGradient id="Gradient8" gradientUnits="userSpaceOnUse" x1="405.869" y1="133.432" x2="399.123" y2="153.365">
		<stop class="stop0" offset="0" stop-opacity="1" stop-color="rgb(18,31,54)"/>
		<stop class="stop1" offset="1" stop-opacity="1" stop-color="rgb(51,72,106)"/>
	</linearGradient>
	<linearGradient id="Gradient9" gradientUnits="userSpaceOnUse" x1="1847.65" y1="166.493" x2="1840.45" y2="171.952">
		<stop class="stop0" offset="0" stop-opacity="1" stop-color="rgb(91,96,102)"/>
		<stop class="stop1" offset="1" stop-opacity="1" stop-color="rgb(112,119,127)"/>
	</linearGradient>
	<linearGradient id="Gradient10" gradientUnits="userSpaceOnUse" x1="1813.7" y1="110.207" x2="1827.93" y2="183.116">
		<stop class="stop0" offset="0" stop-opacity="1" stop-color="rgb(20,33,52)"/>
		<stop class="stop1" offset="1" stop-opacity="1" stop-color="rgb(44,58,84)"/>
	</linearGradient>
</defs>
<path transform="translate(0,0)" fill="rgb(25,26,31)" d="M 48.7732 2.13148 C 103.066 -5.0582 162.125 14.9014 214.781 28.308 C 312.4 54.2015 409.597 81.6621 506.333 110.679 C 531.935 118.24 557.669 125.345 583.524 131.991 C 599.228 136.085 631.043 144.544 646.472 145.214 C 674.185 146.418 708.106 143.778 736.243 142.472 L 914.241 134.051 L 1597.17 101.851 L 1823.8 91.247 C 1857.93 89.8068 1895.09 86.2976 1928.7 87.5424 C 1968.54 89.0181 2024.36 96.4834 2044.07 136.168 C 2046.48 141.005 2034.02 150.254 2031.24 152.77 C 2000.99 177.841 1961.93 182.604 1924.41 188.049 C 1908.26 190.487 1892.08 192.672 1875.87 194.603 C 1859.37 196.423 1778.81 203.459 1766.58 199.076 L 1353.89 220.543 C 1318.34 222.704 1286.62 228.724 1252.36 230.668 L 1244.56 237.645 C 1245.07 245.274 1245.07 252.045 1245.04 259.697 C 1262.98 262.527 1263.88 276.208 1249.31 285.705 C 1247.5 286.884 1245.66 288.017 1243.79 289.104 C 1243.79 341.945 1243.67 394.985 1243.97 447.837 C 1244.02 456.97 1245.86 468.467 1246.32 477.933 C 1246.65 484.48 1245.51 503.867 1247.18 508.866 C 1249.01 519.564 1246.36 522.487 1235.33 524.793 C 1228.83 526.152 1213.76 524.283 1210.99 517.103 L 1211.22 512.155 C 1214.5 501.573 1213.63 484.877 1214.1 473.182 C 1216.5 412.33 1216.88 350.068 1217.02 289.124 C 1213.74 284.275 1213 285.491 1209.64 282.172 C 1192.16 264.908 1207.79 260.577 1224.16 259.445 C 1224.02 254.008 1224.23 250.389 1224.63 245.036 L 1223.58 243.402 C 1218.59 242.409 1177.12 242.484 1169.99 242.406 L 1167.55 242.109 C 1154.78 242.683 1142 242.992 1129.22 243.033 C 1065.73 243.821 1000.69 250.359 937.173 253.519 C 917.413 254.503 895.734 259.647 875.836 261.121 C 869.694 261.691 854.455 264.144 848.877 264.049 L 848.92 263.373 C 851.446 261.153 853.544 261.379 857.279 260.622 C 852.935 258.162 853.108 258.984 847.466 258.931 L 839.7 259.37 C 837.931 260.345 836.708 260.884 834.84 261.656 C 838.106 262.316 839.209 262.318 842.459 262.301 L 844.831 264.626 C 827.937 267.559 819.243 264.856 802.27 261.518 C 794.153 267.713 781.54 274.325 776.145 279.52 C 776.694 294.397 776.938 309.283 776.875 324.17 C 776.901 330.575 776.607 343.614 777.425 349.472 C 780.321 351.217 781.653 351.646 784.777 352.732 C 780.905 354.856 778.646 351.755 777.416 354.772 L 778.201 357.149 C 780.289 361.325 782.371 365.638 784.687 369.682 C 786.364 368.81 786.579 366.727 787.356 364.518 C 787.642 367.682 787.735 370.648 788.868 373.62 C 789.053 382.685 799.868 401.272 794.694 408.099 C 789.374 415.116 767.123 411.067 760.403 414.791 C 765.843 458.412 747.637 502.545 698.471 510.474 C 679.712 513.5 654.848 507.911 640.176 496.303 C 615.826 476.846 610.975 452.649 611.995 423.116 C 599.161 424.074 586.341 425.204 573.537 426.508 C 558.816 428.191 484.769 432.535 478.791 438.522 C 475.841 444.667 483.312 450.008 470.121 454.565 C 465.067 456.311 457.159 456.551 451.667 456.98 L 445.626 461.146 C 455.078 470.775 460.173 479.448 460.229 493.499 C 460.28 506.334 453.717 522.339 442.25 528.954 C 432.346 535.359 417.357 538.169 406.357 533.201 C 405.67 532.956 404.986 532.704 404.305 532.446 C 377.713 522.359 371.604 497.645 381.244 472.788 C 376.817 465.116 373.204 459.095 368.182 451.822 C 357.911 452.439 347.808 453.738 337.598 454.957 C 333.173 468.073 335.066 489.22 335.819 503.574 C 341.202 504.639 347.007 505.394 347.64 511.774 C 342.268 521.01 311.252 522.492 305.369 514.463 C 304.7 510.819 304.499 512.145 305.869 508.961 C 308.665 506.192 313.462 504.906 317.264 503.585 C 317.122 489.229 317.092 473.246 316.385 458.626 C 316.429 459.538 299.283 432.28 296.946 430.845 C 290.411 426.832 289.483 426.68 281.861 427.786 L 280.415 428.178 C 278.357 434.594 277.364 437.558 273.808 443.419 C 263.875 459.79 240.379 461.495 225.507 450.145 L 221.144 461.073 C 226.508 463.216 231.219 464.323 232.259 470.505 C 228.986 478.883 196.754 480.21 190.968 471.964 C 190.545 464.202 196.651 463.812 202.988 462.08 C 202.726 451.957 203.195 441.789 203.079 431.667 C 202.938 419.259 202.594 407.663 189.718 402.546 C 178.363 405.833 177.392 406.089 168.624 398.317 C 168.493 394.104 168.668 389.034 168.699 384.747 C 162.304 384.396 146.546 385.109 141.873 382.734 C 137.998 377.856 139.955 363.375 139.969 355.424 C 177.662 347.638 175.22 365.105 186.034 329.842 C 186.774 327.428 196.177 327.446 199.677 323.042 C 203.773 295.773 197.499 248.51 196.756 220.111 C 196.739 219.468 187.187 194.181 186.686 193.975 C 160.147 183.067 179.671 173.225 195.597 169.894 L 193.589 145.035 C 181.649 136.832 162.859 126.234 150.126 118.334 L 57.8665 60.652 C 42.0318 50.6978 24.3182 40.1874 9.33481 28.9813 C 5.59659 26.1855 3.80738 23.1972 2.38561 18.8232 C -0.66031 5.08582 40.6979 1.98574 48.7732 2.13148 z M 401.494 307.39 C 406.019 318.289 386.508 360.311 389.28 367.226 C 391.496 365.211 391.776 363.822 392.722 361.042 C 392.317 353.383 416.327 270.697 420.402 256.336 C 421.153 253.38 421.689 248.334 422.285 246.435 L 421.41 246.398 C 417.416 255.729 407.904 302.888 402.15 305.79 C 407.018 286.459 413.922 264.692 417.906 245.791 C 374.817 247.368 332.998 250.582 289.796 249.717 C 279.131 249.504 241.675 247.145 234.394 250.012 C 227.773 257.22 231.548 335.364 237.001 339.285 C 263.891 358.625 363.277 347.655 391.404 344.39 C 394.654 332.026 398.017 319.692 401.494 307.39 z"/>
<path transform="translate(0,0)" fill="rgb(33,50,75)" d="M 48.7732 2.13148 C 103.066 -5.0582 162.125 14.9014 214.781 28.308 C 312.4 54.2015 409.597 81.6621 506.333 110.679 C 531.935 118.24 557.669 125.345 583.524 131.991 C 599.228 136.085 631.043 144.544 646.472 145.214 C 674.185 146.418 708.106 143.778 736.243 142.472 L 914.241 134.051 L 1597.17 101.851 L 1823.8 91.247 C 1857.93 89.8068 1895.09 86.2976 1928.7 87.5424 C 1968.54 89.0181 2024.36 96.4834 2044.07 136.168 C 2046.48 141.005 2034.02 150.254 2031.24 152.77 C 2000.99 177.841 1961.93 182.604 1924.41 188.049 C 1908.26 190.487 1892.08 192.672 1875.87 194.603 C 1859.37 196.423 1778.81 203.459 1766.58 199.076 C 1764.06 196.666 1763.2 196.614 1759.85 196.288 C 1757.05 193.441 1757.72 194.745 1756.8 191.065 C 1760.2 187.761 1755.33 182.225 1754.9 177.776 C 1754.81 176.899 1755.35 173.266 1755.48 172.251 C 1754.44 169.877 1753.97 167.308 1753.4 164.776 C 1755.25 156.335 1761.28 148.785 1766.82 142.444 L 1768.57 143.724 C 1768.42 141.786 1768.47 141.428 1769.17 139.589 L 1769.34 139.146 C 1763.04 138.945 1731.04 140.161 1726.8 142.416 L 1727.67 141.713 L 1726.25 142.471 C 1727.96 142.786 1729.76 143.15 1731.47 143.42 L 1523 154.172 L 1456.9 157.449 C 1451.83 157.698 1431.55 159.141 1427.56 158.907 C 1402.93 159.835 1378.25 161.386 1353.6 162.461 C 1300.51 166.049 1247.01 167.55 1193.86 170.678 C 1187.32 171.063 1170.34 172.585 1164.56 171.835 C 1156.34 172.33 1145.56 173.269 1137.52 173.134 C 1126.74 174.552 1110.22 174.894 1098.96 175.44 L 1029.86 178.798 L 985.483 181.089 C 981.753 181.28 967.395 182.168 964.566 181.85 C 955.479 182.424 945.468 183.264 936.445 183.121 C 926.833 184.597 895.704 185.833 885.272 185.906 C 866.536 186.89 831.799 189.632 814.454 189.165 C 798.606 191.078 773.851 191.581 757.046 192.418 L 649.473 197.75 L 543.419 203.016 C 536.911 203.337 508.403 205.45 504.426 204.438 C 499.336 199.098 489.491 205.523 483.634 202.051 L 483.85 199.194 C 456.518 213.599 351.818 187.15 325.655 170.453 L 326.407 169.579 C 342.718 169.458 373.425 166.37 390.768 165.181 L 551.823 153.411 L 595.929 150.681 C 601.967 150.312 614.636 149.214 620.242 149.589 L 618.34 152.803 C 620.845 152.398 638.59 148.483 639.358 147.563 C 636.109 146.716 628.178 149.954 622.792 150.233 C 622.608 147.376 625.861 148.309 627.292 145.908 C 621.657 146.683 565.2 150.623 562.881 149.788 C 537.963 140.819 528.946 147.574 503.988 147.931 C 501.112 145.73 504.906 145.287 502.856 140.737 L 500.144 140.079 C 499.785 141.803 499.978 141.511 500.558 143.37 C 495.715 144.516 489.469 148 486.926 148.528 C 475.244 150.954 455.821 153.991 445.23 148.805 L 446.807 151.677 C 444.028 153.506 406.558 155.386 401.13 155.366 C 401.941 153.588 401.447 154.134 402.922 153.091 C 402.797 152.004 402.486 150.708 402.26 149.616 L 400.659 149.315 L 401.033 150.056 C 396.675 151.013 390.365 155.72 384.185 156.592 C 373.446 158.107 362.623 158.46 351.821 159.14 C 333.944 160.314 316.075 161.607 298.215 163.017 L 249.872 136.308 L 250.02 135.306 C 274.758 133.607 300.731 129.32 325.971 127.372 C 317.21 125.309 256.737 132.264 244.278 133.883 C 239.298 131.168 235.692 129.261 230.409 127.02 L 229.732 128.563 C 224.618 126.021 208.175 117.787 204.693 114.697 C 196.644 111.284 178.648 101.104 170.722 96.5878 C 167.683 95.9518 145.557 83.4328 141.854 81.4428 L 56.8496 35.8626 C 43.071 28.3894 28.869 20.4586 14.9719 13.0939 C 12.4071 11.7347 11.4098 11.9156 8.90466 12.3307 C 6.65167 14.494 6.4147 15.0181 5.78024 18.0813 L 5.9703 22.1122 L 2.38561 18.8232 C -0.66031 5.08582 40.6979 1.98574 48.7732 2.13148 z"/>
<path transform="translate(0,0)" fill="url(#Gradient10)" d="M 1826.05 100.934 C 1828.97 100.555 1830.04 99.8533 1832.13 101.191 L 1832.3 103.448 C 1832.75 103.751 1832.96 103.958 1833.46 104.111 C 1872.88 99.9672 1848.14 137.346 1849.94 141.136 C 1868.34 144.385 1900.71 132.775 1896.97 163.06 L 1895.87 163.269 C 1894.41 166.4 1893.57 168.74 1890.98 171.079 L 1890.02 170.786 C 1891.23 166.012 1892.85 162.577 1889.84 158.43 C 1877.81 147.694 1853.03 154.327 1836.16 153.585 C 1828.27 148.769 1815.71 153.761 1810.93 161.944 C 1810.5 162.697 1810.07 163.457 1809.66 164.223 C 1804.01 171.429 1765.51 171.914 1755.48 172.251 C 1754.44 169.877 1753.97 167.308 1753.4 164.776 C 1755.25 156.335 1761.28 148.785 1766.82 142.444 L 1768.57 143.724 C 1768.42 141.786 1768.47 141.428 1769.17 139.589 L 1769.34 139.146 C 1783.46 128.282 1791.34 121.739 1807.26 112.349 C 1810.25 111.086 1819.96 105.358 1823.26 103.515 C 1823.69 103.243 1825.55 101.409 1826.05 100.934 z"/>
<path transform="translate(0,0)" fill="rgb(33,50,75)" d="M 1836 107.33 C 1862.87 101.194 1852.5 129.152 1845.61 141.952 C 1827.43 141.761 1826.12 141.883 1810.19 150.554 C 1807.28 151.102 1803.12 152.505 1800.17 153.412 L 1799.27 152.621 C 1806.59 131.633 1810.68 123.625 1830.13 110.699 L 1836 107.33 z"/>
<path transform="translate(0,0)" fill="rgb(25,26,31)" d="M 1833.46 104.111 C 1872.88 99.9672 1848.14 137.346 1849.94 141.136 C 1868.34 144.385 1900.71 132.775 1896.97 163.06 L 1895.87 163.269 C 1896.21 159.974 1895.98 158.028 1895.72 154.771 C 1890.37 142.372 1881.14 143.927 1869.44 144.11 C 1857.93 142.968 1835.72 142.924 1824.58 145.802 C 1815.41 148.173 1805.39 159.379 1793.61 158.295 L 1793.29 157.208 C 1799.25 153.51 1801.65 156.144 1810.19 150.554 C 1826.12 141.883 1827.43 141.761 1845.61 141.952 C 1852.5 129.152 1862.87 101.194 1836 107.33 L 1833.46 104.111 z"/>
<path transform="translate(0,0)" fill="rgb(16,18,23)" d="M 1826.05 100.934 C 1828.97 100.555 1830.04 99.8533 1832.13 101.191 L 1832.3 103.448 C 1832.75 103.751 1832.96 103.958 1833.46 104.111 L 1836 107.33 L 1830.13 110.699 L 1830.53 107.167 C 1824.64 105.264 1815.09 113.746 1810.02 117.445 C 1807.54 113.537 1811.73 115.751 1807.26 112.349 C 1810.25 111.086 1819.96 105.358 1823.26 103.515 C 1823.69 103.243 1825.55 101.409 1826.05 100.934 z"/>
<path transform="translate(0,0)" fill="rgb(33,50,75)" d="M 1869.44 144.11 C 1881.14 143.927 1890.37 142.372 1895.72 154.771 C 1891.85 156.707 1886.57 153.256 1884.54 149.978 L 1885.62 146.422 C 1883.12 145.206 1873.68 144.952 1869.44 144.11 z"/>
<path transform="translate(0,0)" fill="rgb(25,26,31)" d="M 1809.66 164.223 C 1810.07 163.457 1810.5 162.697 1810.93 161.944 C 1815.71 153.761 1828.27 148.769 1836.16 153.585 C 1853.03 154.327 1877.81 147.694 1889.84 158.43 C 1892.85 162.577 1891.23 166.012 1890.02 170.786 C 1887.57 172.751 1884.8 174.641 1883.27 177.333 L 1888.68 175.499 L 1890.44 176.69 L 1890.41 176.45 C 1885.45 184.462 1845.24 182.875 1835.12 185.315 C 1828.44 189.6 1826.38 189.807 1818.39 190.015 L 1817 189.656 L 1816.25 188.271 L 1815.23 188.505 C 1812.2 186.944 1812.72 185.152 1810.23 181.597 L 1809.94 181.183 L 1808.1 180.465 C 1806.32 175.404 1808.32 169.322 1809.66 164.223 z"/>
<path transform="translate(0,0)" fill="rgb(180,184,189)" d="M 1836.16 153.585 C 1853.03 154.327 1877.81 147.694 1889.84 158.43 C 1892.85 162.577 1891.23 166.012 1890.02 170.786 C 1887.57 172.751 1884.8 174.641 1883.27 177.333 C 1879.6 178.774 1860.53 180.586 1856.33 178.888 C 1858.06 178.343 1859.33 178.134 1860.47 176.733 L 1858.12 175.128 L 1857.1 174.949 C 1854.66 173.616 1851.46 170.861 1849.2 169.059 C 1849.34 168.348 1849.43 161.328 1849.46 160.162 C 1846.12 157.826 1831.03 163.168 1832.98 154.42 L 1836.16 153.585 z"/>
<path transform="translate(0,0)" fill="rgb(16,18,23)" d="M 1889.84 158.43 C 1892.85 162.577 1891.23 166.012 1890.02 170.786 C 1887.57 172.751 1884.8 174.641 1883.27 177.333 C 1879.6 178.774 1860.53 180.586 1856.33 178.888 C 1858.06 178.343 1859.33 178.134 1860.47 176.733 L 1858.12 175.128 C 1874.28 174.351 1888.39 177.85 1889.84 158.43 z"/>
<path transform="translate(0,0)" fill="url(#Gradient9)" d="M 1841.26 176.874 C 1840.72 171.588 1837.36 164.933 1840 160.6 C 1851.34 159.651 1845.1 163.548 1849.2 169.059 C 1851.46 170.861 1854.66 173.616 1857.1 174.949 C 1851.81 176.796 1846.82 176.682 1841.26 176.874 z"/>
<path transform="translate(0,0)" fill="rgb(68,73,78)" d="M 1809.94 181.183 C 1810.23 172.84 1811.3 159.283 1820.35 156.129 L 1821.63 156.684 C 1813.54 175.936 1814.79 166.011 1816.25 188.271 L 1815.23 188.505 C 1812.2 186.944 1812.72 185.152 1810.23 181.597 L 1809.94 181.183 z"/>
<path transform="translate(0,0)" fill="rgb(89,92,95)" d="M 1818.39 190.015 C 1818.18 185.13 1817.34 184.505 1819.44 180.98 C 1824.85 177.814 1834.23 178.769 1835.12 185.315 C 1828.44 189.6 1826.38 189.807 1818.39 190.015 z"/>
<path transform="translate(0,0)" fill="rgb(68,73,78)" d="M 1824.3 156.948 C 1834.14 156.955 1842.82 170.368 1836.9 177.828 C 1833.59 178.881 1825.58 178.511 1821.75 178.49 C 1820.3 178.634 1819.74 178.284 1818.38 177.76 C 1816.65 173.947 1818.31 169.734 1819.83 166.113 C 1822.11 160.712 1825.64 164.711 1830.62 161.669 C 1829.03 159.788 1826.07 161.876 1823.32 160.038 L 1824.3 156.948 z"/>
<path transform="translate(0,0)" fill="url(#Gradient8)" d="M 367.204 122.196 C 373.43 120.918 433.469 144.754 445.23 148.805 L 446.807 151.677 C 444.028 153.506 406.558 155.386 401.13 155.366 C 401.941 153.588 401.447 154.134 402.922 153.091 L 404.417 151.66 C 404.1 146.667 398.255 143.543 393.818 143.614 C 385.611 140.285 370.541 136.018 365.782 129.298 C 365.257 125.397 365.576 126.169 367.204 122.196 z"/>
<path transform="translate(0,0)" fill="rgb(25,26,31)" d="M 1587.23 112.114 C 1605.65 110.473 1625.93 110.089 1644.5 109.256 L 1740.98 104.99 C 1766.69 103.959 1801.08 100.192 1826.05 100.934 C 1825.55 101.409 1823.69 103.243 1823.26 103.515 C 1822.69 103.421 1822.12 103.354 1821.55 103.311 C 1812.9 102.734 1791.99 103.955 1782.61 104.293 C 1749.25 105.74 1715.91 107.446 1682.57 109.41 L 1622.46 111.886 C 1612.38 112.308 1601.24 112.604 1591.22 113.865 C 1587.01 114.396 1583.14 118.098 1579.86 120.913 C 1565.62 123.036 1532.74 123.745 1516.87 124.566 C 1484.17 126.257 1449.62 128.813 1417.06 129.562 C 1417.11 137.589 1417.42 147.331 1416.55 155.156 C 1412.89 151.474 1418.46 132.858 1413.33 129.231 L 1412.99 128.991 C 1414.01 123.242 1414.86 117.705 1416.64 112.131 C 1417.41 117.106 1417.15 123.039 1417.08 128.14 C 1431.05 126.015 1448.35 126.606 1462.75 125.495 C 1499.67 122.643 1542.49 122.944 1578.88 118.557 L 1587.23 112.114 z"/>
<path transform="translate(0,0)" fill="rgb(16,18,23)" d="M 814.454 189.165 C 811.076 188.844 806.134 189.084 802.516 189.02 L 801.812 187.561 C 804.664 185.639 811.273 187.044 815.181 187.041 C 837.095 187.026 862.814 182.87 884.541 184.848 L 885.272 185.906 C 866.536 186.89 831.799 189.632 814.454 189.165 z"/>
<path transform="translate(0,0)" fill="rgb(16,18,23)" d="M 1353.6 162.461 L 1350.19 161.534 L 1350.64 160.927 C 1358.62 159.799 1369.96 159.657 1378.24 159.445 C 1391.81 159.098 1415.25 155.032 1427.56 158.907 C 1402.93 159.835 1378.25 161.386 1353.6 162.461 z"/>
<path transform="translate(0,0)" fill="rgb(25,26,31)" d="M 358.716 120.166 L 367.204 122.196 C 365.576 126.169 365.257 125.397 365.782 129.298 C 370.541 136.018 385.611 140.285 393.818 143.614 C 393.066 144.118 391.954 144.273 391.037 144.472 C 384.446 142.04 369.7 136.866 363.899 132.34 C 362.104 130.939 364.428 127.117 362.01 124.034 C 359.996 124.013 358.206 124.001 356.198 123.822 C 357.579 122.59 358.201 121.979 358.716 120.166 z"/>
<path transform="translate(0,0)" fill="rgb(16,18,23)" d="M 936.445 183.121 C 932.698 183.101 929.972 183.245 926.329 182.256 C 931.47 181.066 935.467 177.556 938.966 177.957 C 938.292 179.472 938.062 179.83 938.206 181.557 C 944.506 182.607 950.564 178.77 964.566 181.85 C 955.479 182.424 945.468 183.264 936.445 183.121 z"/>
<path transform="translate(0,0)" fill="rgb(25,26,31)" d="M 170.722 96.5878 C 176.294 96.3503 202.109 109.272 204.693 114.697 C 196.644 111.284 178.648 101.104 170.722 96.5878 z"/>
<path transform="translate(0,0)" fill="rgb(16,18,23)" d="M 1137.52 173.134 C 1135.38 173.055 1127.88 173.095 1126.59 172.269 C 1134.5 170.124 1156.51 170.111 1164.56 171.835 C 1156.34 172.33 1145.56 173.269 1137.52 173.134 z"/>
<path transform="translate(0,0)" fill="url(#Gradient7)" d="M 123.212 26.9362 C 131.669 24.3925 136.97 22.876 145.305 26.8929 C 145.874 28.0775 146.842 30.2987 147.632 31.2275 L 148.675 30.481 C 154.196 29.3048 260.426 62.7272 279.466 66.4957 C 299.388 70.4389 319.179 65.2469 338.86 67.5287 L 339.738 68.5105 C 328.157 70.1004 295.9 70.2887 283.907 69.3273 C 266.818 67.9572 212.928 45.1586 199.215 50.4462 L 201.06 52.67 C 196.872 55.2403 132.087 33.1108 120.876 29.4658 L 123.212 26.9362 z"/>
<path transform="translate(0,0)" fill="rgb(25,26,31)" d="M 148.675 30.481 C 154.196 29.3048 260.426 62.7272 279.466 66.4957 C 299.388 70.4389 319.179 65.2469 338.86 67.5287 L 339.738 68.5105 C 328.157 70.1004 295.9 70.2887 283.907 69.3273 C 266.818 67.9572 212.928 45.1586 199.215 50.4462 L 197.276 49.9074 L 199.05 48.4475 L 198.929 46.9483 C 196.862 45.3481 155.998 33.5004 148.675 30.481 z"/>
<path transform="translate(0,0)" fill="rgb(25,26,31)" d="M 1301.31 132.637 C 1302.53 132.322 1307.03 134.045 1308.28 134.996 C 1306.87 135.933 1261.15 137.834 1254.96 138.154 C 1199.71 141.01 1144.46 144.263 1089.19 146.859 C 1082.58 147.3 1076.13 145.939 1069.75 145.137 C 1049.13 142.541 1024.61 145.194 1003.83 146.268 C 1000.15 147.614 997.151 149.612 994.056 146.837 C 998.602 141.826 1053.61 142.635 1063.83 141.597 C 1066.74 141.302 1077.01 142.992 1080.41 143.536 C 1087.32 144.639 1093.61 144.398 1100.55 144.145 C 1148.62 142.012 1196.68 139.557 1244.73 136.781 C 1256.21 136.231 1293.48 135.756 1301.31 132.637 z"/>
<path transform="translate(0,0)" fill="rgb(16,18,23)" d="M 493.147 194.966 C 496.772 193.149 500.46 191.459 504.204 189.9 C 531.305 178.637 579.12 161.954 609.307 153.764 C 610.367 154.202 611.271 154.575 612.019 154.884 C 608.783 156.096 595.021 160.347 593.502 161.395 L 596.903 162.76 C 594.516 164.531 582.018 164.516 577.053 166.164 C 550.144 175.097 520.227 184.782 494.497 196.453 L 493.147 194.966 z"/>
<path transform="translate(0,0)" fill="rgb(25,26,31)" d="M 335.369 101.284 C 346.996 106.839 348.179 107.079 360.564 107.36 C 369.661 107.567 434.137 98.6883 436.581 100.862 C 427.234 103.168 419.55 103.457 410.008 104.357 C 408.841 104.467 406.885 106.614 406.088 107.654 L 405.605 107.422 C 394.954 102.408 366.466 110.415 353.405 109.57 C 346.613 109.13 343.536 106.48 337.156 107.177 C 337.698 104.225 337.077 104.352 335.369 101.284 z"/>
<path transform="translate(0,0)" fill="rgb(25,26,31)" d="M 120.876 29.4658 C 103.71 23.7818 70.2966 13.1758 52.2694 5.35895 C 51.7993 4.55525 51.4016 3.87534 51.0763 3.31922 C 58.1054 7.08471 118.389 27.5798 123.212 26.9362 L 120.876 29.4658 z"/>
<path transform="translate(0,0)" fill="rgb(246,246,251)" d="M 28.129 10.1045 C 33.518 10.176 36.3511 11.4654 40.2838 14.9597 C 34.8914 14.7077 31.9495 14.0804 28.129 10.1045 z"/>
<path transform="translate(0,0)" fill="rgb(180,184,189)" d="M 1731.47 143.42 L 1749.15 142.868 C 1742.39 153.284 1737.3 160.753 1735.68 173.529 C 1696.65 175.747 1657.59 177.665 1618.53 179.282 L 1355.46 192.15 L 492.646 234.128 C 492.885 221.706 492.227 211.15 504.426 204.438 C 508.403 205.45 536.911 203.337 543.419 203.016 L 649.473 197.75 L 757.046 192.418 C 773.851 191.581 798.606 191.078 814.454 189.165 C 831.799 189.632 866.536 186.89 885.272 185.906 C 895.704 185.833 926.833 184.597 936.445 183.121 C 945.468 183.264 955.479 182.424 964.566 181.85 C 967.395 182.168 981.753 181.28 985.483 181.089 L 1029.86 178.798 L 1098.96 175.44 C 1110.22 174.894 1126.74 174.552 1137.52 173.134 C 1145.56 173.269 1156.34 172.33 1164.56 171.835 C 1170.34 172.585 1187.32 171.063 1193.86 170.678 C 1247.01 167.55 1300.51 166.049 1353.6 162.461 C 1378.25 161.386 1402.93 159.835 1427.56 158.907 C 1431.55 159.141 1451.83 157.698 1456.9 157.449 L 1523 154.172 L 1731.47 143.42 z"/>
<path transform="translate(0,0)" fill="rgb(4,5,6)" d="M 660.879 299.103 C 661.709 299.051 662.68 298.337 663.438 297.875 C 664.277 294.676 661.243 290.151 660.591 284.762 L 662.531 282.743 C 667.114 295.239 705.333 394.333 705.309 401.84 L 710.613 415.169 C 718.33 415.02 757.29 410.79 760.153 414.231 C 760.315 414.426 760.338 414.57 760.403 414.791 C 765.843 458.412 747.637 502.545 698.471 510.474 C 679.712 513.5 654.848 507.911 640.176 496.303 C 615.826 476.846 610.975 452.649 611.995 423.116 C 599.161 424.074 586.341 425.204 573.537 426.508 L 572.102 425.179 C 575.832 423.975 606.449 421.268 612.452 420.692 C 613.693 411.569 616.072 404.407 619.645 396.024 L 619.848 393.546 L 621.993 391.287 L 621.91 388.787 C 624.48 388.132 626.808 383.67 628.857 381.162 C 635.882 372.565 641.003 367.502 649.932 361.059 L 651.277 358.856 C 654.474 358.131 657.065 357.146 660.132 356.046 C 661.193 354.267 661.813 354.41 663.99 353.293 C 668.075 352.921 676.142 349.65 679.817 347.916 C 676.536 344.675 669.5 321.388 665.981 314.188 L 665.701 313.879 C 664.562 314.454 664.5 314.503 663.243 314.64 C 662.581 312.041 663.941 310.628 665.315 307.74 L 664.165 307.025 L 660.879 299.103 z"/>
<path transform="translate(0,0)" fill="rgb(25,26,31)" d="M 660.879 299.103 C 661.709 299.051 662.68 298.337 663.438 297.875 C 664.277 294.676 661.243 290.151 660.591 284.762 L 662.531 282.743 C 667.114 295.239 705.333 394.333 705.309 401.84 C 702.577 409.543 706.748 413.315 711.45 418.54 C 708.151 417.588 704.123 416.699 702.625 413.311 L 696.05 414.762 L 698.877 416.179 L 699.132 417.125 C 705.498 419.818 711.012 419.948 714.61 427.774 C 718.059 435.277 711.309 441.763 706.146 446.114 L 707.183 446.803 L 706.552 447.34 L 707.306 450.477 C 725.103 432.563 713.582 428.397 715.759 418.623 C 718.553 417.468 719.196 417.647 722.223 418.192 L 722.731 419.953 L 723.987 423.402 L 724.147 423.005 C 725.32 420.135 725.272 418.718 727.795 416.778 C 730.955 415.93 732.35 416.454 735.437 417.232 C 736.502 423.339 737.385 427.847 737.193 434.109 C 736.035 471.853 694.555 497.454 666.079 466.193 C 664.456 464.411 662.909 462.161 660.355 463.072 C 657.128 459.346 653.376 449.411 652.473 444.708 C 647.031 416.367 662.094 383.496 692.206 377.389 C 689.836 369.712 684.391 354.917 681.242 347.676 L 679.817 347.916 C 676.536 344.675 669.5 321.388 665.981 314.188 L 665.701 313.879 C 664.562 314.454 664.5 314.503 663.243 314.64 C 662.581 312.041 663.941 310.628 665.315 307.74 L 664.165 307.025 L 660.879 299.103 z"/>
<path transform="translate(0,0)" fill="rgb(16,18,23)" d="M 706.552 447.34 C 681.02 451.751 680.105 420.113 696.05 414.762 L 698.877 416.179 L 699.132 417.125 C 705.498 419.818 711.012 419.948 714.61 427.774 C 718.059 435.277 711.309 441.763 706.146 446.114 L 707.183 446.803 L 706.552 447.34 z"/>
<path transform="translate(0,0)" fill="rgb(41,47,49)" d="M 707.306 450.477 C 725.103 432.563 713.582 428.397 715.759 418.623 C 718.553 417.468 719.196 417.647 722.223 418.192 L 722.731 419.953 C 723.244 436.267 722.853 446.248 711.902 460.155 C 705.034 468.878 681.623 473.657 674.018 465.981 L 674.583 465.062 C 677.748 466.526 679.188 467.442 682.705 466.972 C 686.489 463.966 686.596 455.673 684.355 453.306 C 693.819 454.622 699.346 456.21 707.306 450.477 z"/>
<path transform="translate(0,0)" fill="rgb(16,18,23)" d="M 665.481 442.468 C 667.425 443.233 668.892 444.254 670.258 445.838 C 672.779 448.76 672.962 451.914 672.701 455.602 C 670.678 455.243 668.935 455.032 667.599 453.425 C 665.051 450.358 665.137 446.236 665.481 442.468 z"/>
<path transform="translate(0,0)" fill="rgb(16,18,23)" d="M 670.164 401.272 C 672.882 402.664 673.108 402.602 674.182 405.424 C 674.04 408.752 672.769 411.163 671.294 414.074 C 668.81 412.481 668.448 412.199 667.243 409.523 C 667.291 406.321 668.689 404.015 670.164 401.272 z"/>
<path transform="translate(0,0)" fill="rgb(41,47,49)" d="M 735.437 417.232 C 737.385 415.612 736.486 415.913 738.992 416.014 C 741.855 419.27 741.933 431.321 741.801 435.466 C 740.432 478.727 685.882 505.133 660.355 463.072 C 662.909 462.161 664.456 464.411 666.079 466.193 C 694.555 497.454 736.035 471.853 737.193 434.109 C 737.385 427.847 736.502 423.339 735.437 417.232 z"/>
<path transform="translate(0,0)" fill="rgb(104,111,117)" d="M 1735.68 173.529 C 1735.97 177.537 1736.2 183.016 1736.76 186.873 C 1670.16 189.118 1601.17 193.307 1534.44 196.57 L 1125.51 216.591 L 720.017 236.368 C 646.651 239.919 570.048 242.333 497.095 247.252 C 495.299 242.576 493.934 239.021 492.646 234.128 L 1355.46 192.15 L 1618.53 179.282 C 1657.59 177.665 1696.65 175.747 1735.68 173.529 z"/>
<path transform="translate(0,0)" fill="rgb(41,47,49)" d="M 682.483 265.221 C 690.782 265.591 705.695 264.557 714.436 264.171 C 718.268 264.779 728.922 265.782 731.121 267.441 L 732.772 270.886 L 735.808 270.923 C 737.956 271.041 745.357 270.051 747.885 269.765 C 748.919 274.67 747.47 293.091 748.783 295.089 C 749.42 284.028 748.49 275.417 748.984 265.91 L 750.512 271.698 C 750.797 269.645 751.021 268.17 751.52 266.159 C 752.912 267.597 753.03 268.027 753.785 269.836 L 755.653 269.986 C 755.7 268.99 755.856 268.634 755.471 267.792 C 758.205 270.125 757.848 269.434 758.184 273.388 C 758.838 281.08 757.06 314.416 759.292 319.438 L 760.1 319.263 C 763.352 329.201 769.154 338.205 772.982 347.799 L 772.205 349.532 C 773.572 352.974 774.833 356.998 777.417 359.552 L 778.201 357.149 C 780.289 361.325 782.371 365.638 784.687 369.682 C 786.364 368.81 786.579 366.727 787.356 364.518 C 787.642 367.682 787.735 370.648 788.868 373.62 C 789.053 382.685 799.868 401.272 794.694 408.099 C 789.374 415.116 767.123 411.067 760.403 414.791 C 760.338 414.57 760.315 414.426 760.153 414.231 C 757.29 410.79 718.33 415.02 710.613 415.169 L 705.309 401.84 C 705.333 394.333 667.114 295.239 662.531 282.743 C 661.555 280.277 659.951 277.165 660.426 274.684 C 662.034 273.195 663.172 273.045 665.3 272.461 C 673.796 273.233 678.367 274.776 684.107 267.685 L 684.372 267.958 C 686.148 268.285 690.468 267.675 692.526 267.462 C 690.304 266.289 685.177 265.663 682.483 265.221 z"/>
<path transform="translate(0,0)" fill="rgb(246,246,251)" d="M 735.808 270.923 C 737.956 271.041 745.357 270.051 747.885 269.765 C 746.715 277.182 746.955 286.542 746.935 294.207 C 743.823 287.847 738.213 277.193 735.808 270.923 z"/>
<path transform="translate(0,0)" fill="rgb(16,18,23)" d="M 605.884 268.205 C 622.238 267.625 668.632 263.638 682.483 265.221 C 685.177 265.663 690.304 266.289 692.526 267.462 C 690.468 267.675 686.148 268.285 684.372 267.958 L 684.107 267.685 C 678.367 274.776 673.796 273.233 665.3 272.461 C 663.172 273.045 662.034 273.195 660.426 274.684 C 659.951 277.165 661.555 280.277 662.531 282.743 L 660.591 284.762 C 661.243 290.151 664.277 294.676 663.438 297.875 C 662.68 298.337 661.709 299.051 660.879 299.103 L 664.165 307.025 L 665.315 307.74 C 663.941 310.628 662.581 312.041 663.243 314.64 C 664.5 314.503 664.562 314.454 665.701 313.879 L 665.981 314.188 C 669.5 321.388 676.536 344.675 679.817 347.916 C 676.142 349.65 668.075 352.921 663.99 353.293 C 661.813 354.41 661.193 354.267 660.132 356.046 C 657.065 357.146 654.474 358.131 651.277 358.856 L 649.932 361.059 C 625.086 361.601 596.023 365.606 570.841 366.951 C 564.081 367.312 527.926 369.984 523.235 371.61 L 519.871 371.077 L 519.834 369.156 L 519.76 366.489 L 519.789 365.083 L 519.476 363.057 C 516.521 361.149 515.149 361.817 511.106 361.758 C 510.796 361.208 510.322 361.078 509.691 360.706 L 509.298 353.6 C 508.671 347.783 508.129 345.772 506.351 340.165 C 506.933 338.918 506.952 334.711 507.027 333.093 C 510.748 329.753 533.127 328.934 539.232 328.906 C 539.853 335.298 540.547 341.682 541.314 348.058 L 549.348 354.385 C 549.739 357.869 549.881 361.477 551.427 364.589 C 553.457 361.145 551.338 351.193 550.548 347.128 L 550.39 345.247 L 547.61 319.659 C 546.313 316.971 543.688 285.92 543.242 281.078 C 545.517 279.365 548.053 276.778 550.424 275.281 C 558.264 270.329 594.56 275.271 599.004 269.681 L 597.241 268.578 C 599.261 268.03 603.618 268.202 605.884 268.205 z"/>
<path transform="translate(0,0)" fill="rgb(41,47,49)" d="M 597.241 268.578 C 599.261 268.03 603.618 268.202 605.884 268.205 C 609.918 268.801 618.558 269.325 621.288 271.112 C 623.481 278.042 622.832 305.966 622.825 314.454 C 613.342 315.527 553.419 322.15 548.685 319.2 L 547.61 319.659 C 546.313 316.971 543.688 285.92 543.242 281.078 C 545.517 279.365 548.053 276.778 550.424 275.281 C 558.264 270.329 594.56 275.271 599.004 269.681 L 597.241 268.578 z"/>
<path transform="translate(0,0)" fill="rgb(16,18,23)" d="M 507.027 333.093 C 510.748 329.753 533.127 328.934 539.232 328.906 C 539.853 335.298 540.547 341.682 541.314 348.058 L 549.348 354.385 C 549.739 357.869 549.881 361.477 551.427 364.589 C 553.457 361.145 551.338 351.193 550.548 347.128 C 562.949 349.861 597.125 337.662 602.742 345.178 L 602.583 346.05 C 599.28 348.072 590.192 353.068 589.47 356.738 C 593.89 360.273 597.064 355.929 604.032 359.896 L 607.725 359.197 C 624.616 358.612 643.567 355.904 660.132 356.046 C 657.065 357.146 654.474 358.131 651.277 358.856 L 649.932 361.059 C 625.086 361.601 596.023 365.606 570.841 366.951 C 564.081 367.312 527.926 369.984 523.235 371.61 L 519.871 371.077 L 519.834 369.156 L 519.76 366.489 L 519.789 365.083 L 519.476 363.057 C 516.521 361.149 515.149 361.817 511.106 361.758 C 510.796 361.208 510.322 361.078 509.691 360.706 L 509.298 353.6 C 508.671 347.783 508.129 345.772 506.351 340.165 C 506.933 338.918 506.952 334.711 507.027 333.093 z"/>
<path transform="translate(0,0)" fill="url(#Gradient6)" d="M 510.028 333.304 C 524.396 332.676 543.994 325.012 538.331 349.993 C 537.534 351.671 535.758 355.155 535.251 356.765 L 535.028 353.99 C 532.818 353.786 533.204 354.132 530.888 355.9 L 529.406 357.49 C 525.832 356.6 526.865 356.356 523.81 357.391 C 522.979 358.987 522.132 360.539 521.448 362.204 L 524.037 364.013 L 526.422 365.215 C 525.312 366.687 524.484 367.182 524.542 368.673 L 523.235 371.61 L 519.871 371.077 L 519.834 369.156 L 519.76 366.489 L 519.789 365.083 L 519.476 363.057 C 516.521 361.149 515.149 361.817 511.106 361.758 C 510.796 361.208 510.322 361.078 509.691 360.706 L 509.298 353.6 L 510.234 353.379 C 511.127 351.367 510.024 337.296 510.028 333.304 z"/>
<path transform="translate(0,0)" fill="rgb(104,111,117)" d="M 521.448 362.204 C 517.333 358.61 515.415 350.431 518.871 345.777 C 522.175 344.139 520.773 344.296 524.521 345.339 C 527.828 347.69 529.271 352.118 530.888 355.9 L 529.406 357.49 C 525.832 356.6 526.865 356.356 523.81 357.391 C 522.979 358.987 522.132 360.539 521.448 362.204 z"/>
<path transform="translate(0,0)" fill="rgb(104,111,117)" d="M 607.725 359.197 C 624.616 358.612 643.567 355.904 660.132 356.046 C 657.065 357.146 654.474 358.131 651.277 358.856 C 643.184 358.889 562.515 363.53 557.195 364.827 L 557.203 364.623 C 560.477 364.905 558.733 364.018 560.964 363.821 C 574.617 362.618 590.465 359.853 604.032 359.896 L 607.725 359.197 z"/>
<path transform="translate(0,0)" fill="rgb(131,135,138)" d="M 524.037 364.013 L 525.446 361.592 C 529.085 360.794 536.059 358.801 539.334 361.098 L 538.96 362.441 C 534.934 363.875 532.415 364.449 528.224 365.341 C 531.179 366.33 535.583 366.072 538.833 366.058 L 538.77 366.738 C 532.879 368.236 530.471 368.368 524.542 368.673 C 524.484 367.182 525.312 366.687 526.422 365.215 L 524.037 364.013 z"/>
<path transform="translate(0,0)" fill="rgb(131,135,138)" d="M 538.331 349.993 C 542.069 351.03 545.92 352.854 547.481 356.615 C 545.971 360.59 541.16 359.485 537.852 358.1 C 536.955 357.715 536.086 357.269 535.251 356.765 C 535.758 355.155 537.534 351.671 538.331 349.993 z"/>
<path transform="translate(0,0)" fill="rgb(41,47,49)" d="M 595.741 344.595 L 597.161 344.538 L 597.672 345.753 C 595.712 347.928 590.533 351.982 587.778 353.004 C 584.848 354.092 562.503 355.248 557.253 355.792 C 556.092 355.767 555.256 355.248 554.253 354.724 L 553.936 352.328 C 557.284 348.069 588.707 345.499 595.741 344.595 z"/>
<path transform="translate(0,0)" fill="rgb(41,47,49)" d="M 574.116 356.571 C 577.171 356.156 579.825 355.696 582.848 356.583 L 582.755 357.627 C 580.475 358.433 578.185 359.21 575.885 359.958 L 569.888 359.476 L 569.817 358.288 C 568.777 358.352 567.737 358.436 566.7 358.539 L 568.514 358.132 L 566.692 358.331 C 568.708 356.947 571.459 357.856 573.804 356.735 C 573.91 356.684 574.012 356.626 574.116 356.571 z"/>
<path transform="translate(0,0)" fill="rgb(41,47,49)" d="M 578.795 334.555 C 580.213 335.326 584.208 337.41 585.622 337.407 C 601.104 337.367 620.5 334.741 635.879 333.068 C 628.682 342.359 622.945 357.052 613.76 356.636 C 611.483 356.533 609.53 357.663 607.725 359.197 L 604.032 359.896 C 597.064 355.929 593.89 360.273 589.47 356.738 C 590.192 353.068 599.28 348.072 602.583 346.05 L 602.742 345.178 C 597.125 337.662 562.949 349.861 550.548 347.128 L 550.39 345.247 C 552.574 342.049 552.144 339.939 551.952 336.088 C 554.667 337.162 575.812 335.698 578.795 334.555 z"/>
<path transform="translate(0,0)" fill="rgb(68,73,78)" d="M 665.981 314.188 C 669.5 321.388 676.536 344.675 679.817 347.916 C 676.142 349.65 668.075 352.921 663.99 353.293 C 654.872 353.701 647.09 354.013 638.004 355.314 C 645.916 342.214 657.233 328.708 665.981 314.188 z"/>
<path transform="translate(0,0)" fill="url(#Gradient5)" d="M 639.058 272.558 C 642.677 279.545 650.371 302.815 653.484 305.919 L 655.329 308.206 C 650.756 315.245 644.392 325.725 639.512 332.199 L 637.836 330.256 C 636.465 325.375 635.856 280.54 636.781 273.628 L 639.058 272.558 z"/>
<path transform="translate(0,0)" fill="rgb(89,92,95)" d="M 660.879 299.103 L 664.165 307.025 C 663.56 308.3 661.976 311.295 661.073 312.303 C 654.49 319.656 634.558 358.053 625.404 355.551 C 625.161 351.352 636.388 336.16 639.512 332.199 C 644.392 325.725 650.756 315.245 655.329 308.206 L 660.879 299.103 z"/>
<path transform="translate(0,0)" fill="rgb(41,47,49)" d="M 639.058 272.558 L 638.385 270.493 C 641.3 268.46 645.629 269.234 649.417 269.559 C 652.902 278.405 656.275 287.294 659.534 296.225 C 658.042 298.852 655.376 303.9 653.484 305.919 C 650.371 302.815 642.677 279.545 639.058 272.558 z"/>
<path transform="translate(0,0)" fill="rgb(89,92,95)" d="M 650.97 268.355 C 656.67 268.166 680.116 266.85 684.107 267.685 C 678.367 274.776 673.796 273.233 665.3 272.461 L 650.97 268.355 z"/>
<path transform="translate(0,0)" fill="rgb(68,73,78)" d="M 551.952 336.088 C 552.083 334.695 552.229 334.634 553.156 333.511 C 560.112 332.268 573.285 329.814 578.795 334.555 C 575.812 335.698 554.667 337.162 551.952 336.088 z"/>
<path transform="translate(0,0)" fill="rgb(41,47,49)" d="M 623.898 269.51 C 626.976 269.407 630.083 269.045 632.96 270.349 C 635.242 275.429 634.537 321.155 635.091 331.196 C 627.751 331.829 619.884 333.123 612.552 332.828 C 608.377 332.661 607.307 331.694 604.511 328.634 C 593.089 327.151 575.883 329.605 563.752 329.851 C 560.301 330.161 554.87 331.745 551.899 329.767 C 551.116 327.548 550.957 326.279 551.577 323.998 C 561.307 320.34 610.35 318.271 625.135 316.371 C 625.619 300.74 625.206 285.094 623.898 269.51 z"/>
<path transform="translate(0,0)" fill="rgb(104,111,117)" d="M 497.685 249.55 C 517.236 247.837 544.089 247.369 564.219 246.414 L 697.726 239.916 C 815.096 234.081 935.06 227.03 1052.25 222.842 C 1056.5 232.805 1057.84 235.713 1065.75 243.304 C 1012.22 247.739 952.176 250.171 898.299 253.054 L 714.436 264.171 C 705.695 264.557 690.782 265.591 682.483 265.221 C 668.632 263.638 622.238 267.625 605.884 268.205 C 603.618 268.202 599.261 268.03 597.241 268.578 C 589.094 268.61 581.367 270.03 573.337 269.462 C 571.144 269.307 569.984 266.611 567.146 266.777 C 559.012 267.252 550.738 268.056 542.625 268.571 C 530.059 269.296 517.469 269.55 504.884 269.332 C 508.265 266.29 512.792 262.833 516.395 259.917 C 511.546 256.706 503.053 252.432 497.685 249.55 z"/>
<path transform="translate(0,0)" fill="rgb(104,111,117)" d="M 1054.11 222.471 L 1737.42 189.002 L 1742.57 197.794 C 1703.12 200.363 1662.65 202.053 1623.11 204.029 C 1616.05 203.816 1611.92 204.135 1604.89 204.811 C 1516.33 210.082 1427.65 213.521 1339.09 218.832 C 1327.71 219.514 1273.4 228.017 1268.33 226.008 C 1267.03 222.723 1266.55 220.872 1263.28 219.444 C 1254.18 215.474 1216.57 217.854 1209.25 220.809 C 1208.32 221.181 1207.42 221.636 1206.56 222.168 L 1205.95 224.027 C 1209.35 228.933 1221.17 231.32 1223.4 236.102 C 1221.05 240.871 1177.3 242.601 1169.99 242.406 L 1167.55 242.109 C 1154.78 242.683 1142 242.992 1129.22 243.033 L 1125.84 240.557 C 1122.49 241.082 1110.55 241.259 1106.66 241.407 C 1093.73 241.88 1080.81 242.433 1067.89 243.068 C 1059.72 235.54 1058.48 232.379 1054.11 222.471 z"/>
<path transform="translate(0,0)" fill="url(#Gradient4)" d="M 1125.84 240.557 C 1129.89 232.294 1137.9 234.461 1146.35 234.629 C 1157.68 243.766 1159.82 238.108 1167.55 242.109 C 1154.78 242.683 1142 242.992 1129.22 243.033 L 1125.84 240.557 z"/>
<path transform="translate(0,0)" fill="rgb(180,184,189)" d="M 230.561 358.009 C 248.358 366.486 276.836 370.022 296.271 371.335 C 304.676 373.257 311.403 370.855 319.055 375.913 L 319.583 377.275 C 316.119 376.425 312.942 375.231 309.636 376.418 C 303.149 381.227 307.131 407.417 307.067 416.37 C 297.363 415.139 289.476 414.278 279.965 411.693 L 279.636 413.879 L 280.915 417.14 C 278.95 420.53 277.955 425.546 281.861 427.786 L 280.415 428.178 C 278.357 434.594 277.364 437.558 273.808 443.419 C 263.875 459.79 240.379 461.495 225.507 450.145 C 218.427 443.355 221.891 445.193 218.501 438.619 L 218.308 438.254 C 218.025 430.551 217.999 422.841 218.231 415.136 L 219.412 413.051 C 221.185 411.152 220.683 411.852 220.964 408.895 L 220.961 406.986 L 226.491 407.053 L 231.959 407.514 C 232.321 392.314 231.147 373.465 230.561 358.009 z"/>
<path transform="translate(0,0)" fill="rgb(4,5,6)" d="M 249.293 405.712 C 252.487 406.531 280.279 411.868 279.965 411.693 L 279.636 413.879 L 280.915 417.14 C 278.95 420.53 277.955 425.546 281.861 427.786 L 280.415 428.178 C 278.357 434.594 277.364 437.558 273.808 443.419 C 263.875 459.79 240.379 461.495 225.507 450.145 C 218.427 443.355 221.891 445.193 218.501 438.619 L 218.308 438.254 C 218.025 430.551 217.999 422.841 218.231 415.136 L 219.412 413.051 C 221.185 411.152 220.683 411.852 220.964 408.895 L 220.961 406.986 L 226.491 407.053 L 231.959 407.514 C 232.669 409.55 233.922 413.489 234.723 415.315 C 236.189 418.36 238.002 423.114 240.974 424.375 C 242.641 423.276 243.096 422.814 244.5 421.404 L 250.416 422.588 C 251.339 420.317 249.973 416.437 249.342 413.868 L 248.891 410.499 L 249.293 405.712 z"/>
<path transform="translate(0,0)" fill="rgb(68,73,78)" d="M 249.342 413.868 C 265.886 418.2 252.358 439.048 240.279 435.615 C 234.276 433.908 230.76 420.097 234.723 415.315 C 236.189 418.36 238.002 423.114 240.974 424.375 C 242.641 423.276 243.096 422.814 244.5 421.404 L 250.416 422.588 C 251.339 420.317 249.973 416.437 249.342 413.868 z"/>
<path transform="translate(0,0)" fill="rgb(41,47,49)" d="M 246.141 375.765 C 257.051 378.187 268.102 380.43 278.788 383.682 C 286.916 386.155 302.062 397.735 298.585 407.229 C 295.781 409.917 290.645 411.245 286.825 412.545 C 285.565 411.896 284.273 411.312 282.954 410.795 C 278.222 408.901 253.021 400.15 249.55 401.626 L 249.293 405.712 L 248.891 410.499 C 246.393 398.512 246.18 388.004 246.141 375.765 z"/>
<path transform="translate(0,0)" fill="rgb(104,111,117)" d="M 248.216 378.339 C 258.521 381.334 269.471 382.078 279.509 386.138 C 286.134 388.818 293.732 393.526 296.553 400.476 C 297.553 402.941 297.731 404.18 296.669 406.613 C 283.108 411.84 262.951 402.277 249.207 398.357 C 248.761 391.69 248.431 385.017 248.216 378.339 z"/>
<path transform="translate(0,0)" fill="rgb(104,111,117)" d="M 523.235 371.61 C 527.926 369.984 564.081 367.312 570.841 366.951 C 596.023 365.606 625.086 361.601 649.932 361.059 C 641.003 367.502 635.882 372.565 628.857 381.162 C 626.808 383.67 624.48 388.132 621.91 388.787 C 612.302 388.635 586.433 391.69 575.4 392.679 L 476.119 401.968 L 475.788 375.189 C 489.205 374.395 506.624 372.909 519.871 371.077 L 523.235 371.61 z"/>
<path transform="translate(0,0)" fill="rgb(180,184,189)" d="M 5.78024 18.0813 C 6.4147 15.0181 6.65167 14.494 8.90466 12.3307 C 11.4098 11.9156 12.4071 11.7347 14.9719 13.0939 C 28.869 20.4586 43.071 28.3894 56.8496 35.8626 L 141.854 81.4428 C 145.557 83.4328 167.683 95.9518 170.722 96.5878 C 178.648 101.104 196.644 111.284 204.693 114.697 C 208.175 117.787 224.618 126.021 229.732 128.563 C 233.372 130.758 237.064 132.864 240.806 134.879 C 233.85 138.42 229.753 140.907 228.641 149.133 C 228.539 150.34 228.08 150.953 227.498 152.003 C 221.909 150.706 146.324 103.566 135.854 97.2438 L 50.5262 45.8287 C 36.9009 37.5653 18.2247 26.9419 5.78024 18.0813 z"/>
<path transform="translate(0,0)" fill="rgb(104,111,117)" d="M 475.918 408.985 C 522.854 405.512 573.349 398.603 619.645 396.024 C 616.072 404.407 613.693 411.569 612.452 420.692 C 606.449 421.268 575.832 423.975 572.102 425.179 C 565.947 424.819 544.372 427.089 537.454 427.756 C 517.259 429.87 497.031 431.653 476.778 433.105 C 476.305 424.878 476.908 417.563 475.918 408.985 z"/>
<path transform="translate(0,0)" fill="rgb(89,92,95)" d="M 432.066 511.024 C 451.433 489.994 426.54 469.481 435.452 460.951 C 446.812 459.753 454.748 474.697 456.998 483.937 L 457.288 497.633 C 456.082 515.991 442.551 524.442 442.25 528.954 C 432.346 535.359 417.357 538.169 406.357 533.201 C 404.818 531.485 401.286 529.708 399.329 528.29 C 372.979 509.199 373.922 488.73 390.182 464.289 C 392.132 466.051 398.372 471.379 397.275 472.401 C 389.929 479.246 385.242 519.214 399.833 521.798 C 400.095 518.141 391.989 508.671 391.907 505.201 C 391.564 490.679 391.961 484.74 399.856 473.392 C 403.311 476.97 405.658 480.114 408.636 484.036 C 406.107 493.344 405.352 495.283 407.846 504.826 C 416.465 514.091 419.95 515.835 432.066 511.024 z"/>
<path transform="translate(0,0)" fill="rgb(104,111,117)" d="M 5.78024 18.0813 C 18.2247 26.9419 36.9009 37.5653 50.5262 45.8287 L 135.854 97.2438 C 146.324 103.566 221.909 150.706 227.498 152.003 C 228.08 150.953 228.539 150.34 228.641 149.133 C 229.207 158.757 229.756 156.582 236.77 161.462 C 247.683 169.055 290.041 189.552 297.704 198.227 C 294.564 199.435 292.905 199.203 289.604 199.072 C 200.087 145.548 98.4022 86.3524 10.8551 27.3071 C 9.64422 26.4904 7.03525 23.3985 5.9703 22.1122 L 5.78024 18.0813 z"/>
<path transform="translate(0,0)" fill="rgb(104,111,117)" d="M 330.244 376.183 C 331.646 375.331 419.856 366.769 427.272 366.679 C 417.409 387.498 419.502 392.018 420.133 415.037 C 406.667 408.484 332.873 383.51 327.961 378.834 L 330.244 376.183 z"/>
<path transform="translate(0,0)" fill="rgb(68,73,78)" d="M 390.775 351.086 C 388.5 354.362 386.459 363.439 385.302 367.7 C 367.143 370.875 345.297 370.964 326.764 373.633 L 326.134 375.627 L 325.032 375.49 L 324.772 373.962 L 322.401 374.955 L 323.094 374.927 L 322.716 375.414 L 324.545 376.13 L 324.58 374.864 L 325.255 374.751 L 326.394 376.35 L 330.244 376.183 L 327.961 378.834 L 327.563 377.313 C 323.858 379.394 323.043 379.003 319.583 377.275 L 319.055 375.913 C 311.403 370.855 304.676 373.257 296.271 371.335 L 297.451 369.587 C 292.212 367.941 290.895 367.689 285.413 367.438 L 287.488 368.275 C 284.232 369.508 285.556 369.505 282.184 368.143 L 279.843 366.402 L 279.315 364.487 C 276.488 362.601 269.382 361.007 265.8 360.036 C 286.055 359.905 314.47 355.964 335.643 355.396 C 343.095 355.197 385.673 352.36 390.775 351.086 z"/>
<path transform="translate(0,0)" fill="rgb(104,111,117)" d="M 503.99 333.44 C 501.351 309.56 453.729 293.29 455.956 276.865 L 456.959 276.432 C 458.06 277.479 460.345 279.428 461.176 280.477 C 466.92 287.721 473.753 290.997 480.971 296.409 C 494.815 306.976 508.84 317.304 523.039 327.39 C 530.407 326.611 536.138 326.043 543.373 324.441 C 542.496 317.913 537.504 286.755 539.595 282.343 L 543.242 281.078 C 543.688 285.92 546.313 316.971 547.61 319.659 L 550.39 345.247 L 550.548 347.128 C 551.338 351.193 553.457 361.145 551.427 364.589 C 549.881 361.477 549.739 357.869 549.348 354.385 L 541.314 348.058 C 540.547 341.682 539.853 335.298 539.232 328.906 C 533.127 328.934 510.748 329.753 507.027 333.093 C 505.449 332.464 505.98 332.613 503.99 333.44 z"/>
<path transform="translate(0,0)" fill="rgb(104,111,117)" d="M 206.971 363.827 C 213.326 361.854 222.817 359.632 228.49 357.277 C 228.418 364.776 231.147 403.282 228.839 406.177 L 226.491 407.053 L 220.961 406.986 C 215.818 407.49 210.671 407.954 205.52 408.378 L 208.109 407.314 C 209.435 405.773 209.628 402.812 209.425 400.94 C 208.654 393.852 211.036 368.066 206.971 363.827 z"/>
<path transform="translate(0,0)" fill="rgb(104,111,117)" d="M 759.989 282.43 C 769.084 273.831 766.196 266.728 769.247 264.427 C 776.124 270.719 775.308 345.23 772.982 347.799 C 769.154 338.205 763.352 329.201 760.1 319.263 L 759.989 282.43 z"/>
<path transform="translate(0,0)" fill="rgb(131,135,138)" d="M 205.089 414.762 L 218.231 415.136 C 217.999 422.841 218.025 430.551 218.308 438.254 C 218.059 447.547 220.902 460.406 216.636 465.974 C 213.729 468.233 209.318 467.61 205.51 467.508 L 205.089 414.762 z"/>
<path transform="translate(0,0)" fill="rgb(180,184,189)" d="M 265.8 360.036 C 261.657 359.445 259.427 359.209 255.499 357.774 C 257.285 356.035 387.25 346.642 390.371 348.261 L 390.775 351.086 C 385.673 352.36 343.095 355.197 335.643 355.396 C 314.47 355.964 286.055 359.905 265.8 360.036 z"/>
<path transform="translate(0,0)" fill="rgb(89,50,48)" d="M 1224.63 245.036 C 1228.93 241.652 1223.57 231.33 1226.61 226.909 C 1229.91 225.151 1228.52 225.436 1232.19 225.683 C 1236.72 229.567 1232.19 239.584 1234.62 243.535 C 1236.77 243.699 1240.49 243.283 1241.15 244.261 C 1243.23 247.323 1242.58 256.426 1242.5 260.152 C 1236.41 260.599 1230.02 261.422 1224.16 259.445 C 1224.02 254.008 1224.23 250.389 1224.63 245.036 z"/>
<path transform="translate(0,0)" fill="rgb(180,184,189)" d="M 205.52 408.378 C 202.319 407.007 199.977 405.569 199.471 402.043 C 198.711 396.748 197.722 364.379 199.46 361.155 C 203.648 364.492 201.922 364.011 206.971 363.827 C 211.036 368.066 208.654 393.852 209.425 400.94 C 209.628 402.812 209.435 405.773 208.109 407.314 L 205.52 408.378 z"/>
<path transform="translate(0,0)" fill="rgb(180,184,189)" d="M 1752.69 142.299 C 1758.25 142.005 1761.28 142.004 1766.82 142.444 C 1761.28 148.785 1755.25 156.335 1753.4 164.776 L 1751.93 172.948 C 1747.52 173.022 1741.99 173.281 1737.67 173.167 C 1738.63 161.423 1745.14 150.947 1752.69 142.299 z"/>
<path transform="translate(0,0)" fill="rgb(131,135,138)" d="M 279.636 413.879 C 287.725 416.329 298.419 417.726 306.904 418.355 L 307.18 439.07 C 298.969 428.908 291.476 424.486 280.915 417.14 L 279.636 413.879 z"/>
<path transform="translate(0,0)" fill="rgb(104,111,117)" d="M 512.878 402 C 516.436 399.907 611.909 391.673 621.993 391.287 L 619.848 393.546 C 604.702 393.113 518.356 404.794 512.878 402 z"/>
<path transform="translate(0,0)" fill="rgb(89,50,48)" d="M 1247.18 508.866 C 1249.01 519.564 1246.36 522.487 1235.33 524.793 C 1228.83 526.152 1213.76 524.283 1210.99 517.103 L 1211.22 512.155 L 1211.96 514.112 C 1218.51 518.64 1228.95 519.114 1236.56 517.973 C 1246.48 516.486 1243.04 514.342 1247.18 508.866 z"/>
<path transform="translate(0,0)" fill="rgb(89,92,95)" d="M 491.119 361.355 C 497.185 353.2 496.153 348.793 506.351 340.165 C 508.129 345.772 508.671 347.783 509.298 353.6 L 509.691 360.706 C 504.536 360.766 495.617 363.125 491.119 361.355 z"/>
<path transform="translate(0,0)" fill="rgb(104,111,117)" d="M 1751.93 172.948 L 1753.24 185.892 C 1748.43 186.214 1742.87 186.731 1738.12 186.885 L 1737.67 173.167 C 1741.99 173.281 1747.52 173.022 1751.93 172.948 z"/>
<path transform="translate(0,0)" fill="rgb(180,184,189)" d="M 282.184 368.143 C 270.998 368.122 245.272 362.622 235.078 357.832 L 236.278 357.117 C 249.143 356.622 266.549 362.855 279.843 366.402 L 282.184 368.143 z"/>
<path transform="translate(0,0)" fill="rgb(131,135,138)" d="M 503.99 333.44 C 505.98 332.613 505.449 332.464 507.027 333.093 C 506.952 334.711 506.933 338.918 506.351 340.165 C 496.153 348.793 497.185 353.2 491.119 361.355 C 488.285 348.582 496.69 345.951 503.99 333.44 z"/>
<path transform="translate(0,0)" fill="rgb(104,111,117)" d="M 1739.31 189.271 C 1746.43 188.563 1751.43 186.972 1756.8 191.065 C 1757.72 194.745 1757.05 193.441 1759.85 196.288 C 1756.16 197.098 1748.83 197.139 1744.78 197.282 L 1739.31 189.271 z"/>
<path transform="translate(0,0)" fill="rgb(89,92,95)" d="M 748.984 265.91 C 753.392 262.812 761.182 261.561 765.452 265.739 C 767.637 271.175 765.396 274.283 761.035 277.781 L 759.904 277.297 C 759.604 273.556 759.328 270.337 758.749 266.628 L 757.567 265.986 L 755.471 267.792 C 755.856 268.634 755.7 268.99 755.653 269.986 L 753.785 269.836 C 753.03 268.027 752.912 267.597 751.52 266.159 C 751.021 268.17 750.797 269.645 750.512 271.698 L 748.984 265.91 z"/>
<path transform="translate(0,0)" fill="rgb(180,184,189)" d="M 511.106 361.758 C 515.149 361.817 516.521 361.149 519.476 363.057 L 519.789 365.083 C 513.705 366.662 495.339 366.909 488.758 366.714 L 488.959 366.098 C 498.296 362.971 505 363.902 510.866 361.845 L 511.106 361.758 z"/>
<path transform="translate(0,0)" fill="rgb(131,135,138)" d="M 519.76 366.489 L 519.834 369.156 C 514.043 369.615 493.473 371.756 488.938 371.365 L 488.549 369.977 C 491.746 367.747 514.135 367.058 519.76 366.489 z"/>
<path transform="translate(0,0)" fill="rgb(104,111,117)" d="M 480.79 404.121 C 487.449 403.086 507.211 400.755 512.878 402 C 510.122 404.525 485.109 406.602 480.79 404.121 z"/>
<path transform="translate(0,0)" fill="rgb(131,135,138)" d="M 219.412 413.051 C 213.853 413.387 206.073 413.851 201.24 410.676 C 203.204 409.914 216.697 409.392 220.964 408.895 C 220.683 411.852 221.185 411.152 219.412 413.051 z"/>
<path transform="translate(0,0)" fill="rgb(89,92,95)" d="M 842.459 262.301 C 836.743 263.476 831.322 265.225 825.953 262.744 L 825.699 261.381 C 829.371 258.77 835.193 259.272 839.7 259.37 C 837.931 260.345 836.708 260.884 834.84 261.656 C 838.106 262.316 839.209 262.318 842.459 262.301 z"/>
<path transform="translate(0,0)" fill="rgb(89,92,95)" d="M 847.466 258.931 C 852.668 258.132 868.249 256.421 872.743 258.257 C 872.19 258.563 871.512 258.999 870.931 259.16 L 870.431 257.692 L 869.838 259.348 L 857.279 260.622 C 852.935 258.162 853.108 258.984 847.466 258.931 z"/>
<path transform="translate(0,0)" fill="rgb(89,92,95)" d="M 1604.89 204.811 C 1611.92 204.135 1616.05 203.816 1623.11 204.029 C 1618.15 205.469 1610.22 205.102 1604.89 204.811 z"/>
<path transform="translate(0,0)" fill="rgb(68,73,78)" d="M 456.998 483.937 C 457.692 487.234 458.755 494.638 457.288 497.633 L 456.998 483.937 z"/>
<path transform="translate(0,0)" fill="rgb(104,111,117)" d="M 255.913 214.9 C 264.492 213.57 272.576 213.964 281.064 213.09 C 281.083 216.733 279.882 235.842 280.488 237.297 C 284.992 241.317 290.652 239.253 296.949 239.35 L 303.352 225.2 C 316.27 225.13 349.139 220.412 359.103 222.537 C 373.105 225.524 400.281 237.881 416.534 242.365 C 398.845 245.923 271.598 249.782 258.198 246.27 C 231.057 246.118 227.006 247.045 201.184 239.272 C 201.094 232.014 200.543 224.644 200.094 217.392 C 218.531 216.959 237.278 215.388 255.913 214.9 z"/>
<path transform="translate(0,0)" fill="rgb(180,184,189)" d="M 255.913 214.9 C 258.672 214.989 263.951 214.677 265.802 216.005 C 266.374 221.063 267.871 240.942 266.878 245.492 C 263.38 246.127 261.728 246.191 258.198 246.27 C 231.057 246.118 227.006 247.045 201.184 239.272 C 201.094 232.014 200.543 224.644 200.094 217.392 C 218.531 216.959 237.278 215.388 255.913 214.9 z"/>
<path transform="translate(0,0)" fill="rgb(155,58,55)" d="M 1219.74 289.141 L 1240.91 289.003 C 1241.24 326.458 1241.31 363.915 1241.12 401.371 C 1241.1 417.013 1240.3 450.321 1242.58 464.549 C 1235.06 463.043 1226.65 466.214 1218.73 462.114 C 1216.45 458.237 1219.13 325.32 1219.16 310.443 C 1218.75 304.628 1218.85 294.752 1219.74 289.141 z"/>
<path transform="translate(0,0)" fill="rgb(89,50,48)" d="M 1219.16 310.443 C 1218.75 304.628 1218.85 294.752 1219.74 289.141 C 1220.44 295.206 1220.06 304.345 1219.16 310.443 z"/>
<path transform="translate(0,0)" fill="rgb(180,184,189)" d="M 390.698 195.963 C 406.106 200.235 422.179 202.407 438.005 204.426 C 442.463 204.994 454.785 205.339 458.156 206.952 C 457.543 215.17 456.772 223.268 457.175 231.506 L 458.023 233.259 L 456.91 236.694 C 461.76 238.575 466.695 240.173 469.571 234.989 C 467.067 231.417 462.825 233.814 460.006 230.443 C 458.566 224.995 460.64 216.555 461.793 210.789 C 462.595 209.108 462.981 207.163 464.896 206.764 C 470.338 205.632 482.701 204.177 487.324 207.285 C 486.871 208.687 486.647 209.844 485.658 210.909 C 480.412 224.842 479.175 244.249 491.567 254.901 L 491.053 257.444 C 481.569 256.732 484.298 252.861 476.872 248.833 C 474.162 247.363 471.449 249.17 467.167 246.982 C 468.181 248.934 468.615 249.751 469.968 251.477 L 469.626 252.727 C 467.653 251.664 465.219 250.257 463.174 249.461 C 462.454 250.056 462.249 250.479 461.559 250.431 C 447.817 244.923 429.42 242.575 415.092 239.357 C 405.461 237.194 395.022 233.002 385.718 229.431 C 385.487 224.162 384.142 213.364 386.955 209.745 L 387.035 209.123 C 387.89 203.694 388.878 201.047 390.698 195.963 z"/>
<path transform="translate(0,0)" fill="rgb(131,135,138)" d="M 390.698 195.963 C 406.106 200.235 422.179 202.407 438.005 204.426 C 442.463 204.994 454.785 205.339 458.156 206.952 C 457.543 215.17 456.772 223.268 457.175 231.506 L 453.887 235.656 C 450.34 236.511 414.138 228.953 408.376 226.847 C 396.635 222.554 392.442 220.51 386.955 209.745 L 387.035 209.123 C 387.89 203.694 388.878 201.047 390.698 195.963 z"/>
<path transform="translate(0,0)" fill="rgb(89,92,95)" d="M 390.698 195.963 C 406.106 200.235 422.179 202.407 438.005 204.426 C 442.463 204.994 454.785 205.339 458.156 206.952 C 457.543 215.17 456.772 223.268 457.175 231.506 L 453.887 235.656 C 448.906 233.127 451.895 217.68 452.38 212.915 C 432.16 210.18 407.051 211.573 387.035 209.123 C 387.89 203.694 388.878 201.047 390.698 195.963 z"/>
<path transform="translate(0,0)" fill="rgb(131,135,138)" d="M 461.793 210.789 C 462.595 209.108 462.981 207.163 464.896 206.764 C 470.338 205.632 482.701 204.177 487.324 207.285 C 486.871 208.687 486.647 209.844 485.658 210.909 C 483.791 210.093 466.434 210.939 461.793 210.789 z"/>
<path transform="translate(0,0)" fill="rgb(131,135,138)" d="M 461.559 250.431 C 461.934 246.84 461.419 246.3 463.431 243.719 C 465.96 244.504 465.289 244.425 467.167 246.982 C 468.181 248.934 468.615 249.751 469.968 251.477 L 469.626 252.727 C 467.653 251.664 465.219 250.257 463.174 249.461 C 462.454 250.056 462.249 250.479 461.559 250.431 z"/>
<path transform="translate(0,0)" fill="rgb(41,47,49)" d="M 426.175 254.194 C 428.668 257.918 430.884 261.577 433.195 265.404 C 433.174 269.809 433.273 272.568 432.312 276.861 L 431.048 277.882 C 432.461 282.183 432.768 289.261 433.155 293.967 L 436.544 294.148 L 437.154 294.911 L 437.039 296.031 C 437.705 296.628 439.72 298.174 439.606 298.704 C 438.091 305.755 432.392 309.847 429.677 317.87 L 431.289 323.508 L 431.673 323.533 C 434.292 325.618 437.223 327.353 437.669 330.624 C 436.147 341.72 435.72 339.302 426.01 344.434 C 425.248 349.648 430.684 353.634 433.186 357.915 C 432.962 358.729 432.906 359.254 433.116 360.072 L 428.89 359.173 L 430.113 361.035 C 433.404 361.096 433.972 360.553 436.311 362.261 C 433.425 364.859 420.52 365.33 416.449 364.286 C 408.674 365.508 402.688 367.347 395.223 365.485 L 392.722 361.042 C 392.317 353.383 416.327 270.697 420.402 256.336 C 422.34 255.659 424.264 254.945 426.175 254.194 z"/>
<path transform="translate(0,0)" fill="rgb(131,135,138)" d="M 437.039 296.031 C 437.705 296.628 439.72 298.174 439.606 298.704 C 438.091 305.755 432.392 309.847 429.677 317.87 C 426.101 322.15 420.425 325.589 415.741 328.759 C 419.112 322.824 432.252 297.628 437.039 296.031 z"/>
<path transform="translate(0,0)" fill="rgb(131,135,138)" d="M 433.155 293.967 L 431.71 294.39 C 424.825 291.13 423.21 280.631 431.048 277.882 C 432.461 282.183 432.768 289.261 433.155 293.967 z"/>
<path transform="translate(0,0)" fill="rgb(131,135,138)" d="M 430.113 361.035 C 433.404 361.096 433.972 360.553 436.311 362.261 C 433.425 364.859 420.52 365.33 416.449 364.286 C 420.156 362.996 426.12 361.895 430.113 361.035 z"/>
<path transform="translate(0,0)" fill="rgb(104,111,117)" d="M 201.223 241.466 C 209.924 244.144 218.908 247.052 227.991 248.079 C 228.513 273.983 228.654 301.13 229.663 326.93 L 229.152 328.93 C 231.691 339.247 228.087 338.965 222.354 346.873 C 221.127 348.566 220.993 351.689 219.406 353.205 C 219.176 352.863 218.307 351.64 218.237 351.342 C 218.447 352.449 217.975 353.185 217.523 354.256 C 214.372 355.747 208.292 355.109 204.554 354.979 C 202.769 326.391 202.659 293.987 201.876 265.026 C 200.846 257.134 201.133 249.414 201.223 241.466 z"/>
<path transform="translate(0,0)" fill="rgb(180,184,189)" d="M 201.91 249.286 C 205.682 250.367 211.099 251.741 214.661 253.033 L 216.393 319.84 C 216.572 325.579 217.052 346.541 218.237 351.342 C 218.447 352.449 217.975 353.185 217.523 354.256 C 214.372 355.747 208.292 355.109 204.554 354.979 C 202.769 326.391 202.659 293.987 201.876 265.026 C 201.989 259.709 202.127 254.612 201.91 249.286 z"/>
<path transform="translate(0,0)" fill="rgb(68,73,78)" d="M 229.663 326.93 L 229.152 328.93 C 226.267 328.698 223.759 328.711 221.192 327.34 C 223.377 326.017 226.964 326.707 229.663 326.93 z"/>
<path transform="translate(0,0)" fill="rgb(104,111,117)" d="M 322.539 450.122 C 319.298 450.209 315.796 450.664 313.13 448.699 C 307.131 444.279 307.053 421.681 310.834 416.795 L 315.53 416.67 C 320.432 412.785 314.821 396.937 317.602 392.341 L 321.169 392.201 C 325.773 395.046 345.222 404.877 349.89 405.304 L 351.697 406.199 C 354.077 411.216 378.75 421.066 381.976 427.403 C 379.188 432.851 369.107 430.102 366.758 433.91 C 365.901 435.299 365.919 443.053 365.89 445.46 C 351.625 447.534 336.91 448.75 322.539 450.122 z"/>
<path transform="translate(0,0)" fill="rgb(180,184,189)" d="M 322.539 450.122 C 319.298 450.209 315.796 450.664 313.13 448.699 C 307.131 444.279 307.053 421.681 310.834 416.795 L 315.53 416.67 C 320.432 412.785 314.821 396.937 317.602 392.341 L 321.169 392.201 C 322.763 409.984 321.643 431.815 322.539 450.122 z"/>
<path transform="translate(0,0)" fill="rgb(180,184,189)" d="M 468.527 363.261 C 469.733 362.855 471.231 363.119 472.491 363.19 C 474.435 364.9 474.686 365.422 475.529 367.887 C 475.261 369.953 474.98 370.943 473.459 372.4 C 472.82 371.614 472.162 370.748 471.358 370.125 C 469.602 368.766 469.148 368.964 467.048 369.27 C 465.182 371.117 464.828 371.534 464.166 374.055 C 465.156 376.168 465.838 377.248 467.929 378.344 C 470.442 377.372 470.908 376.197 472.362 374.041 C 475.097 382.788 474.908 441.098 474.406 451.747 C 460.399 454.262 441.034 456.997 427.199 453.579 C 427.029 439.63 426.636 425.686 426.022 411.75 C 426.072 405.113 424.676 398.334 425.108 391.731 C 425.287 389.01 425.861 387.585 427.897 385.815 C 430.433 385.926 434.152 386.589 436.02 388.512 C 440.401 393.021 438.919 442.75 438.968 452.483 C 444.355 451.7 450.058 451.506 454.648 448.342 C 460.007 442.129 453.449 379.518 454.693 367.079 C 457.585 364.331 464.574 363.999 468.527 363.261 z"/>
<path transform="translate(0,0)" fill="rgb(41,47,49)" d="M 430.739 433.973 C 432.724 434.661 433.561 435.338 434.805 437.025 C 435.462 439.926 434.366 442.027 433.249 444.63 C 430.223 443.455 430.087 443.489 428.62 440.615 C 428.707 437.839 429.185 436.279 430.739 433.973 z"/>
<path transform="translate(0,0)" fill="rgb(180,184,189)" d="M 311.084 198.956 C 309.492 194.787 306.669 190.26 304.393 186.345 C 304.268 175.611 316.78 180.968 323.123 179.389 C 325.234 178.863 325.701 176.928 326.639 175.113 C 333.158 176.104 349.427 183.018 356.746 185.723 C 369.097 190.287 377.641 193.028 390.698 195.963 C 388.878 201.047 387.89 203.694 387.035 209.123 L 386.955 209.745 C 384.142 213.364 385.487 224.162 385.718 229.431 C 368.237 222.175 350.872 214.787 332.944 208.757 C 325.89 206.385 317.73 202.364 311.084 198.956 z"/>
<path transform="translate(0,0)" fill="rgb(68,73,78)" d="M 463.863 267.436 C 466.825 270.477 469.478 274.055 472.221 277.312 C 491.871 275.741 511.431 275.321 531.004 272.619 C 531.562 278.059 536.926 317.943 538.341 320.458 C 539.033 317.919 538.151 313.813 538.334 311.02 C 539.481 311.923 539.528 312.63 539.951 313.986 C 540.347 317.411 540.93 319.045 539.352 322.195 C 535.481 324.892 528.157 324.58 523.377 325.115 C 513.51 317.922 462.234 282.224 459.228 275.347 C 460.908 272.765 462.427 270.162 463.863 267.436 z"/>
<path transform="translate(0,0)" fill="rgb(180,184,189)" d="M 366.915 445.147 C 381.736 443.518 380.779 452.424 390.44 455.438 C 401.757 458.969 421.762 450.981 431.199 457.726 C 432.914 461.751 430.661 466.764 431.249 471.085 C 432.773 482.29 440.227 486.727 436.418 499.486 C 434.9 501.266 432.604 503.47 430.43 504.406 C 427.97 505.465 425.696 505.37 423.243 504.375 C 417.116 501.891 413.068 487.395 409.68 481.565 C 403.439 470.824 388.626 460.214 378.117 453.964 C 375.683 452.516 370.227 450.493 368.455 448.561 C 367.932 447.99 367.264 445.92 366.915 445.147 z"/>
<path transform="translate(0,0)" fill="rgb(89,92,95)" d="M 426.639 491.735 C 428.636 490.464 431.268 490.889 432.764 492.722 C 434.26 494.556 434.147 497.22 432.502 498.921 C 431.25 500.214 429.367 500.673 427.661 500.101 C 425.955 499.528 424.729 498.026 424.511 496.24 C 424.293 494.454 425.121 492.701 426.639 491.735 z"/>
<path transform="translate(0,0)" fill="rgb(180,184,189)" d="M 349.89 405.304 C 338.552 397.65 316.223 391.44 314.361 382.071 C 315.942 379.789 315.15 380.222 317.523 379.612 C 347.442 388.049 389.064 405.335 419.58 416.277 C 405.291 417.255 397.525 420.139 385.375 427.653 C 377.002 419.682 362.522 410.012 351.697 406.199 L 349.89 405.304 z"/>
<path transform="translate(0,0)" fill="rgb(155,58,55)" d="M 1216.12 463.194 C 1222.97 465.852 1235.25 467.791 1242.07 464.793 C 1242.24 464.716 1242.41 464.634 1242.58 464.549 C 1243.35 471.553 1244.67 505.084 1241.94 510.122 C 1236.81 514.638 1220.78 514.434 1215.68 510.969 C 1214.52 508.681 1215.94 468.59 1216.12 463.194 z"/>
<path transform="translate(0,0)" fill="rgb(180,184,189)" d="M 436.945 366.447 C 441.68 366.149 446.618 365.527 451.261 366.732 C 451.821 367.491 452.08 368.134 452.229 369.055 C 453.447 376.607 456.288 443.291 453.823 446.4 C 451.588 449.219 444.396 449.401 440.976 449.822 C 441.03 439.065 440.929 428.307 440.672 417.553 C 439.992 409.85 441.004 401.945 439.995 394.312 C 439.595 391.289 438.922 387.78 436.342 385.864 C 432.851 383.273 426.271 384.715 422.201 385.259 C 422.028 382.894 422.872 380.616 423.793 378.47 C 425.049 375.542 426.555 374.197 429.436 373.035 C 432.248 374.102 436.558 374.094 438.929 375.682 C 440.976 377.054 440.245 379.941 440.812 382.162 C 441.402 384.473 441.785 385.13 443.78 386.271 C 444.889 386.168 445.685 385.632 446.551 384.975 C 448.023 383.858 449.292 382.339 449.517 380.438 C 450.65 370.862 438.241 375.536 434.76 371.188 C 434.974 368.751 435.394 368.341 436.945 366.447 z"/>
<path transform="translate(0,0)" fill="rgb(89,92,95)" d="M 240.441 136.876 C 245.248 136.588 294.527 162.528 295.111 164.428 L 278.241 165.691 C 265.298 166.117 267.385 172.455 265.492 174.114 C 257.145 171.462 240.801 162.955 234.669 156.408 C 227.265 148.504 234.252 141.863 240.441 136.876 z"/>
<path transform="translate(0,0)" fill="rgb(180,184,189)" d="M 199.9 188.048 C 205.547 187.442 208.454 190.437 213.616 190.789 C 221.795 191.347 230.643 190.114 238.885 189.884 C 238.935 197.086 241.363 204.783 238.76 211.627 C 235.954 213.792 233.732 213.425 230.245 213.694 L 196.669 215.057 C 193.941 207.645 192.149 199.733 190.069 192.111 L 199.9 188.048 z"/>
<path transform="translate(0,0)" fill="rgb(33,50,75)" d="M 537.249 147.435 C 545.503 145.682 551.853 147.855 559.404 150.427 C 533.149 153.763 495.628 155.049 468.044 157.13 L 384.433 162.997 C 364.86 164.392 344.263 166.296 324.751 166.813 C 320.397 166.162 319.677 169.581 309.05 165.846 C 316.887 163.104 380.603 159.052 391.912 158.28 C 440.399 155.237 488.848 151.621 537.249 147.435 z"/>
<path transform="translate(0,0)" fill="rgb(180,184,189)" d="M 180.546 354.59 C 181.832 354.464 182.391 355.195 183.391 355.93 C 185.107 361.576 184.907 368.036 185.215 373.901 C 172.559 375.07 159.504 375.153 146.999 377.381 L 143.775 376.656 C 141.137 372.538 142.269 362.244 142.295 357.24 C 155.016 356.849 167.845 355.516 180.546 354.59 z"/>
<path transform="translate(0,0)" fill="rgb(155,58,55)" d="M 1235.1 281.172 C 1230.91 281.219 1226.71 281.226 1222.51 281.194 C 1217.38 281.139 1211.34 280.526 1207.57 276.687 C 1204.37 266.704 1222.58 260.154 1230.61 262.613 C 1235.99 266.388 1233.86 272.428 1235.22 279.653 C 1237.27 273.197 1236.14 269.231 1235.13 262.508 C 1242.61 262.412 1256.62 261.879 1257.31 272.639 C 1254.66 282.499 1243 281.285 1235.1 281.172 z"/>
<path transform="translate(0,0)" fill="rgb(180,184,189)" d="M 431.673 323.533 C 434.71 316.157 431.718 313.221 441.617 306.637 C 444.405 304.783 441.839 302.908 441.771 298.612 C 445.186 298.727 448.598 298.908 452.006 299.158 C 452.904 299.654 454.478 300.252 454.538 300.987 C 455.198 309.037 454.421 337.39 452.789 343.926 C 451.088 345.921 446.889 346.042 444.07 346.45 C 437.218 341.681 438.186 338.38 437.669 330.624 C 437.223 327.353 434.292 325.618 431.673 323.533 z"/>
<path transform="translate(0,0)" fill="rgb(104,111,117)" d="M 452.006 299.158 C 452.904 299.654 454.478 300.252 454.538 300.987 C 455.198 309.037 454.421 337.39 452.789 343.926 C 451.088 345.921 446.889 346.042 444.07 346.45 C 444.826 346.165 445.483 345.846 446.153 345.396 C 450.848 342.239 450.403 307.244 452.006 299.158 z"/>
<path transform="translate(0,0)" fill="rgb(89,92,95)" d="M 292.745 167.51 C 299.772 167.583 314.819 167.712 320.517 171.956 C 322.366 173.333 322.224 174.403 322.474 176.531 C 318.725 179.423 306.751 176.713 300.846 180.586 C 299.071 181.749 298.221 183.251 297.906 185.282 C 297.202 189.823 300.115 193.172 302.667 196.571 L 303.643 197.235 L 303.086 197.84 C 296.821 195.655 273.794 181.873 270.796 175.924 C 269.773 173.895 270.153 173.39 270.833 171.365 C 276.959 166.629 285.395 167.664 292.745 167.51 z"/>
<path transform="translate(0,0)" fill="rgb(131,135,138)" d="M 318.755 456.92 L 331.752 457.052 C 331.866 474.618 332.43 492.276 333.096 509.83 L 319.532 509.977 C 319.419 492.29 319.16 474.603 318.755 456.92 z"/>
<path transform="translate(0,0)" fill="rgb(180,184,189)" d="M 426.175 254.194 C 425.92 249.226 425.117 249.384 427.329 245.883 C 435.14 242.938 446.341 246.516 450.384 253.887 C 451.402 255.743 451.609 266.14 451.927 268.764 C 453.286 279.975 439.714 278.854 432.312 276.861 C 433.273 272.568 433.174 269.809 433.195 265.404 C 430.884 261.577 428.668 257.918 426.175 254.194 z"/>
<path transform="translate(0,0)" fill="rgb(104,111,117)" d="M 295.202 212.61 C 299.014 215.569 321.954 213.124 328.007 212.936 C 329.809 214.563 329.704 215.208 329.785 217.675 C 329.803 218.216 329.885 218.629 329.993 219.161 L 330.998 219.14 C 330.971 216.936 331.023 215.611 332.341 213.795 C 338.816 211.353 350.041 217.285 356.314 219.728 C 350.495 220.569 344.695 220.844 338.83 221.118 C 326 223.088 311.708 222.795 298.702 222.992 C 294.854 228.753 291.927 235.549 288.515 241.629 C 287.499 234.149 289.316 225.783 287.892 218.542 C 287.436 216.226 285.192 214.812 283.377 213.542 C 286.547 212.431 291.755 212.811 295.202 212.61 z"/>
<path transform="translate(0,0)" fill="rgb(131,135,138)" d="M 414.462 418.188 L 416.601 419.08 C 415.922 422.759 406.067 429.592 403.815 434.148 C 400.447 440.962 403.7 447.084 401.533 453.502 C 398.351 455.143 395.394 454.302 391.888 454.01 C 391.178 453.926 390.543 453.569 389.931 453.216 C 387.979 452.089 386.822 450.317 386.313 448.133 C 384.45 440.142 389.913 431.268 393.894 424.724 C 400.62 421.903 407.412 420.017 414.462 418.188 z"/>
<path transform="translate(0,0)" fill="rgb(180,184,189)" d="M 211.525 182.746 C 213.254 185.996 213.295 184.951 212.755 187.986 L 213.387 186.53 L 213.468 188.349 C 208.822 186.158 204.642 186.374 202.187 184.134 C 198.04 180.35 196.168 152.205 196.658 147.473 L 198.259 148.16 C 229.148 165.026 211.371 157.572 211.525 182.746 z"/>
<path transform="translate(0,0)" fill="rgb(89,92,95)" d="M 198.259 148.16 C 229.148 165.026 211.371 157.572 211.525 182.746 C 206.889 170.422 203.651 160.458 198.259 148.16 z"/>
<path transform="translate(0,0)" fill="rgb(180,184,189)" d="M 414.573 424.907 L 424.715 428.533 C 425.434 434.828 426.612 443.15 425.876 449.401 C 425.672 451.135 425.769 451.744 424.348 452.871 C 421.679 453.153 419.612 453.354 417.013 452.434 L 416.59 446.094 L 415.674 445.526 C 414.732 447.721 415.025 449.716 415.249 452.02 L 413.702 453.006 L 409.927 451.998 C 409.494 448.785 409.03 445.576 408.534 442.373 C 408.377 446.335 408.517 450.671 407.092 454.411 L 405.494 454.149 C 403.624 450.682 402.573 447.306 402.923 443.318 C 403.585 435.8 409.02 429.532 414.573 424.907 z"/>
<path transform="translate(0,0)" fill="rgb(41,47,49)" d="M 472.482 300.47 L 480.505 308.525 C 480.522 315.534 479.743 350.971 480.81 354.962 L 479.12 358.897 L 477.52 359.337 L 474.116 357.278 L 472.098 354.239 C 472.158 337.683 471.591 316.57 472.482 300.47 z"/>
<path transform="translate(0,0)" fill="rgb(41,47,49)" d="M 462.754 301.252 L 463.257 302.089 C 463.39 302.439 463.504 302.797 463.596 303.161 C 465.114 308.97 465.419 348.613 462.353 353.481 C 459.101 353.56 457.29 354.187 454.898 352.713 C 453.663 349.451 456.375 344.428 456.699 339.435 C 457.188 331.899 456.645 308.107 458.884 302.604 L 462.754 301.252 z"/>
<path transform="translate(0,0)" fill="rgb(131,135,138)" d="M 441.339 296.19 C 441.116 292.006 439.477 283.856 440.537 281.17 C 443.679 279.157 446.534 279.53 450.684 279.737 C 455.872 286.218 469.436 295.897 469.606 300.725 C 467.7 302.508 466.36 302.121 463.257 302.089 L 462.754 301.252 C 454.037 297.762 451.056 297.01 441.339 296.19 z"/>
<path transform="translate(0,0)" fill="rgb(68,73,78)" d="M 492.563 204.959 L 497.104 205.436 C 495.435 208.9 493.126 212.206 491.776 215.783 C 487.503 227.104 491.104 239.747 495.814 250.329 C 500.398 254.035 507.453 255.655 511.203 260.061 C 506.322 259.805 499.36 257.818 495.402 254.934 C 489.444 250.591 486.234 244.367 485.136 237.16 C 483.444 226.059 485.883 214.008 492.563 204.959 z"/>
<path transform="translate(0,0)" fill="rgb(104,111,117)" d="M 253.469 192.495 C 257.608 194.885 261.586 197.99 265.428 200.839 C 268.694 203.261 273.859 206.633 274.487 210.869 L 270.598 211.694 C 263.012 211.739 255.445 212.349 247.88 212.863 L 253.469 192.495 z"/>
<path transform="translate(0,0)" fill="rgb(131,135,138)" d="M 192.684 173.193 C 193.906 173.031 194.982 173.387 196.156 173.687 C 198.315 177.235 198.316 182.366 198.756 186.45 C 194.454 188.446 189.909 189.902 185.434 191.455 C 183.755 190.696 181.949 189.875 180.426 188.829 C 178.811 187.72 177.704 186.08 177.355 184.162 C 177.068 182.58 177.5 181.066 178.456 179.755 C 181.815 175.15 187.455 174.185 192.684 173.193 z"/>
<path transform="translate(0,0)" fill="rgb(68,73,78)" d="M 491.567 254.901 L 495.442 257.75 C 494.3 259.641 492.461 260.512 490.271 260.983 C 495.952 260.51 503.134 259.247 504.04 267.071 C 498.858 273.082 491.275 266.889 489.029 267.719 C 479.292 271.32 472.564 276.311 469.313 261.823 C 480.843 262.836 482.142 264.097 491.053 257.444 L 491.567 254.901 z"/>
<path transform="translate(0,0)" fill="url(#Gradient3)" d="M 487.873 314.439 C 489.005 315.146 490.111 315.892 491.189 316.676 C 495.179 319.592 500.162 324.147 500.792 329.342 C 501.236 332.997 499.218 336.904 497.093 339.73 C 496.664 340.383 496.217 341.025 495.754 341.654 C 494.11 343.852 492.761 345.269 490.025 345.638 C 485.929 341.401 488.119 320.839 487.873 314.439 z"/>
<path transform="translate(0,0)" fill="rgb(89,92,95)" fill-opacity="0.988235" d="M 402.15 305.79 C 407.904 302.888 417.416 255.729 421.41 246.398 L 422.285 246.435 C 421.689 248.334 421.153 253.38 420.402 256.336 C 416.327 270.697 392.317 353.383 392.722 361.042 C 391.776 363.822 391.496 365.211 389.28 367.226 C 386.508 360.311 406.019 318.289 401.494 307.39 L 402.15 305.79 z"/>
<path transform="translate(0,0)" fill="rgb(131,135,138)" d="M 189.672 329.208 C 193.723 330.309 197.657 332.362 201.491 334.072 C 201.584 337.407 202.484 344.201 200.633 347.053 C 199.82 348.306 198.634 348.203 197.25 348.49 C 194.233 348.568 191.229 348.527 188.212 348.467 C 185.763 347.056 185.469 346.475 184.078 343.973 C 183.419 338.843 186.841 333.269 189.672 329.208 z"/>
<path transform="translate(0,0)" fill="rgb(180,184,189)" d="M 180.895 351.169 C 186.697 350.805 192.646 350.148 198.452 350.55 C 198.669 350.776 199.452 351.429 199.533 351.674 C 199.951 352.926 197.175 358.543 196.789 360.098 C 196.1 362.876 196.353 366.399 196.399 369.248 C 196.616 370.694 196.284 371.988 195.986 373.393 C 195.377 373.764 194.729 374.085 194.019 374.205 C 191.546 374.622 189.697 374.107 187.732 372.637 C 185.164 368.533 186.219 362.906 185.801 358.251 C 185.468 354.553 183.493 353.338 180.895 351.169 z"/>
<path transform="translate(0,0)" fill="rgb(131,135,138)" d="M 316.847 506.026 C 317.778 506.956 318.43 508.575 319.297 509.651 C 320.589 511.255 325.024 512.897 327.193 512.973 C 330.776 513.098 333.882 509.097 336.211 506.734 C 337.438 506.711 338.735 506.673 339.955 506.836 C 342.435 507.167 343.357 508.279 344.71 510.128 C 344.288 513.117 343.548 513.332 341.328 515.201 C 334.56 516.407 327.531 517.183 320.653 516.67 C 317.165 516.41 310.132 515.943 307.773 512.982 C 307.357 512.46 307.678 511.406 307.764 510.735 C 310.007 507.935 313.576 507.135 316.847 506.026 z"/>
<path transform="translate(0,0)" fill="rgb(131,135,138)" d="M 201.958 473.989 C 197.078 473.261 197.408 474.013 193.893 471.231 L 193.608 469.079 C 200.071 462.668 203.531 467.387 210.099 468.512 C 218.604 469.969 222.148 462.101 229.754 468.486 C 229.159 474.297 221.837 473.914 216.876 474.31 C 212.998 475.777 205.907 474.685 201.958 473.989 z"/>
<path transform="translate(0,0)" fill="rgb(68,73,78)" d="M 201.958 473.989 L 216.876 474.31 C 212.998 475.777 205.907 474.685 201.958 473.989 z"/>
<path transform="translate(0,0)" fill="rgb(89,92,95)" d="M 1228.75 220.441 C 1235.5 219.604 1243.22 219.913 1250.05 220.049 C 1254.68 220.141 1261.33 220.556 1264.65 224.004 C 1258.37 230.596 1254.62 222.478 1243.75 223.371 C 1236.18 223.361 1228.46 223.006 1221.01 224.573 C 1221.53 225.745 1222.24 226.953 1222.2 228.258 L 1220.74 229.149 C 1215.56 228.697 1210.5 225.665 1205.86 223.456 C 1213.48 221.816 1220.99 221.058 1228.75 220.441 z"/>
<path transform="translate(0,0)" fill="rgb(180,184,189)" d="M 218.559 170.549 C 219.286 166.097 219.334 164.458 219.204 159.938 L 230.467 167.102 C 229.276 172.52 229.215 182.369 228.436 183.851 C 224.43 186.178 221.126 183.32 217.293 181.159 L 215.061 182.891 L 214.209 181.625 L 214.974 180.081 L 220.243 179.665 L 220.841 178.085 L 220.297 177.005 C 219.544 175.249 219.005 172.477 218.559 170.549 z"/>
<path transform="translate(0,0)" fill="rgb(131,135,138)" d="M 253.703 189.071 C 258.76 190.178 264.883 194.541 269.824 196.651 C 276.216 199.381 284.455 201.123 290.347 204.423 C 292.37 205.556 292.474 208.658 292.976 210.792 L 279.556 211.009 C 274.351 205.664 255.766 192.57 253.703 189.071 z"/>
<path transform="translate(0,0)" fill="rgb(180,184,189)" d="M 178.762 376.407 C 184.511 375.375 191.077 375.515 196.671 377.235 L 196.464 378.439 C 190.538 381.862 169.074 381.361 161.036 381.922 C 152.643 381.827 144.21 380.896 135.898 379.795 C 150.117 378.049 164.465 377.215 178.762 376.407 z"/>
<path transform="translate(0,0)" fill="rgb(180,184,189)" d="M 172.616 382.819 C 177.19 381.778 192.079 380.474 195.39 383.761 C 190.554 384.558 188.707 384.152 183.825 383.402 C 181.821 390.478 180.096 395.373 178.14 403.244 L 171.08 396.488 C 171.075 392.952 170.556 384.951 172.616 382.819 z"/>
<path transform="translate(0,0)" fill="rgb(131,135,138)" d="M 409.424 487.521 C 413.311 489.723 415.333 498.479 417.867 502.31 C 422.386 509.141 426.418 505.372 432.617 506.579 L 431.717 508.885 C 427.707 511.23 423.627 512.635 419.008 511.443 C 415.161 510.451 412.361 508.213 410.407 504.775 C 407.226 499.177 407.741 493.479 409.424 487.521 z"/>
<path transform="translate(0,0)" fill="rgb(68,73,78)" d="M 430.154 344.122 C 435.394 343.751 447.168 347.551 451.788 350.092 L 452.374 352.287 L 451.372 354.007 L 449 354.585 C 445.332 355.465 441.393 355.765 437.649 356.264 C 435.313 354.664 432.829 353.076 430.658 351.258 C 428.714 349.63 428.137 348.487 427.924 346.03 L 430.154 344.122 z"/>
<path transform="translate(0,0)" fill="rgb(131,135,138)" d="M 466.575 353.371 C 466.513 341.913 464.566 311.483 468.683 303.235 C 469.256 304.232 469.988 348.355 470.193 353.857 L 466.575 353.371 z"/>
<path transform="translate(0,0)" fill="rgb(131,135,138)" d="M 229.076 345.652 C 229.728 344.884 230.509 343.855 231.196 343.154 C 235.464 338.791 244.412 345.347 244.379 350.496 C 242.235 351.094 237.687 352.055 236.604 353.826 C 233.453 354.949 230.868 354.549 228.236 352.715 C 227.228 348.779 227.503 349.864 229.076 345.652 z"/>
<path transform="translate(0,0)" fill="rgb(180,184,189)" d="M 229.076 345.652 C 232.464 347.903 234.637 350.172 236.604 353.826 C 233.453 354.949 230.868 354.549 228.236 352.715 C 227.228 348.779 227.503 349.864 229.076 345.652 z"/>
<path transform="translate(0,0)" fill="rgb(180,184,189)" d="M 308.537 388.515 L 312.125 387.072 L 311.531 388.512 C 313.792 394.894 317.617 407.713 314.495 414.188 L 312.345 414.498 L 310.385 412.816 C 308.145 407.375 308.642 394.923 308.537 388.515 z"/>
<path transform="translate(0,0)" fill="rgb(131,135,138)" d="M 255.456 182.661 C 260.753 183.324 283.145 197.191 287.413 201.57 C 278.022 198.31 262.976 194.193 255.994 186.688 C 254.946 185.561 255.402 184.147 255.456 182.661 z"/>
<path transform="translate(0,0)" fill="rgb(180,184,189)" d="M 384.224 428.742 C 385.557 428.64 386.487 428.807 387.765 429.167 C 387.214 434.759 384.659 440.674 383.429 446.29 C 380.985 445.649 379.085 445.243 377.43 443.16 C 376.844 441.107 376.236 439.775 376.741 437.62 C 377.733 433.391 380.733 430.973 384.224 428.742 z"/>
<path transform="translate(0,0)" fill="rgb(155,58,55)" d="M 1213.41 282.953 C 1223.62 282.777 1236.48 281.532 1246.39 283.539 L 1246.45 284.758 C 1243.66 286.026 1241.55 286.781 1238.48 287.137 C 1229.6 288.168 1220.74 288.738 1213.41 282.953 z"/>
<path transform="translate(0,0)" fill="rgb(131,135,138)" d="M 480.81 354.962 L 482.775 352.477 C 485.777 352.403 484.696 352.154 487.374 354.264 C 488.779 358.29 488.685 356.682 487.884 360.783 C 484.104 364.477 483.402 363.29 478.508 361.468 C 479.101 365.196 480.984 367.621 480.216 371.114 L 479.03 371.901 L 477.422 371.35 C 475.755 363.422 481.387 369.329 473.641 358.727 L 474.116 357.278 L 477.52 359.337 L 479.12 358.897 L 480.81 354.962 z"/>
<path transform="translate(0,0)" fill="rgb(180,184,189)" d="M 294.327 200.642 C 298.147 200.788 305.995 200.243 308.847 202.913 C 311.116 205.038 310.603 206.745 310.64 209.608 C 307.361 210.017 304.185 210.555 300.903 209.901 C 297.577 208.254 295.953 203.836 294.327 200.642 z"/>
<path transform="translate(0,0)" fill="rgb(131,135,138)" d="M 540.428 271.427 C 543.21 271.225 546.174 270.732 548.822 271.796 C 548.598 274.715 544.965 277.655 542.947 279.877 C 540.266 280.067 537.742 280.477 535.312 279.071 C 533.641 276.929 533.458 276.837 533.552 274.147 C 535.96 271.603 537.067 271.867 540.428 271.427 z"/>
<path transform="translate(0,0)" fill="rgb(180,184,189)" d="M 796.77 261.723 C 796.147 263.625 789.178 268.346 787.292 269.91 L 776.242 265.573 C 775.2 265.191 774.163 264.566 773.165 264.069 L 774.16 262.957 C 781.247 261.363 789.49 261.888 796.77 261.723 z"/>
<path transform="translate(0,0)" fill="rgb(89,50,48)" d="M 1234.8 225.668 C 1236.95 225.693 1239.23 225.499 1241.1 226.696 C 1243.67 230.387 1242.12 237.346 1241.74 241.744 C 1239.93 241.573 1238.46 241.297 1236.77 240.604 C 1234.37 236.582 1234.93 230.303 1234.8 225.668 z"/>
<path transform="translate(0,0)" fill="rgb(89,92,95)" d="M 373.429 454.4 C 373.821 454.486 374.209 454.586 374.593 454.701 C 379.361 456.139 385.917 459.775 388.372 464.287 L 387.3 467.147 C 385.23 468.681 384.939 469.313 382.384 468.981 C 378.101 465.716 375.776 459.154 373.429 454.4 z"/>
<path transform="translate(0,0)" fill="rgb(180,184,189)" d="M 185.629 385.878 C 188.784 385.927 192.999 385.396 195.578 387.438 C 197.421 389.923 196.654 393.874 196.502 396.821 C 191.896 394.79 187.163 394.555 184.356 390.055 L 185.629 385.878 z"/>
<path transform="translate(0,0)" fill="rgb(180,184,189)" d="M 233.275 174.735 C 237.431 175.153 243.386 179.647 246.524 182.353 C 248.872 184.377 249.313 185.066 249.503 188.148 L 247.394 188.298 C 241.559 184.789 236.948 180.485 233.275 174.735 z"/>
<path transform="translate(0,0)" fill="rgb(180,184,189)" d="M 368.909 432.843 C 370.643 432.969 372.381 433.203 374.11 433.391 C 375.997 435.91 374.415 440.869 374.03 444.099 C 370.893 443.38 369.627 443.49 367.835 440.748 C 367.654 437.925 368.226 435.549 368.909 432.843 z"/>
<path transform="translate(0,0)" fill="rgb(180,184,189)" d="M 450.507 357.011 C 453.32 356.905 457.178 356.479 459.811 357.46 C 461.944 358.255 462.839 360.593 463.695 362.524 C 460.771 363.069 457.993 363.581 455.002 363.525 C 452.268 361.755 451.852 359.91 450.507 357.011 z"/>
<path transform="translate(0,0)" fill="rgb(180,184,189)" d="M 447.224 357.148 C 448.929 358.574 449.836 359.553 450.524 361.686 C 449.092 364.24 447.78 364.293 445.144 365.291 C 442.68 364.692 441.597 364.537 439.725 362.734 L 439.788 360.583 C 442.331 358.178 443.906 358.001 447.224 357.148 z"/>
<path transform="translate(0,0)" fill="rgb(180,184,189)" d="M 231.655 178.888 C 236.561 181.552 241.747 187.208 246.053 190.932 C 245.081 194.473 244.313 198.09 243.467 201.663 L 242.753 202.704 C 240.699 199.538 243 193.638 241.148 189.673 C 239.214 185.534 233.639 184.414 231.954 179.871 C 231.834 179.546 231.74 179.223 231.655 178.888 z"/>
<path transform="translate(0,0)" fill="rgb(131,135,138)" d="M 334.032 451.728 L 334.89 452.943 C 332.957 455.34 321.831 455.642 317.99 456.177 C 316.794 455.357 316.399 454.705 315.802 453.404 C 318.541 450.886 329.89 451.815 334.032 451.728 z"/>
<path transform="translate(0,0)" fill="rgb(131,135,138)" d="M 466.575 353.371 L 470.193 353.857 L 472.098 354.239 L 474.116 357.278 L 473.641 358.727 C 469.548 360.631 467.894 361.656 464.145 358.513 C 464.261 355.178 463.922 356.41 466.575 353.371 z"/>
<path transform="translate(0,0)" fill="rgb(131,135,138)" d="M 232.966 169.778 C 238.357 170.658 248.603 177.063 252.157 181.141 C 251.167 181.467 250.078 181.573 249.049 181.744 C 243.325 178.825 237.163 174.684 232.966 169.778 z"/>
<path transform="translate(0,0)" fill="rgb(131,135,138)" d="M 283.432 216.361 C 284.315 216.915 284.958 217.821 285.626 218.61 C 286.344 224.209 287.078 233.275 284.456 238.441 C 281.814 234.812 283.164 221.242 283.432 216.361 z"/>
<path transform="translate(0,0)" fill="rgb(131,135,138)" d="M 473.119 249.29 C 477.896 251.422 480.492 253.504 482.586 258.367 C 479.598 258.149 477.069 258.009 474.373 256.547 C 472.817 253.727 473.047 252.432 473.119 249.29 z"/>
<path transform="translate(0,0)" fill="rgb(180,184,189)" d="M 308.537 388.515 C 308.183 383.373 307.394 383.212 309.325 379.117 L 311.372 377.976 C 315.007 380.372 313.211 383.255 312.125 387.072 L 308.537 388.515 z"/>
<path transform="translate(0,0)" fill="rgb(180,184,189)" d="M 249.605 189.665 L 250.877 191.118 C 250.975 196.036 248.881 201.572 247.629 206.328 C 247.029 205.766 246.577 204.747 246.15 204.036 C 245.553 198.77 246.767 194.12 249.605 189.665 z"/>
<path transform="translate(0,0)" fill="rgb(131,135,138)" d="M 436.544 294.148 C 435.201 290.504 433.718 284.363 435.097 280.667 C 438.685 282.927 440.185 292.325 437.154 294.911 L 436.544 294.148 z"/>
<path transform="translate(0,0)" fill="rgb(104,111,117)" d="M 1245.23 224.948 C 1247.83 224.946 1249.88 224.92 1252.27 226.119 C 1252.12 228.626 1250.63 229.636 1249.02 231.463 C 1248.03 232.141 1246.9 232.686 1245.85 233.273 C 1244.13 230.877 1245.04 227.854 1245.23 224.948 z"/>
<path transform="translate(0,0)" fill="rgb(89,92,95)" d="M 271.799 350.268 C 272.96 349.975 274.467 350.218 275.667 350.269 L 275.651 351.495 C 271.793 353.454 267.455 353.417 263.224 353.647 L 259.685 353.824 L 259.469 353.043 C 263.56 351.933 267.63 351.034 271.799 350.268 z"/>
<path transform="translate(0,0)" fill="rgb(180,184,189)" d="M 181.462 393.193 C 186.235 394.651 194.891 396.974 197.978 401.02 C 196.152 401.062 194.48 400.549 192.755 400.009 C 188.955 398.819 183.405 396.929 181.462 393.193 z"/>
<path transform="translate(0,0)" fill="rgb(131,135,138)" d="M 217.287 186.512 C 222.848 186.177 228.655 185.482 234.196 186.212 C 234.731 186.283 235.123 187.079 235.452 187.51 C 229.759 188.042 224.27 188.465 218.543 188.173 L 217.287 186.512 z"/>
<path transform="translate(0,0)" fill="rgb(104,111,117)" d="M 220.297 177.005 C 218.151 176.817 216.948 176.662 214.847 176.2 L 213.428 173.862 C 213.834 170.978 213.29 171.912 215.525 170.146 L 218.559 170.549 C 219.005 172.477 219.544 175.249 220.297 177.005 z"/>
<path transform="translate(0,0)" fill="rgb(131,135,138)" d="M 252.201 349.966 L 253.467 350.385 L 253.73 351.68 C 250.814 353.775 245.71 354.245 242.186 354.99 C 241.168 354.874 240.958 354.655 240.153 354.063 C 243.732 352.033 248.252 351.117 252.201 349.966 z"/>
<path transform="translate(0,0)" fill="rgb(131,135,138)" d="M 458.023 233.259 C 461.063 233.573 464.762 233.557 467.02 235.435 C 463.859 237.617 460.691 235.764 456.91 236.694 L 458.023 233.259 z"/>
<path transform="translate(0,0)" fill="rgb(104,111,117)" d="M 738.945 264.48 C 741.484 264.311 744.032 264.289 746.576 264.238 L 747.745 265.412 L 746.76 267.099 C 743.55 267.379 740.791 267.5 737.607 266.866 L 737.226 265.67 L 738.945 264.48 z"/>
<path transform="translate(0,0)" fill="url(#Gradient2)" d="M 784.777 352.732 C 791.282 356.338 789.167 366.681 788.868 373.62 C 787.735 370.648 787.642 367.682 787.356 364.518 C 786.579 366.727 786.364 368.81 784.687 369.682 C 782.371 365.638 780.289 361.325 778.201 357.149 L 777.416 354.772 C 778.646 351.755 780.905 354.856 784.777 352.732 z"/>
<path transform="translate(0,0)" fill="url(#Gradient1)" d="M 839.7 259.37 L 847.466 258.931 C 853.108 258.984 852.935 258.162 857.279 260.622 C 853.544 261.379 851.446 261.153 848.92 263.373 L 848.877 264.049 L 844.831 264.626 L 842.459 262.301 C 839.209 262.318 838.106 262.316 834.84 261.656 C 836.708 260.884 837.931 260.345 839.7 259.37 z"/>
</svg>