<svg version="1.1" xmlns="http://www.w3.org/2000/svg" style="display: block;" viewBox="0 0 2048 868" width="2048" height="868" preserveAspectRatio="none">
<path transform="translate(0,0)" fill="rgb(253,253,253)" d="M 1860.84 0 L 1868.61 0 C 1877.15 10.4207 1867.9 12.3846 1877.31 21.5607 C 1907.14 21.6658 1936.98 21.6129 1966.81 21.4017 C 1974.87 21.3753 2009.67 19.9338 2014.02 23.6257 C 2014.05 26.3683 2013.95 27.4836 2013.59 30.1434 C 2017.51 33.2776 2041.25 31.6061 2048 31.842 L 2048 33.377 C 2037.14 33.6182 2023.27 34.0745 2012.45 33.2956 C 2007.89 44.7733 1985.46 110.401 1986.43 116.761 C 1993.33 118.759 2013.82 116.074 2018.14 117.987 C 2012 119.755 1992.32 118.964 1984.78 119.295 C 1974.88 149.118 1967.08 176.17 1957.82 205.758 L 1898.89 390.894 C 1908.15 390.928 1918.87 390.689 1927.96 391.676 C 1918.25 392.127 1908.54 392.399 1898.82 392.491 C 1896.07 402.629 1893.28 410.635 1889.76 420.522 C 1900.43 421.792 1944.6 425.335 1951.03 431.817 C 1951.51 433.727 1951.75 434.038 1950.63 435.813 C 1945.56 443.902 1889.24 456.543 1876.64 459.993 C 1873.6 469.696 1857.33 524.7 1855.08 525.157 C 1814.3 533.436 1749.11 543.959 1709.31 550.587 L 1458.54 593.207 C 1424.65 599.057 1388.31 604.329 1354.8 610.763 C 1356.99 614.117 1359.76 617.695 1360.41 621.569 L 1359.67 623.768 C 1352.8 625.127 1347.65 617.52 1343.63 612.882 C 1321.01 616.555 1297.73 621.018 1275.23 624.383 C 1246.45 629.396 1221.12 633.406 1192.74 640.562 L 1196.68 645.092 C 1199 646.235 1199.21 646.654 1200.69 648.807 L 1200.81 651.422 C 1193.89 656.742 1187.02 647.712 1182.55 642.978 C 1136.73 653.525 1090.37 661.528 1043.67 666.95 C 1036.94 667.703 982.431 671.421 980.601 672.374 L 976.123 672.137 C 972.999 671.59 963.499 671.891 959.798 671.933 L 954.488 673.131 C 952.652 673.091 951.917 673.233 950.094 673.52 L 951.471 675.961 C 945.701 678.76 933.647 672.525 926.097 672.801 C 917.442 673.118 908.85 673.629 900.208 673.704 L 823.351 674.266 C 809.344 674.393 787.997 673.498 775.159 674.354 C 733.639 677.123 692.711 679.761 651.061 681.476 C 621.563 682.691 591.683 682.341 562.34 683.915 C 558.735 684.109 537.714 692.331 530.105 694.195 C 487.999 704.514 446.001 710.358 402.524 707.469 C 392.331 706.791 365.424 704.872 357.706 697.34 C 355.201 694.896 356.967 687.651 357.622 684.076 C 322.059 681.177 284.595 677.636 249.649 670.281 C 248.51 669.818 246.699 668.731 245.558 668.099 C 243.629 663.18 244.007 655.196 243.968 649.685 C 228.573 648.469 209.693 646.261 194.536 643.389 C 198.066 661.986 195.99 781.777 183.488 790.805 C 181.523 790.714 180.795 791.001 179.426 789.461 C 167.896 776.493 169.231 663.134 170.437 640.1 C 132.268 633.433 97.4064 624.518 62.0266 608.488 C 50.4993 603.266 37.7858 596.678 33.2107 583.951 C 31.1283 578.158 31.5044 572.268 34.1464 566.729 C 47.3408 539.07 140.066 505.677 169.978 494.663 C 171.993 491.91 169.803 473.425 171.776 465.429 C 172.073 457.414 174.628 399.288 176.994 396.99 C 180.817 398.264 184.417 398.824 188.429 397.79 L 189.214 398.548 C 190.497 401.161 191.161 402.703 192.129 405.447 C 192.277 415.658 194.755 433.524 195.105 445.071 C 195.391 454.472 196.2 478.517 197.579 486.446 C 231.508 474 276.541 465.298 312.097 456.959 C 318.152 455.539 347.217 450.617 349.724 448.529 C 349.334 445.99 349.294 445.402 349.507 442.844 C 353.51 439.204 366.579 432.334 372.185 429.069 C 390.186 418.529 408.333 408.241 426.62 398.206 C 441.273 390.227 456.916 383.767 469.471 373.216 L 471.389 375.044 C 510.484 351.793 567.986 355.053 612.207 355.044 L 724.841 355.114 C 854.239 354.224 983.643 354.87 1113.03 357.05 L 1113.29 355.995 L 1115.12 355.056 C 1118.02 355.153 1120.92 355.17 1123.82 355.109 C 1148.13 354.608 1193.73 348.246 1219.28 345.445 C 1277.03 339.553 1334.74 333.199 1392.39 326.383 L 1497.43 315.078 C 1563.14 307.847 1597.01 306.356 1646.21 254.924 C 1658.81 238.392 1687.09 208.917 1702.03 191.971 C 1725.27 165.592 1748.81 139.487 1772.66 113.663 C 1782.76 102.622 1796.97 85.961 1807.39 75.8726 C 1812.7 69.305 1820.35 61.5162 1825.58 55.4619 C 1833.72 46.0303 1841.2 35.5641 1851.48 29.7128 C 1854.18 28.1719 1857.86 5.49563 1860.65 0.349731 L 1860.84 0 z M 424.992 463.38 C 433.613 462.329 435.194 460.054 441.497 454.219 C 446.037 446.771 475.08 419.158 483.135 410.409 L 484.218 410.519 C 482.569 406.729 482.528 407.977 483 404.158 C 484.764 400.519 488.186 398.578 489.062 393.505 C 487.982 389.927 488.437 391.05 485.277 388.393 C 481.023 385.648 471.445 377.753 468.032 377.707 C 468.262 380.599 482.611 390.06 485.9 394.296 L 482.927 399.214 C 481.842 401.623 480.91 403.957 479.439 406.148 L 478.87 407.058 C 469.073 422.349 437.549 448.206 424.992 463.38 z M 1898.82 392.491 C 1908.54 392.399 1918.25 392.127 1927.96 391.676 C 1918.87 390.689 1908.15 390.928 1898.89 390.894 L 1957.82 205.758 C 1967.08 176.17 1974.88 149.118 1984.78 119.295 C 1992.32 118.964 2012 119.755 2018.14 117.987 C 2013.82 116.074 1993.33 118.759 1986.43 116.761 C 1985.46 110.401 2007.89 44.7733 2012.45 33.2956 C 2023.27 34.0745 2037.14 33.6182 2048 33.377 L 2048 31.842 C 2041.25 31.6061 2017.51 33.2776 2013.59 30.1434 C 2013.95 27.4836 2014.05 26.3683 2014.02 23.6257 C 2009.67 19.9338 1974.87 21.3753 1966.81 21.4017 C 1936.98 21.6129 1907.14 21.6658 1877.31 21.5607 C 1867.9 12.3846 1877.15 10.4207 1868.61 0 L 1860.84 0 L 1860.65 0.349731 C 1857.86 5.49563 1854.18 28.1719 1851.48 29.7128 C 1841.2 35.5641 1833.72 46.0303 1825.58 55.4619 C 1820.35 61.5162 1812.7 69.305 1807.39 75.8726 C 1796.97 85.961 1782.76 102.622 1772.66 113.663 C 1748.81 139.487 1725.27 165.592 1702.03 191.971 C 1687.09 208.917 1658.81 238.392 1646.21 254.924 C 1597.01 306.356 1563.14 307.847 1497.43 315.078 L 1392.39 326.383 C 1334.74 333.199 1277.03 339.553 1219.28 345.445 C 1193.73 348.246 1148.13 354.608 1123.82 355.109 C 1120.92 355.17 1118.02 355.153 1115.12 355.056 L 1113.29 355.995 L 1113.03 357.05 L 1405.95 378.368 L 1482.6 384.558 C 1491.95 385.316 1512.85 386.495 1521.28 387.99 C 1503.72 408.202 1479.33 432.212 1460.54 451.829 L 1465.89 461.174 C 1486.2 461.157 1507.17 460.863 1527.42 461.149 C 1527.49 478.84 1527.92 498.231 1527.54 515.782 L 1465.09 515.802 C 1445.6 548.279 1412.73 554.377 1380.13 537.093 C 1356.93 562.049 1333.41 590.401 1305.03 608.343 C 1294.05 613.094 1280.46 614.654 1269.69 618.543 C 1266.68 621.97 1262.05 621.615 1257.84 625.055 C 1254.86 624.507 1276.45 624.316 1275.23 624.383 C 1297.73 621.018 1321.01 616.555 1343.63 612.882 C 1347.65 617.52 1352.8 625.127 1359.67 623.768 L 1360.41 621.569 C 1359.76 617.695 1356.99 614.117 1354.8 610.763 C 1388.31 604.329 1424.65 599.057 1458.54 593.207 L 1709.31 550.587 C 1749.11 543.959 1814.3 533.436 1855.08 525.157 C 1857.33 524.7 1873.6 469.696 1876.64 459.993 C 1889.24 456.543 1945.56 443.902 1950.63 435.813 C 1951.75 434.038 1951.51 433.727 1951.03 431.817 C 1944.6 425.335 1900.43 421.792 1889.76 420.522 C 1893.28 410.635 1896.07 402.629 1898.82 392.491 z M 358.24 447.622 C 366.297 446.319 375.458 444.618 383.487 443.764 C 392.433 436.951 401.917 430.356 409.313 421.885 C 411.417 419.474 411.345 417.248 412.399 414.443 L 411.927 414.151 C 406.488 417.453 357.689 446.468 357.378 447.139 L 358.24 447.622 z"/>
<path transform="translate(0,0)" fill="rgb(253,253,253)" fill-opacity="0.0313725" d="M 478.87 407.058 L 479.439 406.148 L 483.135 410.409 C 475.08 419.158 446.037 446.771 441.497 454.219 C 435.194 460.054 433.613 462.329 424.992 463.38 C 437.549 448.206 469.073 422.349 478.87 407.058 z"/>
<path transform="translate(0,0)" fill="rgb(253,253,253)" fill-opacity="0.360784" d="M 485.9 394.296 C 482.611 390.06 468.262 380.599 468.032 377.707 C 471.445 377.753 481.023 385.648 485.277 388.393 L 485.9 394.296 z"/>
<path transform="translate(0,0)" fill="rgb(253,253,253)" fill-opacity="0.266667" d="M 485.277 388.393 C 488.437 391.05 487.982 389.927 489.062 393.505 C 488.186 398.578 484.764 400.519 483 404.158 C 482.528 407.977 482.569 406.729 484.218 410.519 L 483.135 410.409 L 479.439 406.148 C 480.91 403.957 481.842 401.623 482.927 399.214 L 485.9 394.296 L 485.277 388.393 z"/>
<path transform="translate(0,0)" fill="rgb(231,94,35)" d="M 1860.84 0 L 1868.61 0 C 1877.15 10.4207 1867.9 12.3846 1877.31 21.5607 C 1907.14 21.6658 1936.98 21.6129 1966.81 21.4017 C 1974.87 21.3753 2009.67 19.9338 2014.02 23.6257 C 2014.05 26.3683 2013.95 27.4836 2013.59 30.1434 C 2017.51 33.2776 2041.25 31.6061 2048 31.842 L 2048 33.377 C 2037.14 33.6182 2023.27 34.0745 2012.45 33.2956 C 2007.89 44.7733 1985.46 110.401 1986.43 116.761 C 1993.33 118.759 2013.82 116.074 2018.14 117.987 C 2012 119.755 1992.32 118.964 1984.78 119.295 C 1974.88 149.118 1967.08 176.17 1957.82 205.758 L 1898.89 390.894 C 1908.15 390.928 1918.87 390.689 1927.96 391.676 C 1918.25 392.127 1908.54 392.399 1898.82 392.491 C 1896.07 402.629 1893.28 410.635 1889.76 420.522 C 1900.43 421.792 1944.6 425.335 1951.03 431.817 C 1951.51 433.727 1951.75 434.038 1950.63 435.813 C 1945.56 443.902 1889.24 456.543 1876.64 459.993 C 1873.6 469.696 1857.33 524.7 1855.08 525.157 C 1814.3 533.436 1749.11 543.959 1709.31 550.587 L 1458.54 593.207 C 1424.65 599.057 1388.31 604.329 1354.8 610.763 C 1356.99 614.117 1359.76 617.695 1360.41 621.569 L 1359.67 623.768 C 1352.8 625.127 1347.65 617.52 1343.63 612.882 C 1321.01 616.555 1297.73 621.018 1275.23 624.383 C 1276.45 624.316 1254.86 624.507 1257.84 625.055 C 1262.05 621.615 1266.68 621.97 1269.69 618.543 C 1280.46 614.654 1294.05 613.094 1305.03 608.343 C 1333.41 590.401 1356.93 562.049 1380.13 537.093 C 1412.73 554.377 1445.6 548.279 1465.09 515.802 L 1527.54 515.782 C 1527.92 498.231 1527.49 478.84 1527.42 461.149 C 1507.17 460.863 1486.2 461.157 1465.89 461.174 L 1460.54 451.829 C 1479.33 432.212 1503.72 408.202 1521.28 387.99 C 1512.85 386.495 1491.95 385.316 1482.6 384.558 L 1405.95 378.368 L 1113.03 357.05 L 1113.29 355.995 L 1115.12 355.056 C 1118.02 355.153 1120.92 355.17 1123.82 355.109 C 1148.13 354.608 1193.73 348.246 1219.28 345.445 C 1277.03 339.553 1334.74 333.199 1392.39 326.383 L 1497.43 315.078 C 1563.14 307.847 1597.01 306.356 1646.21 254.924 C 1658.81 238.392 1687.09 208.917 1702.03 191.971 C 1725.27 165.592 1748.81 139.487 1772.66 113.663 C 1782.76 102.622 1796.97 85.961 1807.39 75.8726 C 1812.7 69.305 1820.35 61.5162 1825.58 55.4619 C 1833.72 46.0303 1841.2 35.5641 1851.48 29.7128 C 1854.18 28.1719 1857.86 5.49563 1860.65 0.349731 L 1860.84 0 z M 1874.1 22.1572 C 1869.17 17.4001 1861.27 16.3299 1857.39 22.7878 L 1857.84 24.8929 C 1860.8 25.6393 1860.54 25.1718 1863.91 24.2252 C 1866.81 23.4745 1871.05 22.7686 1874.1 22.1572 z M 1947.02 438.845 C 1948.28 434.556 1948.62 435.573 1947.65 431.682 C 1945.2 429.306 1941.93 429.56 1938.45 429.371 C 1937.79 432.549 1936.98 435.028 1937.82 438.152 C 1941.07 441.122 1942.96 439.973 1947.02 438.845 z"/>
<path transform="translate(0,0)" fill="rgb(253,253,253)" fill-opacity="0.0196078" d="M 1863.91 24.2252 C 1860.54 25.1718 1860.8 25.6393 1857.84 24.8929 L 1857.39 22.7878 C 1861.27 16.3299 1869.17 17.4001 1874.1 22.1572 C 1871.05 22.7686 1866.81 23.4745 1863.91 24.2252 z"/>
<path transform="translate(0,0)" fill="rgb(99,21,10)" d="M 1877.31 21.5607 C 1907.14 21.6658 1936.98 21.6129 1966.81 21.4017 C 1974.87 21.3753 2009.67 19.9338 2014.02 23.6257 C 2014.05 26.3683 2013.95 27.4836 2013.59 30.1434 C 2017.51 33.2776 2041.25 31.6061 2048 31.842 L 2048 33.377 C 2037.14 33.6182 2023.27 34.0745 2012.45 33.2956 C 2007.89 44.7733 1985.46 110.401 1986.43 116.761 C 1993.33 118.759 2013.82 116.074 2018.14 117.987 C 2012 119.755 1992.32 118.964 1984.78 119.295 C 1974.88 149.118 1967.08 176.17 1957.82 205.758 L 1898.89 390.894 C 1908.15 390.928 1918.87 390.689 1927.96 391.676 C 1918.25 392.127 1908.54 392.399 1898.82 392.491 C 1896.07 402.629 1893.28 410.635 1889.76 420.522 C 1900.43 421.792 1944.6 425.335 1951.03 431.817 C 1951.51 433.727 1951.75 434.038 1950.63 435.813 C 1945.56 443.902 1889.24 456.543 1876.64 459.993 C 1873.6 469.696 1857.33 524.7 1855.08 525.157 C 1814.3 533.436 1749.11 543.959 1709.31 550.587 L 1458.54 593.207 C 1424.65 599.057 1388.31 604.329 1354.8 610.763 C 1356.99 614.117 1359.76 617.695 1360.41 621.569 L 1359.67 623.768 C 1352.8 625.127 1347.65 617.52 1343.63 612.882 C 1321.01 616.555 1297.73 621.018 1275.23 624.383 C 1276.45 624.316 1254.86 624.507 1257.84 625.055 C 1262.05 621.615 1266.68 621.97 1269.69 618.543 C 1280.46 614.654 1294.05 613.094 1305.03 608.343 C 1333.41 590.401 1356.93 562.049 1380.13 537.093 C 1412.73 554.377 1445.6 548.279 1465.09 515.802 L 1527.54 515.782 C 1527.92 498.231 1527.49 478.84 1527.42 461.149 C 1507.17 460.863 1486.2 461.157 1465.89 461.174 L 1460.54 451.829 C 1479.33 432.212 1503.72 408.202 1521.28 387.99 L 1521.94 387.922 L 1523.05 385.859 C 1543.84 386.862 1569.18 390.692 1588.85 391.219 C 1597.09 386.176 1605.8 381.043 1613.75 375.621 C 1627.15 369.053 1633.01 361.011 1649.65 359.411 C 1690.91 355.441 1732.59 357.34 1773.87 360.047 C 1776.68 360.231 1777.09 359.531 1778.74 357.697 C 1779.65 354.992 1780.04 352.98 1782.17 351.095 C 1782.74 354.036 1780.88 357.498 1779.68 360.383 C 1803.52 361.887 1829.64 362.622 1853.22 364.855 C 1851.58 371.602 1848.27 381.132 1846.13 387.962 L 1872.95 387.954 C 1874.47 383.164 1883.96 352.683 1886.16 350.811 C 1885.77 357.755 1877.61 380.232 1875.05 387.919 L 1897.58 387.994 L 1981.77 119.224 L 1961.66 119.072 L 1922.57 239.983 C 1920.43 246.664 1907.15 289.906 1904.76 293.489 C 1903.56 289.667 1956.47 128.985 1960.3 117.058 L 1982.46 116.997 C 1992.57 86.3754 2002.11 54.7729 2011.79 23.9731 C 1971.07 23.6637 1929.22 24.3895 1888.41 24.6204 C 1883.37 30.1015 1875.57 40.5997 1870.72 46.783 L 1905.88 46.49 L 1902.23 56.0362 L 1902.99 57.4868 C 1907.03 59.6815 1909.29 60.1469 1911.02 63.9575 C 1908.35 67.7103 1902.11 67.0082 1897.71 67.0576 L 1889.73 88.0872 C 1886.72 94.9143 1883.83 101.789 1881.04 108.71 L 1879.18 108.489 C 1884.8 93.9759 1890.57 79.5263 1896.51 65.1432 L 1912.61 64.3047 L 1898.79 58.7837 C 1900.42 55.1075 1901.32 52.3405 1902.54 48.5607 C 1887.04 48.6208 1871.55 48.769 1856.06 49.0056 L 1854.23 46.9552 L 1837.07 46.8542 C 1844.79 36.7162 1851 31.1127 1863.14 27.2951 L 1863.91 24.2252 C 1866.81 23.4745 1871.05 22.7686 1874.1 22.1572 L 1875.15 22.7494 L 1877.31 21.5607 z M 1947.02 438.845 C 1948.28 434.556 1948.62 435.573 1947.65 431.682 C 1945.2 429.306 1941.93 429.56 1938.45 429.371 C 1937.79 432.549 1936.98 435.028 1937.82 438.152 C 1941.07 441.122 1942.96 439.973 1947.02 438.845 z"/>
<path transform="translate(0,0)" fill="rgb(231,94,35)" d="M 1521.28 387.99 L 1521.94 387.922 C 1540 389.492 1567.26 392.743 1584.67 393.225 C 1572.31 402.554 1553.86 412.157 1540.57 420.803 C 1533.6 425.345 1518.71 429.384 1513.6 435.786 C 1517.05 449.547 1545.63 448.634 1557.65 449.789 C 1608.96 454.883 1660.6 455.62 1712.03 451.994 C 1718.67 451.494 1725.37 450.868 1731.9 449.392 C 1763.47 442.254 1797.68 442.134 1829.94 438.889 C 1832.2 431.879 1835.31 423.131 1837.2 416.171 C 1868.71 420.414 1903.48 425.296 1934.88 428.617 L 1935 441.662 L 1501.78 557.116 L 1372.73 591.357 C 1359.3 594.943 1317.93 606.792 1305.03 608.343 C 1333.41 590.401 1356.93 562.049 1380.13 537.093 C 1412.73 554.377 1445.6 548.279 1465.09 515.802 L 1527.54 515.782 C 1527.92 498.231 1527.49 478.84 1527.42 461.149 C 1507.17 460.863 1486.2 461.157 1465.89 461.174 L 1460.54 451.829 C 1479.33 432.212 1503.72 408.202 1521.28 387.99 z"/>
<path transform="translate(0,0)" fill="rgb(203,106,69)" d="M 1661.75 470.5 C 1664.68 470.268 1667.29 471.538 1671.45 471.421 C 1684.63 471.049 1697.84 470.759 1711.02 470.445 C 1713.38 471.527 1714.7 474.915 1715.96 477.381 C 1718.73 476.189 1719.15 473.312 1722.94 470.262 C 1726.06 470.513 1724.91 469.98 1727.21 472.403 C 1727.2 479.884 1732.73 486.941 1724.59 491.733 C 1720.88 491.204 1722.19 491.744 1719.4 489.23 C 1717.76 487.171 1716.11 487.718 1715 486.984 C 1714.33 486.538 1714.4 484.259 1712.17 483.019 C 1711.2 484.166 1705.02 491.349 1704.06 491.339 C 1687.52 491.161 1670.97 491.317 1654.42 491.415 C 1649.27 488.394 1649.45 477.728 1651.53 472.712 C 1654.81 470.517 1656.78 472.587 1661.75 470.5 z"/>
<path transform="translate(0,0)" fill="rgb(57,20,15)" d="M 1674.52 471.894 C 1677.62 471.823 1678.5 471.671 1681.42 472.814 C 1686.15 477.314 1685.62 484.788 1682.51 490.017 C 1679.29 490.081 1678.48 490.222 1675.47 488.969 C 1670.92 484.553 1671.77 477.066 1674.52 471.894 z"/>
<path transform="translate(0,0)" fill="rgb(57,20,15)" d="M 1689.64 471.805 C 1691.34 471.889 1693.26 472.137 1694.97 472.317 C 1701.42 476.124 1701.59 486.724 1693.64 489.965 C 1690.15 489.834 1689.71 489.443 1686.86 487.408 L 1687.97 485.775 C 1690.28 485.692 1691.7 486.305 1693.89 486.982 L 1695.57 485.546 C 1694.89 481.457 1689.67 483.568 1687.2 478.668 C 1687.3 474.498 1687.27 475.715 1689.64 471.805 z"/>
<path transform="translate(0,0)" fill="rgb(57,20,15)" d="M 1660.76 471.929 C 1665.62 472.136 1666.12 471.6 1668.95 474.403 C 1667.4 476.272 1664.27 476.482 1661.5 477.152 L 1661.08 478.451 L 1659.91 477.905 C 1663.68 479.096 1666.9 480.16 1670.61 481.596 C 1670.59 481.942 1670.57 482.286 1670.53 482.63 C 1670.15 486.307 1669.73 487.213 1667.1 489.371 C 1663.45 490.194 1664.85 490.227 1661.3 488.784 C 1656.5 483.659 1656.52 477.575 1660.76 471.929 z"/>
<path transform="translate(0,0)" fill="rgb(57,20,15)" d="M 1700.58 472.489 C 1705.25 471.844 1707.97 471.204 1711.86 473.35 L 1712.48 475.693 C 1711.6 479.841 1706.82 486.695 1704.36 490.576 C 1703.85 490.282 1703 489.42 1702.53 488.977 C 1703.05 486.1 1707.49 480.461 1709.34 477.09 C 1707.77 472.909 1706.81 477.898 1700.58 472.489 z"/>
<path transform="translate(0,0)" fill="rgb(57,20,15)" d="M 1653.14 471.549 L 1654.94 473.157 C 1656.46 479.032 1655.71 484.595 1654.91 490.506 L 1653.04 488.839 C 1651.64 483.215 1652.27 477.225 1653.14 471.549 z"/>
<path transform="translate(0,0)" fill="rgb(57,20,15)" d="M 1625.12 472.837 L 1628.08 473.851 L 1632.67 471.482 C 1634.45 471.695 1637.54 471.878 1638.99 472.669 L 1640.32 474.574 L 1640.02 473.177 L 1640.84 473.587 L 1640.77 474.706 C 1637.33 475.788 1635.56 476.062 1633.17 478.705 C 1632.34 482.236 1632.3 480.768 1633.42 484.273 C 1635.79 486.48 1637.83 486.349 1641.08 486.672 C 1638.38 490.591 1637.29 490.099 1632.62 490.199 C 1629.05 488.981 1628.17 488.977 1624.36 488.871 L 1623.4 489.311 C 1621.72 483.201 1620.32 487.782 1615.43 484.697 C 1615.56 480.046 1619.54 476.301 1622.69 472.793 L 1625.12 472.837 z"/>
<path transform="translate(0,0)" fill="rgb(57,20,15)" d="M 1624.36 488.871 L 1623.4 489.311 C 1621.72 483.201 1620.32 487.782 1615.43 484.697 C 1615.56 480.046 1619.54 476.301 1622.69 472.793 L 1625.12 472.837 C 1625.74 480.588 1627.37 482.78 1624.36 488.871 z"/>
<path transform="translate(0,0)" fill="rgb(203,106,69)" d="M 1625.12 472.837 L 1628.08 473.851 L 1632.67 471.482 C 1628.61 476.837 1628.22 484.939 1632.62 490.199 C 1629.05 488.981 1628.17 488.977 1624.36 488.871 C 1627.37 482.78 1625.74 480.588 1625.12 472.837 z"/>
<path transform="translate(0,0)" fill="rgb(57,20,15)" d="M 1577.05 472.439 C 1581.03 472.027 1582.98 471.691 1586.9 472.298 L 1587.51 473.839 C 1584.64 479.569 1584.63 480.849 1585.13 487.25 L 1584.79 488.654 L 1583.56 489.219 C 1581.89 487.051 1581.98 479.534 1581.8 476.312 C 1579.68 475.07 1578.7 474.26 1577.05 472.439 z"/>
<path transform="translate(0,0)" fill="rgb(231,94,35)" d="M 1863.14 27.2951 C 1871.23 25.1787 1877.29 24.8122 1885.65 24.6142 C 1879.13 31.8852 1873.87 39.0913 1868.04 46.891 L 1854.23 46.9552 L 1837.07 46.8542 C 1844.79 36.7162 1851 31.1127 1863.14 27.2951 z"/>
<path transform="translate(0,0)" fill="rgb(231,94,35)" d="M 1372.21 594.162 L 1709.96 504.049 C 1763.87 489.63 1820.77 475.498 1874.09 460.069 C 1867.66 480.906 1861.05 502.81 1854.1 523.433 L 1519.15 580.624 L 1425.94 596.557 C 1421.01 597.406 1389.97 603.017 1386.54 602.952 C 1360.36 609.056 1332.29 611.882 1305.82 616.964 C 1292.3 619.559 1277.87 622.064 1264.23 623.634 C 1274.07 618.876 1294.69 614.131 1306.28 611.117 L 1372.21 594.162 z"/>
<path transform="translate(0,0)" fill="rgb(203,106,69)" d="M 1372.21 594.162 C 1366.52 599.541 1342.95 603.027 1334.79 605.211 C 1329.4 606.654 1327.63 608.55 1321.58 609.108 L 1320.74 610.363 C 1326.14 614.421 1326.38 610.553 1330.01 610.408 C 1343.69 609.861 1373.81 601.045 1386.54 602.952 C 1360.36 609.056 1332.29 611.882 1305.82 616.964 C 1292.3 619.559 1277.87 622.064 1264.23 623.634 C 1274.07 618.876 1294.69 614.131 1306.28 611.117 L 1372.21 594.162 z"/>
<path transform="translate(0,0)" fill="rgb(231,94,35)" d="M 1641.79 376.242 C 1644.11 374.672 1645.63 372.926 1648.57 373.163 C 1688.07 376.351 1741.15 379.867 1779.54 374.105 C 1776.4 378.809 1766.49 394.36 1763.43 397.925 C 1762.67 401.101 1736.83 438.524 1733.1 444.296 C 1669.54 449.415 1605.63 448.353 1542.28 441.127 C 1573.96 419.532 1609.35 396.899 1641.79 376.242 z"/>
<path transform="translate(0,0)" fill="rgb(224,96,43)" d="M 1641.79 376.242 C 1644.11 374.672 1645.63 372.926 1648.57 373.163 C 1688.07 376.351 1741.15 379.867 1779.54 374.105 C 1776.4 378.809 1766.49 394.36 1763.43 397.925 C 1764.7 389.525 1770.46 382.391 1770.35 378.788 C 1765.9 377.921 1750.08 379.475 1744.51 379.658 C 1731.91 379.978 1719.3 380.051 1706.7 379.877 C 1699.68 379.768 1692.63 379.448 1685.62 379.386 C 1670.87 379.256 1656.53 376.497 1641.79 376.242 z"/>
<path transform="translate(0,0)" fill="rgb(231,94,35)" d="M 1848.25 367.64 L 1848.99 367.89 C 1849.72 371.144 1841.05 396.01 1839.51 400.67 L 1824.76 401.137 C 1820.5 413.504 1816.17 425.846 1811.77 438.164 C 1790.28 440.991 1758.28 442.288 1735.53 444.09 L 1742.72 433.455 L 1746.43 427.911 C 1750.14 427.952 1755.19 428.39 1758.44 426.949 C 1755.78 425.525 1750.96 425.845 1747.77 425.804 C 1756.99 411.662 1767 395.628 1777.05 381.995 C 1779.56 378.582 1782.76 379.032 1787.22 378.811 L 1788.1 377.676 C 1785.1 377.095 1782.95 377.33 1781.51 375.412 C 1784.88 372.705 1839.38 368.511 1848.25 367.64 z"/>
<path transform="translate(0,0)" fill="rgb(67,67,66)" d="M 1634.22 365.843 C 1637.21 369.779 1638.52 370.07 1643.19 371.884 C 1635.57 377.648 1539.33 441.044 1536.65 441.099 C 1532.03 440.49 1530.93 440.366 1526.72 438.499 C 1524.45 435.776 1524.87 437.033 1524.86 433.811 C 1531.37 428.536 1550.43 417.564 1558.42 412.607 L 1634.22 365.843 z"/>
<path transform="translate(0,0)" fill="rgb(231,94,35)" d="M 1845.54 389.872 L 1896.92 389.866 L 1888.02 417.764 C 1871.43 416.459 1855.05 413.742 1838.24 412.735 L 1845.54 389.872 z"/>
<path transform="translate(0,0)" fill="rgb(224,96,43)" d="M 1665.05 360.43 C 1689.3 358.96 1715.09 359.709 1739.46 360.459 C 1735.43 363.219 1734.69 362.71 1732.99 366.637 C 1734.27 370.601 1734.64 369.987 1738.15 373.202 C 1735.55 374.488 1724.86 374.169 1721.25 374.195 C 1705.54 374.139 1648.68 374.712 1638.15 366.501 L 1638.44 365.097 C 1645.38 361.321 1657.02 360.974 1665.05 360.43 z"/>
<path transform="translate(0,0)" fill="rgb(231,94,35)" d="M 1651.75 363.489 C 1676.35 363.354 1705.46 361.863 1729.77 362.915 C 1731.16 364.862 1731.8 369.374 1731.02 371.665 L 1725.31 372.763 C 1718.01 370.814 1697.16 371.481 1688.2 371.267 C 1677.64 371 1667.1 370.159 1656.63 368.748 C 1653.05 368.298 1646.38 367.745 1643.33 366.291 C 1645.33 364.661 1649.11 364.084 1651.75 363.489 z"/>
<path transform="translate(0,0)" fill="rgb(203,106,69)" d="M 1752.75 361.48 C 1760.49 361.044 1778.87 362.41 1787.07 362.932 C 1801.8 363.868 1819.36 364.533 1833.85 366.402 L 1816.08 368.714 L 1808.99 369.364 C 1794.46 370.687 1745.53 376.722 1735.74 368.563 L 1735.64 366.814 C 1740.55 361.324 1744.99 362.166 1752.75 361.48 z"/>
<path transform="translate(0,0)" fill="rgb(224,96,43)" d="M 1749.56 363.357 C 1754.46 361.149 1797.4 365.515 1805.67 366.593 C 1800.14 367.888 1796.54 368.582 1790.9 369.296 C 1782.26 370.97 1743.85 373.684 1738.23 368.063 L 1738.73 366.296 C 1741.85 363.229 1745.2 363.57 1749.56 363.357 z"/>
<path transform="translate(0,0)" fill="rgb(224,96,43)" d="M 1826.12 403.18 L 1838.68 402.646 C 1835.82 412.111 1831.64 427.36 1828.08 436.079 L 1826.1 436.898 L 1813.91 438.034 C 1817.91 426.39 1821.98 414.772 1826.12 403.18 z"/>
<path transform="translate(0,0)" fill="rgb(203,106,69)" d="M 1350.4 610.225 C 1354.64 611.975 1356.59 617.382 1357.79 621.495 L 1356.59 623.297 C 1353.55 620.173 1349.07 616.447 1348.34 612.357 L 1350.4 610.225 z"/>
<path transform="translate(0,0)" fill="rgb(253,253,253)" d="M 1860.84 0 L 1868.61 0 C 1877.15 10.4207 1867.9 12.3846 1877.31 21.5607 L 1875.15 22.7494 L 1874.1 22.1572 C 1869.17 17.4001 1861.27 16.3299 1857.39 22.7878 L 1857.84 24.8929 C 1860.8 25.6393 1860.54 25.1718 1863.91 24.2252 L 1863.14 27.2951 C 1851 31.1127 1844.79 36.7162 1837.07 46.8542 L 1854.23 46.9552 L 1856.06 49.0056 L 1735.01 188.005 C 1716.17 209.613 1691.46 239.667 1672.02 259.945 L 1644.36 260.051 C 1641.04 263.34 1627.75 274.728 1625.61 277.542 C 1624.79 279.911 1529.77 381.327 1523.86 385.265 L 1521.23 385.561 L 1523.05 385.859 L 1521.94 387.922 L 1521.28 387.99 C 1512.85 386.495 1491.95 385.316 1482.6 384.558 L 1405.95 378.368 L 1113.03 357.05 L 1113.29 355.995 L 1115.12 355.056 C 1118.02 355.153 1120.92 355.17 1123.82 355.109 C 1148.13 354.608 1193.73 348.246 1219.28 345.445 C 1277.03 339.553 1334.74 333.199 1392.39 326.383 L 1497.43 315.078 C 1563.14 307.847 1597.01 306.356 1646.21 254.924 C 1658.81 238.392 1687.09 208.917 1702.03 191.971 C 1725.27 165.592 1748.81 139.487 1772.66 113.663 C 1782.76 102.622 1796.97 85.961 1807.39 75.8726 C 1812.7 69.305 1820.35 61.5162 1825.58 55.4619 C 1833.72 46.0303 1841.2 35.5641 1851.48 29.7128 C 1854.18 28.1719 1857.86 5.49563 1860.65 0.349731 L 1860.84 0 z"/>
<path transform="translate(0,0)" fill="rgb(67,67,66)" d="M 1835.4 49.3008 L 1852.43 49.2143 C 1814.58 94.2741 1773.44 140.194 1734.72 184.757 L 1694.01 231.621 C 1687.71 238.893 1677.53 251.437 1671.01 257.561 C 1665.91 257.68 1648.04 259.581 1646.21 254.924 C 1658.81 238.392 1687.09 208.917 1702.03 191.971 C 1725.27 165.592 1748.81 139.487 1772.66 113.663 C 1782.76 102.622 1796.97 85.961 1807.39 75.8726 L 1809.87 76.223 C 1814.87 72.2915 1830.4 54.6604 1835.4 49.3008 z"/>
<path transform="translate(0,0)" fill="rgb(42,41,41)" d="M 1860.84 0 L 1868.61 0 C 1877.15 10.4207 1867.9 12.3846 1877.31 21.5607 L 1875.15 22.7494 L 1874.1 22.1572 C 1869.17 17.4001 1861.27 16.3299 1857.39 22.7878 L 1857.84 24.8929 C 1860.8 25.6393 1860.54 25.1718 1863.91 24.2252 L 1863.14 27.2951 C 1851 31.1127 1844.79 36.7162 1837.07 46.8542 L 1854.23 46.9552 L 1856.06 49.0056 L 1735.01 188.005 C 1716.17 209.613 1691.46 239.667 1672.02 259.945 L 1644.36 260.051 C 1641.04 263.34 1627.75 274.728 1625.61 277.542 C 1584.07 308.327 1560.47 310.154 1511.28 315.591 L 1435.98 323.844 L 1144.9 356.271 C 1231.33 362.151 1317.72 368.696 1404.05 375.906 L 1480.94 382.133 C 1492.38 383.059 1510.24 383.953 1521.23 385.561 L 1523.05 385.859 L 1521.94 387.922 L 1521.28 387.99 C 1512.85 386.495 1491.95 385.316 1482.6 384.558 L 1405.95 378.368 L 1113.03 357.05 L 1113.29 355.995 L 1115.12 355.056 C 1118.02 355.153 1120.92 355.17 1123.82 355.109 C 1148.13 354.608 1193.73 348.246 1219.28 345.445 C 1277.03 339.553 1334.74 333.199 1392.39 326.383 L 1497.43 315.078 C 1563.14 307.847 1597.01 306.356 1646.21 254.924 C 1648.04 259.581 1665.91 257.68 1671.01 257.561 C 1677.53 251.437 1687.71 238.893 1694.01 231.621 L 1734.72 184.757 C 1773.44 140.194 1814.58 94.2741 1852.43 49.2143 L 1835.4 49.3008 C 1830.4 54.6604 1814.87 72.2915 1809.87 76.223 L 1807.39 75.8726 C 1812.7 69.305 1820.35 61.5162 1825.58 55.4619 C 1833.72 46.0303 1841.2 35.5641 1851.48 29.7128 C 1854.18 28.1719 1857.86 5.49563 1860.65 0.349731 L 1860.84 0 z"/>
<path transform="translate(0,0)" fill="rgb(12,12,9)" d="M 1879.18 108.489 L 1881.04 108.71 C 1886.88 108.819 1892.95 109.013 1898.76 108.95 L 1910.92 123.778 L 1906.1 137.993 L 1886.76 138.209 C 1885.52 136.087 1885.73 134.393 1885.82 132.051 C 1883.77 129.649 1883.37 128.912 1880.27 128.208 C 1870.97 130.966 1866.6 150.645 1863.67 159.618 C 1871.01 159.515 1891.87 158.665 1897.9 160.557 C 1900.68 166.297 1891.24 188.5 1889.55 195.195 C 1887.28 204.144 1878.33 216.956 1867.88 216.348 L 1861.38 220.422 C 1855.36 219.319 1821.29 219.58 1814.71 220.412 L 1803.28 205.267 C 1812.95 178.303 1822.44 151.278 1831.77 124.195 L 1853.8 108.922 C 1861.82 108.988 1871.33 109.316 1879.18 108.489 z"/>
<path transform="translate(0,0)" fill="rgb(231,94,35)" d="M 1856.08 126.471 C 1860.45 125.254 1869.22 125.89 1873.72 126.62 C 1865.61 148.385 1852.66 182.05 1843.27 202.957 L 1841.37 203.406 C 1834.22 202.17 1831.22 205.462 1825.85 199.159 C 1824.11 194.893 1844.01 141.909 1847.06 132.323 L 1856.08 126.471 z"/>
<path transform="translate(0,0)" fill="rgb(99,21,10)" d="M 1856.08 126.471 C 1860.45 125.254 1869.22 125.89 1873.72 126.62 C 1865.61 148.385 1852.66 182.05 1843.27 202.957 L 1841.37 203.406 C 1842.3 198.842 1849.22 182.39 1851.22 177.387 L 1871.24 127.021 C 1865.82 127.066 1861.48 127.212 1856.08 126.471 z"/>
<path transform="translate(0,0)" fill="rgb(224,96,43)" d="M 1873.72 126.62 C 1882.14 126 1893.79 125.391 1886.76 138.209 C 1885.52 136.087 1885.73 134.393 1885.82 132.051 C 1883.77 129.649 1883.37 128.912 1880.27 128.208 C 1870.97 130.966 1866.6 150.645 1863.67 159.618 C 1871.01 159.515 1891.87 158.665 1897.9 160.557 C 1900.68 166.297 1891.24 188.5 1889.55 195.195 C 1887.28 204.144 1878.33 216.956 1867.88 216.348 C 1869.24 214.567 1880.45 207.27 1883.05 205.503 C 1886.26 193.513 1893.51 174.336 1897.71 162.037 L 1865.32 161.989 L 1859.31 178.998 L 1873.74 179.191 L 1867.55 196.619 L 1858.74 202.922 L 1843.27 202.957 C 1852.66 182.05 1865.61 148.385 1873.72 126.62 z"/>
<path transform="translate(0,0)" fill="rgb(231,94,35)" d="M 1855.77 178.552 C 1861.27 182.911 1862.8 179.335 1868.84 183.986 C 1871.43 189.918 1864 195.953 1859.49 199.265 C 1856.03 200.333 1855.29 200.294 1851.64 200.282 C 1844.5 196.667 1852.93 184.411 1855.77 178.552 z"/>
<path transform="translate(0,0)" fill="rgb(224,96,43)" d="M 1613.75 375.621 C 1623.53 355.373 1656.22 355.891 1674.54 354.684 C 1709.68 352.371 1743.74 354.765 1778.74 357.697 C 1777.09 359.531 1776.68 360.231 1773.87 360.047 C 1732.59 357.34 1690.91 355.441 1649.65 359.411 C 1633.01 361.011 1627.15 369.053 1613.75 375.621 z"/>
<path transform="translate(0,0)" fill="rgb(99,21,10)" d="M 1814.71 220.412 C 1821.29 219.58 1855.36 219.319 1861.38 220.422 C 1856.15 221.4 1841.63 220.87 1835.67 220.782 C 1828.65 238.619 1820.6 260.338 1812.61 277.371 C 1811.5 272.598 1829.99 229.249 1833.28 220.905 C 1827.48 220.99 1820.3 221.323 1814.71 220.412 z"/>
<path transform="translate(0,0)" fill="rgb(224,96,43)" d="M 1902.99 57.4868 C 1907.88 57.53 1912.87 58.2641 1914.15 63.4662 C 1911.84 70.1922 1905.53 70.0316 1899.55 70.5478 C 1897.78 75.2563 1894.53 86.1469 1889.73 88.0872 L 1897.71 67.0576 C 1902.11 67.0082 1908.35 67.7103 1911.02 63.9575 C 1909.29 60.1469 1907.03 59.6815 1902.99 57.4868 z"/>
<path transform="translate(0,0)" fill="rgb(12,12,9)" d="M 1701.52 280.903 C 1708.75 280.569 1718.05 280.852 1725.44 280.863 L 1736.72 291.848 L 1736.62 337.625 C 1733.12 341.257 1729.25 344.968 1725.65 348.541 C 1721.2 349.126 1706.98 348.786 1701.81 348.785 L 1690.86 338.32 L 1690.93 291.661 C 1693.74 288.305 1698.31 284.068 1701.52 280.903 z"/>
<path transform="translate(0,0)" fill="rgb(231,94,35)" d="M 1706.5 292.041 C 1709.47 291.978 1720.62 291.273 1721.87 293.362 C 1727.85 303.362 1725.7 322.941 1723.69 334.367 C 1723.69 334.369 1720.66 337.481 1720.42 337.729 C 1711.2 338.011 1708.55 339.615 1702.11 332.674 C 1702.33 321.074 1698.86 299.868 1706.5 292.041 z"/>
<path transform="translate(0,0)" fill="rgb(12,12,9)" d="M 1758.36 280.89 L 1782.07 280.828 C 1785.67 284.222 1789.52 288.243 1793.06 291.785 C 1793.25 307.081 1793.1 322.694 1793.12 338.019 L 1782.76 348.969 L 1758.63 348.755 L 1749.57 339.79 L 1747.96 337.597 C 1747.72 333.648 1747.21 334.334 1748.76 331.142 C 1757.68 326.906 1783.28 356.053 1781.41 320.64 L 1758.49 320.589 L 1747.76 310.313 L 1747.76 291.567 L 1758.36 280.89 z"/>
<path transform="translate(0,0)" fill="rgb(231,94,35)" d="M 1763.15 292.053 C 1767.43 291.879 1774.78 291.1 1778.48 293.286 C 1782.47 295.648 1782.6 305.811 1779.99 309.151 C 1773.68 309.362 1765.28 310.329 1760.19 305.974 C 1755.36 301.841 1759.76 295.305 1763.15 292.053 z"/>
<path transform="translate(0,0)" fill="rgb(12,12,9)" d="M 1888.92 280.916 L 1901.16 280.94 C 1901.42 290.939 1900.33 311.82 1902.11 320.18 L 1905.98 322.367 C 1906.97 324.162 1908.46 329.078 1906.6 330.324 C 1899.52 335.076 1900.96 340.787 1901.31 348.433 C 1897.82 348.745 1893.73 349.615 1890.98 347.704 C 1889.06 344.693 1889.68 339.519 1889.75 335.751 C 1889.74 333.95 1889.79 334.559 1888.72 332.84 C 1884.2 331.573 1866.44 332.078 1860.4 332.113 L 1860.35 320.417 L 1888.92 280.916 z"/>
<path transform="translate(0,0)" fill="rgb(12,12,9)" d="M 1805.07 281.005 C 1817.52 280.453 1833.13 280.88 1845.83 280.87 C 1847.39 284.577 1849.56 288.849 1851.31 292.539 C 1842.74 309.277 1828.77 332.596 1818.83 348.693 L 1806.31 348.685 C 1813.93 333.062 1829.51 307.952 1838.67 292.162 C 1831.95 292.11 1811.21 292.541 1805.91 291.428 C 1804.55 288.907 1805.02 284.069 1805.07 281.005 z"/>
<path transform="translate(0,0)" fill="rgb(57,20,15)" d="M 1926.65 70.3272 C 1927.12 66.5059 1929.69 59.6636 1932.64 57.1277 C 1936.66 55.272 1940.37 58.739 1943.89 58.118 C 1951.17 56.8322 1949.82 55.7085 1957.47 57.027 C 1965.16 64.3957 1966.09 82.61 1951.03 81.908 C 1950.01 81.8579 1948.99 81.7933 1947.97 81.714 C 1944.89 80.4279 1945.95 81.2859 1944.06 78.2888 L 1942.84 78.1917 L 1939.05 81.7673 C 1937.91 81.82 1937.63 81.5135 1936.51 81.0118 L 1936.12 77.4784 C 1933.14 74.863 1931.87 76.6854 1926.4 75.3881 C 1925.23 72.8091 1925.52 73.6842 1926.65 70.3272 z"/>
<path transform="translate(0,0)" fill="rgb(57,20,15)" d="M 1947.97 81.714 C 1945.56 76.1797 1943.42 64.8235 1947.72 60.0095 C 1950.18 57.2542 1954.07 57.3246 1957.47 57.027 C 1965.16 64.3957 1966.09 82.61 1951.03 81.908 C 1950.01 81.8579 1948.99 81.7933 1947.97 81.714 z"/>
<path transform="translate(0,0)" fill="rgb(224,96,43)" d="M 1950.07 61.3339 C 1954.78 61.781 1954.14 60.989 1957.15 63.6106 C 1958.92 67.5068 1957.82 73.5684 1957.42 78.0469 C 1953.16 77.7148 1953.35 78.4174 1950.59 76.1574 C 1948.67 72.4812 1949.75 65.7653 1950.07 61.3339 z"/>
<path transform="translate(0,0)" fill="rgb(203,106,69)" d="M 1926.65 70.3272 C 1927.12 66.5059 1929.69 59.6636 1932.64 57.1277 C 1936.66 55.272 1940.37 58.739 1943.89 58.118 C 1951.17 56.8322 1949.82 55.7085 1957.47 57.027 C 1954.07 57.3246 1950.18 57.2542 1947.72 60.0095 C 1943.42 64.8235 1945.56 76.1797 1947.97 81.714 C 1944.89 80.4279 1945.95 81.2859 1944.06 78.2888 L 1942.84 78.1917 L 1939.05 81.7673 C 1939.69 78.9233 1941.36 77.6397 1941.07 74.0412 C 1940.52 67.3733 1940.07 60.6192 1939.66 53.9535 C 1936.02 57.7318 1930.17 65.8457 1926.65 70.3272 z"/>
<path transform="translate(0,0)" fill="rgb(253,253,253)" d="M 1738.75 255.41 C 1758.08 254.296 1781.73 254.07 1800.3 258.927 C 1793.99 260.364 1789.68 261.025 1783.25 261.814 C 1761.42 263.143 1739.17 263.664 1717.75 258.806 C 1725.85 257.001 1730.49 256.225 1738.75 255.41 z"/>
<path transform="translate(0,0)" fill="rgb(57,20,15)" d="M 1975.33 57.5688 L 1977.29 57.88 C 1980.49 61.0135 1981.23 77.1284 1977.71 81.2895 L 1975.92 81.2658 L 1973.86 78.2097 C 1974.02 74.3188 1969.41 77.7761 1966.08 74.7116 C 1965.42 68.4114 1971.19 62.846 1975.33 57.5688 z"/>
<path transform="translate(0,0)" fill="rgb(99,21,10)" d="M 1802.87 296.638 C 1803.25 297.004 1803.71 297.957 1804 298.473 C 1802.64 303.938 1798.53 312.722 1796.17 318.187 C 1793.63 315.522 1801.25 300.376 1802.87 296.638 z"/>
<path transform="translate(0,0)" fill="rgb(53,52,50)" d="M 171.776 465.429 C 172.073 457.414 174.628 399.288 176.994 396.99 C 180.817 398.264 184.417 398.824 188.429 397.79 L 189.214 398.548 C 191.978 433.041 194.36 462.291 193.659 497.004 L 195.915 497.017 L 196.28 498.985 C 194.789 512.978 193.466 528.055 191.466 541.878 C 195.833 540.135 202.231 536.795 205.96 535.693 C 282.934 512.935 366.235 507.144 446.158 510.514 C 454.453 510.864 482.894 511.529 489.49 513.638 L 492.24 513.664 L 492.688 512.604 C 510.649 510.032 536.33 508.387 554.773 507.053 C 587.722 504.481 620.736 502.824 653.776 502.084 C 655.299 500.614 657.859 496.159 659.108 494.135 C 693.09 479.661 782.892 488.96 820.415 493.624 C 828.11 494.58 837.465 497.861 844.352 498.887 C 853.652 500.272 860.137 499.288 869.987 501.733 L 870.122 503.425 C 863.521 503.724 853.749 503.855 847.567 505.248 C 848.659 509.312 872.588 508.645 878.097 509.183 C 876.755 510.469 865.674 510.529 862.965 510.473 C 859.133 510.383 855.303 510.255 851.474 510.09 L 864.175 522.283 C 869.363 523.04 874.527 523.651 878.394 527.546 L 878.507 528.688 C 876.462 529.603 875.486 529.956 873.329 530.563 C 898.223 556.763 932.804 584.318 956.633 610.878 L 957.251 623.842 C 974.742 624.595 1056.83 627.518 1064.95 636.532 C 1065.74 637.41 1065.51 638.105 1065.51 639.231 C 1054.22 653.761 979.131 661.955 958.875 664.246 L 960.653 670.103 C 1030.92 668.91 1101.85 658.467 1170.47 643.303 C 1203.76 635.945 1236.66 626.129 1269.69 618.543 C 1266.68 621.97 1262.05 621.615 1257.84 625.055 C 1254.86 624.507 1276.45 624.316 1275.23 624.383 C 1246.45 629.396 1221.12 633.406 1192.74 640.562 L 1196.68 645.092 C 1199 646.235 1199.21 646.654 1200.69 648.807 L 1200.81 651.422 C 1193.89 656.742 1187.02 647.712 1182.55 642.978 C 1136.73 653.525 1090.37 661.528 1043.67 666.95 C 1036.94 667.703 982.431 671.421 980.601 672.374 L 976.123 672.137 C 972.999 671.59 963.499 671.891 959.798 671.933 L 954.488 673.131 C 952.652 673.091 951.917 673.233 950.094 673.52 L 951.471 675.961 C 945.701 678.76 933.647 672.525 926.097 672.801 C 917.442 673.118 908.85 673.629 900.208 673.704 L 823.351 674.266 C 809.344 674.393 787.997 673.498 775.159 674.354 C 733.639 677.123 692.711 679.761 651.061 681.476 C 621.563 682.691 591.683 682.341 562.34 683.915 C 558.735 684.109 537.714 692.331 530.105 694.195 C 487.999 704.514 446.001 710.358 402.524 707.469 C 392.331 706.791 365.424 704.872 357.706 697.34 C 355.201 694.896 356.967 687.651 357.622 684.076 C 322.059 681.177 284.595 677.636 249.649 670.281 C 248.51 669.818 246.699 668.731 245.558 668.099 C 243.629 663.18 244.007 655.196 243.968 649.685 C 228.573 648.469 209.693 646.261 194.536 643.389 C 198.066 661.986 195.99 781.777 183.488 790.805 C 181.523 790.714 180.795 791.001 179.426 789.461 C 167.896 776.493 169.231 663.134 170.437 640.1 C 132.268 633.433 97.4064 624.518 62.0266 608.488 C 50.4993 603.266 37.7858 596.678 33.2107 583.951 C 31.1283 578.158 31.5044 572.268 34.1464 566.729 C 47.3408 539.07 140.066 505.677 169.978 494.663 C 171.993 491.91 169.803 473.425 171.776 465.429 z"/>
<path transform="translate(0,0)" fill="rgb(57,20,15)" d="M 171.776 465.429 C 172.073 457.414 174.628 399.288 176.994 396.99 C 180.817 398.264 184.417 398.824 188.429 397.79 L 189.214 398.548 C 191.978 433.041 194.36 462.291 193.659 497.004 L 195.915 497.017 L 196.28 498.985 C 194.789 512.978 193.466 528.055 191.466 541.878 C 195.833 540.135 202.231 536.795 205.96 535.693 C 282.934 512.935 366.235 507.144 446.158 510.514 C 454.453 510.864 482.894 511.529 489.49 513.638 L 488.894 515.184 C 474.805 515.276 452.787 513.223 437.748 512.7 C 410.511 511.793 383.248 511.958 356.023 513.193 L 354.086 513.761 C 353.86 527.232 353.844 540.706 354.039 554.177 L 355.783 554.89 C 355.616 570.946 355.619 587.004 355.794 603.061 L 353.892 603.64 C 344.262 602.554 317.314 603.2 306.753 603.085 C 269.108 602.674 237.114 602.581 199.804 597.153 L 199.721 620.549 L 197.582 618.476 L 194.943 618.831 L 194.885 619.727 C 202.145 626.654 218.513 630.054 228.488 632.933 C 233.229 634.012 240.04 635.729 244.732 636.459 C 244.579 639.791 244.293 643.022 244.88 646.308 L 245.507 639.244 L 246.11 639.372 C 246.567 645.011 247.183 663.049 245.558 668.099 C 243.629 663.18 244.007 655.196 243.968 649.685 C 228.573 648.469 209.693 646.261 194.536 643.389 C 198.066 661.986 195.99 781.777 183.488 790.805 C 181.523 790.714 180.795 791.001 179.426 789.461 C 167.896 776.493 169.231 663.134 170.437 640.1 C 132.268 633.433 97.4064 624.518 62.0266 608.488 C 50.4993 603.266 37.7858 596.678 33.2107 583.951 C 31.1283 578.158 31.5044 572.268 34.1464 566.729 C 47.3408 539.07 140.066 505.677 169.978 494.663 C 171.993 491.91 169.803 473.425 171.776 465.429 z"/>
<path transform="translate(0,0)" fill="rgb(231,94,35)" d="M 199.455 540.705 C 219.638 528.956 328.936 512.985 354.086 513.761 C 353.86 527.232 353.844 540.706 354.039 554.177 L 355.783 554.89 C 355.616 570.946 355.619 587.004 355.794 603.061 L 353.892 603.64 C 344.262 602.554 317.314 603.2 306.753 603.085 C 269.108 602.674 237.114 602.581 199.804 597.153 L 199.552 585.209 L 199.588 581.589 C 200.374 569.784 198.849 554.001 199.455 540.705 z"/>
<path transform="translate(0,0)" fill="rgb(253,253,253)" d="M 199.455 540.705 C 219.638 528.956 328.936 512.985 354.086 513.761 C 353.86 527.232 353.844 540.706 354.039 554.177 C 351.128 554.837 347.758 554.756 344.736 554.93 C 296.594 557.694 246.805 560.328 199.768 571.412 C 199.733 561.175 199.629 550.94 199.455 540.705 z"/>
<path transform="translate(0,0)" fill="rgb(57,20,15)" d="M 254.021 565.174 C 263.768 564.32 269.577 564.627 279.239 565.115 C 291.73 574.679 295.452 596.437 276.33 601.095 C 272.345 602.066 259.869 601.193 255.132 601.052 C 247.978 596.932 244.553 594.865 242.202 586.339 C 242.007 585.627 241.823 584.911 241.651 584.193 L 241.887 582.869 C 242.706 576.428 244.33 572.433 249.676 568.293 C 251.092 567.209 252.541 566.169 254.021 565.174 z"/>
<path transform="translate(0,0)" fill="rgb(143,125,95)" d="M 272.945 597.002 C 270.499 601.092 255.287 598.915 251.406 596.057 C 239.342 587.174 243.425 568.29 258.906 567.16 C 263.307 566.839 268.481 565.937 271.922 568.721 C 276.559 569.672 279.968 564.878 284.061 571.79 C 289.085 580.275 288.698 601.983 273.848 596.705 L 272.945 597.002 z"/>
<path transform="translate(0,0)" fill="rgb(53,52,50)" d="M 271.922 568.721 C 276.559 569.672 279.968 564.878 284.061 571.79 C 289.085 580.275 288.698 601.983 273.848 596.705 L 272.945 597.002 C 265.058 590.385 264.841 576.072 271.922 568.721 z"/>
<path transform="translate(0,0)" fill="rgb(148,39,15)" d="M 199.588 581.589 C 213.696 581.687 227.799 582.114 241.887 582.869 L 241.651 584.193 C 236.201 585.286 239.725 587.751 237.087 591.433 C 224.874 594.792 227.729 586.289 225.383 584.9 C 220.5 582.01 205.516 584.839 199.552 585.209 L 199.588 581.589 z"/>
<path transform="translate(0,0)" fill="rgb(148,39,15)" d="M 354.039 554.177 L 355.783 554.89 C 355.616 570.946 355.619 587.004 355.794 603.061 L 353.892 603.64 L 354.039 554.177 z"/>
<path transform="translate(0,0)" fill="rgb(182,61,39)" d="M 347.374 579.39 C 351.175 580.918 351.031 581.363 352.501 584.412 C 352.53 587.983 352.287 588.39 350.307 591.389 L 346.464 590.963 C 343.777 588.847 344.539 589.992 343.652 586.605 C 344.28 582.883 344.876 582.303 347.374 579.39 z"/>
<path transform="translate(0,0)" fill="rgb(148,39,15)" d="M 311.889 568.384 C 314.44 567.987 314.913 567.883 317.443 568.328 C 322.534 573.194 320.566 582.177 319.123 588.12 C 316.827 590.635 317.554 589.891 313.546 590.532 L 313.3 588.925 C 318.451 586.624 319.126 576.927 317.271 572.167 C 316.069 569.083 315.041 571.246 311.889 568.384 z"/>
<path transform="translate(0,0)" fill="rgb(178,182,183)" d="M 194.943 618.831 C 187.147 614.794 192.821 612.196 187.863 607.377 C 173.461 602.691 178.612 614.803 165.914 609.679 C 157.769 606.392 118.001 592.268 122.357 581.82 C 127.166 570.287 155.545 558.691 167.282 553.443 C 177.78 548.75 175.397 556.906 189.005 552.325 C 191.502 548.243 188.999 545.152 194.922 543.205 L 196.472 544.059 C 197.917 551.272 196.802 557.064 197.2 563.839 C 198.074 578.726 195.908 604.766 197.582 618.476 L 194.943 618.831 z"/>
<path transform="translate(0,0)" fill="rgb(140,141,140)" d="M 171.776 465.429 C 172.073 457.414 174.628 399.288 176.994 396.99 C 180.817 398.264 184.417 398.824 188.429 397.79 L 189.214 398.548 C 191.978 433.041 194.36 462.291 193.659 497.004 C 193.091 508.183 191.335 537.725 186.562 549.425 C 185.496 552.04 178.638 552.074 178.167 550.627 C 171.757 530.913 171.749 484.112 171.776 465.429 z"/>
<path transform="translate(0,0)" fill="rgb(231,94,35)" d="M 194.885 619.727 C 202.145 626.654 218.513 630.054 228.488 632.933 C 225.409 634.769 213.87 640.97 213.068 643.67 C 206.961 642.742 200.45 642.033 194.291 641.258 C 193.438 636.555 190.906 625.065 192.148 620.787 L 194.885 619.727 z"/>
<path transform="translate(0,0)" fill="rgb(253,253,253)" d="M 228.488 632.933 C 233.229 634.012 240.04 635.729 244.732 636.459 C 244.579 639.791 244.293 643.022 244.88 646.308 L 243.427 647.53 C 233.868 646.979 222.665 645.062 213.068 643.67 C 213.87 640.97 225.409 634.769 228.488 632.933 z"/>
<path transform="translate(0,0)" fill="rgb(231,94,35)" d="M 115.684 517.935 C 133.514 510.599 151.538 503.742 169.735 497.373 C 170.345 514.526 172.4 531.193 174.573 548.206 C 164.068 552.136 155.242 556.302 145.228 561.072 C 102.741 581.31 119.982 593.674 153.65 607.414 C 160.325 610.19 167.119 612.67 174.012 614.847 L 171.444 637.969 C 160.775 636.055 146.207 633.721 135.796 630.895 C 128.75 631.001 112.615 624.247 106.826 623.272 C 105.496 622.886 104.173 622.48 102.855 622.057 C 91.3758 618.369 80.5898 613.792 69.5301 609.08 C -12.1649 574.274 66.6734 541.424 106.041 522.451 C 107.571 522.448 112.891 519.102 115.684 517.935 z"/>
<path transform="translate(0,0)" fill="rgb(231,94,35)" d="M 106.041 522.451 C 108.081 527.312 108.568 618.409 106.826 623.272 C 105.496 622.886 104.173 622.48 102.855 622.057 C 91.3758 618.369 80.5898 613.792 69.5301 609.08 C -12.1649 574.274 66.6734 541.424 106.041 522.451 z"/>
<path transform="translate(0,0)" fill="rgb(182,61,39)" d="M 106.041 522.451 C 107.571 522.448 112.891 519.102 115.684 517.935 C 114.542 519.375 111.01 523.169 111.023 524.927 C 111.028 525.514 111.246 526.033 111.421 526.582 C 113.454 532.956 111.904 590.725 112.003 603.038 C 112.041 607.769 111.236 614.938 112.5 619.365 C 112.975 621.028 114.648 621.828 116.1 622.592 C 121.067 625.209 132.318 626.688 135.715 630.493 L 135.796 630.895 C 128.75 631.001 112.615 624.247 106.826 623.272 C 108.568 618.409 108.081 527.312 106.041 522.451 z"/>
<path transform="translate(0,0)" fill="rgb(140,141,140)" d="M 175.654 761.133 C 171.919 718.84 169.329 676.417 174.085 634.205 C 174.844 627.468 175.214 616.145 177.653 610.156 C 180.672 607.771 185.345 608.259 187.795 611.213 C 188.355 611.887 188.779 616.564 188.948 617.627 C 196.566 665.574 193.984 712.973 189.18 761.056 L 188.12 770.18 L 176.79 770.343 L 175.654 761.133 z"/>
<path transform="translate(0,0)" fill="rgb(253,253,253)" d="M 175.654 761.133 C 180.211 761.188 184.622 761.279 189.18 761.056 L 188.12 770.18 L 176.79 770.343 L 175.654 761.133 z"/>
<path transform="translate(0,0)" fill="rgb(140,141,140)" d="M 176.79 770.343 L 188.12 770.18 L 186.671 779.903 C 185.739 782.782 184.958 786.597 182.583 788.222 C 179.641 786.835 179.218 783.832 178.348 780.719 C 177.479 777.117 177.193 773.998 176.79 770.343 z"/>
<path transform="translate(0,0)" fill="rgb(253,253,253)" d="M 178.348 780.719 L 179.187 779.802 C 182.559 778.876 183.24 779.143 186.671 779.903 C 185.739 782.782 184.958 786.597 182.583 788.222 C 179.641 786.835 179.218 783.832 178.348 780.719 z"/>
<path transform="translate(0,0)" fill="rgb(178,182,183)" d="M 674.357 507.061 C 705.978 514.91 747.875 509.515 778.604 508.628 C 782.442 508.517 816.489 545.206 821.519 552.321 L 823.519 551.468 L 827.731 555.974 L 827.062 557.869 C 844.192 574.784 863.122 596.536 879.794 614.54 C 787.785 619.365 693.085 625.979 601.826 611.131 C 589.571 609.138 558.671 604.168 554.806 591.36 C 554.932 577.093 596.81 567.805 608.86 563.61 L 610.206 564.412 C 609.599 565.872 609.009 567.312 608.353 568.751 C 606.922 577.368 618.401 582.711 624.837 581.925 C 625.499 581.914 626.153 581.877 626.8 581.719 C 630.104 580.911 668.414 516.581 674.357 507.061 z"/>
<path transform="translate(0,0)" fill="rgb(107,107,106)" d="M 823.519 551.468 L 827.731 555.974 L 827.062 557.869 C 824.47 556.36 823.375 554.664 821.519 552.321 L 823.519 551.468 z"/>
<path transform="translate(0,0)" fill="rgb(182,61,39)" d="M 356.023 513.193 C 383.248 511.958 410.511 511.793 437.748 512.7 C 452.787 513.223 474.805 515.276 488.894 515.184 C 489.852 515.466 492.835 516.121 492.988 516.702 C 495.327 525.572 494.14 543.468 494.199 553.074 L 494.658 552.967 C 495.521 553.564 496.237 554.317 497.074 554.3 C 519.013 554.666 549.207 557.707 569.471 557.178 C 570.798 555.372 570.393 555.981 570.645 553.476 L 571.767 553.562 L 573.478 557.13 L 575.514 557.89 C 577.187 556.411 577.107 555.278 577.494 553.027 C 578.021 554.524 578.659 557.454 579.73 557.656 C 589.166 559.428 604.084 559.572 613.481 560.405 C 600.788 561.74 563.044 574.692 554.881 584.383 C 542.177 599.466 573.576 607.26 582.239 609.498 C 606.019 614.142 624.876 616.959 649.037 619.973 C 633.801 621.907 613.818 622.328 598.304 622.97 L 566.071 624.035 C 561.229 623.915 547.57 623.133 543.977 624.943 L 542.814 625.06 C 537.772 624.533 507.916 624.719 502.262 625.396 C 499.896 624.571 497.384 624.722 494.84 624.671 L 493.876 624.7 C 490.023 623.316 486.207 621.833 482.431 620.251 C 479.241 619.891 477.022 619.483 473.877 618.813 C 471.295 616.253 448.064 610.357 443.392 609.436 C 441.92 611.652 436.114 617.428 433.962 619.668 L 416.732 619.617 C 414.94 617.966 413.183 616.276 411.463 614.55 C 407.807 610.851 407.525 609.763 407.563 604.412 C 404.369 604.288 402.58 603.999 399.625 605.24 C 398.561 606.245 396.446 606.801 394.993 607.311 C 392.132 611.9 396.434 615.544 392.121 619.918 C 388.401 620.625 389.835 620.781 386.429 619.02 C 383.969 614.545 384.852 612.462 384.882 606.88 C 379.916 606.942 367.153 607.519 362.935 606.247 L 361.902 603.994 L 356.091 603.643 L 355.794 603.061 C 355.619 587.004 355.616 570.946 355.783 554.89 L 354.039 554.177 C 353.844 540.706 353.86 527.232 354.086 513.761 L 356.023 513.193 z"/>
<path transform="translate(0,0)" fill="rgb(231,94,35)" d="M 357 556.51 C 375.256 556.605 483.511 550.752 491.84 559.477 C 492.856 565.026 492.921 590.329 492.049 596.088 C 489.63 598.076 487.591 597.593 484 597.875 C 487.339 599.184 486.461 598.315 488.247 601.149 C 487.192 605.812 486.053 604.882 483.187 608.247 C 482.209 609.395 482.404 618.328 482.431 620.251 C 479.241 619.891 477.022 619.483 473.877 618.813 C 471.295 616.253 448.064 610.357 443.392 609.436 C 441.92 611.652 436.114 617.428 433.962 619.668 L 416.732 619.617 C 414.94 617.966 413.183 616.276 411.463 614.55 C 407.807 610.851 407.525 609.763 407.563 604.412 C 404.369 604.288 402.58 603.999 399.625 605.24 C 398.561 606.245 396.446 606.801 394.993 607.311 C 392.132 611.9 396.434 615.544 392.121 619.918 C 388.401 620.625 389.835 620.781 386.429 619.02 C 383.969 614.545 384.852 612.462 384.882 606.88 C 379.916 606.942 367.153 607.519 362.935 606.247 L 361.902 603.994 L 361.655 599.912 L 359.065 601.209 L 357.751 600.255 C 356.107 593.688 356.905 565.15 357 556.51 z"/>
<path transform="translate(0,0)" fill="rgb(12,12,9)" d="M 416.266 564.472 L 433.658 564.437 C 435.859 566.579 436.758 567.65 439.566 568.952 C 446.428 576.968 441.187 597.255 443.392 609.436 C 441.92 611.652 436.114 617.428 433.962 619.668 L 416.732 619.617 C 414.94 617.966 413.183 616.276 411.463 614.55 C 407.807 610.851 407.525 609.763 407.563 604.412 C 408.262 599.462 407.898 579.096 407.899 572.988 L 416.266 564.472 z"/>
<path transform="translate(0,0)" fill="rgb(231,94,35)" d="M 416.552 605.463 C 417 596.877 415.126 579.438 419.434 574.426 C 424.486 572.203 429.734 572.529 433.308 577.097 C 434.449 581.644 434.22 603.706 433.203 607.812 C 427.7 612.376 420.805 611.049 416.552 605.463 z"/>
<path transform="translate(0,0)" fill="rgb(238,232,226)" d="M 416.552 605.463 C 421.126 605.2 429.253 605.376 433.203 607.812 C 427.7 612.376 420.805 611.049 416.552 605.463 z"/>
<path transform="translate(0,0)" fill="rgb(12,12,9)" d="M 472.881 564.477 L 482.754 564.513 C 482.669 570.236 481.533 594.164 484 597.875 C 487.339 599.184 486.461 598.315 488.247 601.149 C 487.192 605.812 486.053 604.882 483.187 608.247 C 482.209 609.395 482.404 618.328 482.431 620.251 C 479.241 619.891 477.022 619.483 473.877 618.813 C 471.295 616.253 448.064 610.357 443.392 609.436 C 441.187 597.255 446.428 576.968 439.566 568.952 C 455.641 574.571 440.748 591.048 448.628 594.138 L 453.785 592.239 C 459.973 584.644 467.285 572.889 472.881 564.477 z"/>
<path transform="translate(0,0)" fill="rgb(224,96,43)" d="M 439.566 568.952 C 455.641 574.571 440.748 591.048 448.628 594.138 L 453.785 592.239 C 441.669 610.895 462.37 607.125 473.859 607.036 L 473.877 618.813 C 471.295 616.253 448.064 610.357 443.392 609.436 C 441.187 597.255 446.428 576.968 439.566 568.952 z"/>
<path transform="translate(0,0)" fill="rgb(12,12,9)" d="M 384.533 564.709 L 393.994 564.56 C 393.993 573.19 393.901 582.04 393.992 590.689 C 394.094 600.491 398.191 595.459 399.625 605.24 C 398.561 606.245 396.446 606.801 394.993 607.311 C 392.132 611.9 396.434 615.544 392.121 619.918 C 388.401 620.625 389.835 620.781 386.429 619.02 C 383.969 614.545 384.852 612.462 384.882 606.88 C 379.916 606.942 367.153 607.519 362.935 606.247 L 361.902 603.994 L 361.655 599.912 C 363.375 593.067 379.834 571.199 384.533 564.709 z"/>
<path transform="translate(0,0)" fill="rgb(253,253,253)" d="M 356.023 513.193 C 383.248 511.958 410.511 511.793 437.748 512.7 C 452.787 513.223 474.805 515.276 488.894 515.184 C 489.852 515.466 492.835 516.121 492.988 516.702 C 495.327 525.572 494.14 543.468 494.199 553.074 C 489.984 554.638 463.25 553.363 456.385 553.254 C 435.242 552.864 414.094 552.93 392.954 553.45 C 383.057 553.682 365.371 554.736 356.041 554.306 L 355.783 554.89 L 354.039 554.177 C 353.844 540.706 353.86 527.232 354.086 513.761 L 356.023 513.193 z"/>
<path transform="translate(0,0)" fill="rgb(107,107,106)" d="M 354.086 513.761 L 356.023 513.193 C 355.983 526.685 355.724 540.873 356.041 554.306 L 355.783 554.89 L 354.039 554.177 C 353.844 540.706 353.86 527.232 354.086 513.761 z"/>
<path transform="translate(0,0)" fill="rgb(231,94,35)" d="M 573.478 557.13 L 575.514 557.89 C 577.187 556.411 577.107 555.278 577.494 553.027 C 578.021 554.524 578.659 557.454 579.73 557.656 C 589.166 559.428 604.084 559.572 613.481 560.405 C 600.788 561.74 563.044 574.692 554.881 584.383 C 542.177 599.466 573.576 607.26 582.239 609.498 C 586.022 612.126 588.521 614.284 588.649 619.016 C 584.748 621.64 551.228 622.4 544.819 622.49 C 545.23 585.295 552.452 578.199 507.25 580.96 C 505.844 581.045 501.131 583.523 499.778 584.247 L 498.786 583.642 C 496.776 578.703 495.443 561.009 498.779 558.545 C 502.549 555.761 529.843 558.414 535.49 558.624 C 547.629 559.074 560.119 558.491 571.427 560.039 L 571.917 560.11 L 573.478 557.13 z"/>
<path transform="translate(0,0)" fill="rgb(231,94,35)" d="M 508.954 586 C 516.118 585.998 531.648 585.263 537.699 586.65 C 543.397 590.751 543.139 618.019 540.254 623.182 L 538.25 623.49 C 532.17 623.496 509.62 624.476 505.976 621.398 C 504.671 612.946 505.469 598.546 505.099 589.13 C 506.499 586.437 505.599 587.332 508.954 586 z"/>
<path transform="translate(0,0)" fill="rgb(253,253,253)" d="M 199.804 597.153 C 237.114 602.581 269.108 602.674 306.753 603.085 C 317.314 603.2 344.262 602.554 353.892 603.64 L 355.794 603.061 L 356.091 603.643 C 355.776 629.492 356.229 655.455 355.89 681.19 L 354.102 681.297 C 318.7 678.507 290.843 675.834 255.626 669.389 C 252.546 668.473 252.526 668.494 249.649 670.281 C 248.51 669.818 246.699 668.731 245.558 668.099 C 247.183 663.049 246.567 645.011 246.11 639.372 L 245.507 639.244 L 244.88 646.308 C 244.293 643.022 244.579 639.791 244.732 636.459 C 240.04 635.729 233.229 634.012 228.488 632.933 C 218.513 630.054 202.145 626.654 194.885 619.727 L 194.943 618.831 L 197.582 618.476 L 199.721 620.549 L 199.804 597.153 z"/>
<path transform="translate(0,0)" fill="rgb(67,67,66)" d="M 244.182 634.269 C 244.209 629.362 243.512 621.16 250.191 620.762 C 252.911 622.863 254.701 625.943 255.181 629.345 C 255.563 631.957 255.055 639.522 254.892 642.458 C 254.939 650.591 255.11 659.032 254.976 667.137 L 255.626 669.389 C 252.546 668.473 252.526 668.494 249.649 670.281 C 248.51 669.818 246.699 668.731 245.558 668.099 C 247.183 663.049 246.567 645.011 246.11 639.372 L 245.507 639.244 L 244.88 646.308 C 244.293 643.022 244.579 639.791 244.732 636.459 L 244.182 634.269 z"/>
<path transform="translate(0,0)" fill="rgb(12,12,9)" d="M 254.976 667.137 C 250.983 661.655 253.731 648.754 254.892 642.458 C 254.939 650.591 255.11 659.032 254.976 667.137 z"/>
<path transform="translate(0,0)" fill="rgb(107,107,106)" d="M 355.794 603.061 L 356.091 603.643 C 355.776 629.492 356.229 655.455 355.89 681.19 L 354.102 681.297 C 353.073 657.636 353.906 627.779 353.892 603.64 L 355.794 603.061 z"/>
<path transform="translate(0,0)" fill="rgb(42,41,41)" d="M 194.943 618.831 L 197.582 618.476 L 199.721 620.549 C 208.983 626.097 232.775 631.363 244.182 634.269 L 244.732 636.459 C 240.04 635.729 233.229 634.012 228.488 632.933 C 218.513 630.054 202.145 626.654 194.885 619.727 L 194.943 618.831 z"/>
<path transform="translate(0,0)" fill="rgb(253,253,253)" d="M 356.091 603.643 L 361.902 603.994 L 362.935 606.247 C 367.153 607.519 379.916 606.942 384.882 606.88 C 384.852 612.462 383.969 614.545 386.429 619.02 C 389.835 620.781 388.401 620.625 392.121 619.918 C 396.434 615.544 392.132 611.9 394.993 607.311 C 396.446 606.801 398.561 606.245 399.625 605.24 C 402.58 603.999 404.369 604.288 407.563 604.412 C 407.525 609.763 407.807 610.851 411.463 614.55 C 413.183 616.276 414.94 617.966 416.732 619.617 L 433.962 619.668 C 436.114 617.428 441.92 611.652 443.392 609.436 C 448.064 610.357 471.295 616.253 473.877 618.813 C 477.022 619.483 479.241 619.891 482.431 620.251 C 486.207 621.833 490.023 623.316 493.876 624.7 L 494.84 624.671 C 494.597 642.485 494.541 660.302 494.672 678.118 L 494.021 678.21 C 488.87 680.04 412.022 676.766 399.448 676.902 C 384.837 677.161 370.271 678.595 355.89 681.19 C 356.229 655.455 355.776 629.492 356.091 603.643 z"/>
<path transform="translate(0,0)" fill="rgb(107,107,106)" d="M 410.931 669.332 C 408.887 664.113 410.194 631.843 410.9 625.149 L 410.999 627.898 L 411.451 627.147 C 412.536 638.922 412.099 655.57 412.091 667.765 C 439.248 668.075 466.638 667.88 493.814 667.858 L 493.876 624.7 L 494.84 624.671 C 494.597 642.485 494.541 660.302 494.672 678.118 L 494.021 678.21 C 494.059 675.465 494.18 674.47 493.295 671.774 C 489.053 668.169 473.141 669.778 466.533 669.828 C 458.343 670.369 417.969 670.472 410.931 669.332 z"/>
<path transform="translate(0,0)" fill="rgb(178,182,183)" d="M 410.931 669.332 C 420.207 668.928 458.49 668.139 466.533 669.828 C 458.343 670.369 417.969 670.472 410.931 669.332 z"/>
<path transform="translate(0,0)" fill="rgb(107,107,106)" d="M 441.744 637.806 C 445.481 637.932 456.618 637.895 458.765 640.105 L 461.159 639.786 L 461.014 639.643 L 460.064 640.242 L 458.93 639.436 L 458.151 640.438 C 453.135 640.469 448.483 640.226 443.482 639.969 C 444.364 646.826 444.016 654.074 443.866 661.01 C 448.089 660.772 452.315 660.564 456.541 660.383 L 456.142 660.489 L 460.267 660.809 L 460.23 661.12 C 461.331 661.382 443.092 663.004 441.761 663.102 L 441.744 637.806 z"/>
<path transform="translate(0,0)" fill="rgb(178,182,183)" d="M 443.482 639.969 C 444.364 646.826 444.016 654.074 443.866 661.01 C 442.131 657.491 442.821 644.155 443.482 639.969 z"/>
<path transform="translate(0,0)" fill="rgb(178,182,183)" d="M 649.037 619.973 C 670.889 621.056 693.652 622.876 715.417 622.824 C 750.033 622.741 784.854 620.946 819.433 620.025 L 819.49 657.136 C 804.856 657.288 788.205 659.983 773.428 661.158 C 738.513 663.932 696.897 669.82 662.091 670.15 C 640.937 654.278 619.674 638.551 598.304 622.97 C 613.818 622.328 633.801 621.907 649.037 619.973 z"/>
<path transform="translate(0,0)" fill="rgb(253,253,253)" d="M 566.071 624.035 L 598.304 622.97 C 619.674 638.551 640.937 654.278 662.091 670.15 C 657.573 670.268 657.201 669.519 654.157 671.71 C 653.375 674.176 652.85 675.878 651.773 678.249 C 631.047 683.348 522.918 681.24 495.621 678.998 L 494.672 678.118 C 494.541 660.302 494.597 642.485 494.84 624.671 C 497.384 624.722 499.896 624.571 502.262 625.396 C 507.916 624.719 537.772 624.533 542.814 625.06 L 543.977 624.943 C 547.57 623.133 561.229 623.915 566.071 624.035 z"/>
<path transform="translate(0,0)" fill="rgb(253,253,253)" d="M 502.262 625.396 C 507.916 624.719 537.772 624.533 542.814 625.06 C 542.79 630.124 543.202 637.917 541.413 642.362 C 536.777 644.998 511.89 644.246 505.689 643.498 C 500.613 639.744 502.166 631.492 502.262 625.396 z"/>
<path transform="translate(0,0)" fill="rgb(140,141,140)" d="M 494.84 624.671 C 497.384 624.722 499.896 624.571 502.262 625.396 C 502.166 631.492 500.613 639.744 505.689 643.498 C 511.89 644.246 536.777 644.998 541.413 642.362 C 543.202 637.917 542.79 630.124 542.814 625.06 L 543.977 624.943 C 544.116 629.698 544.118 637.544 544.619 642.029 C 541.458 645.327 539.528 646.628 534.754 646.309 C 528.288 645.877 508.263 647.15 503.467 645.153 C 500.088 641.52 501.864 628.878 497.436 624.934 C 494.327 631.529 495.548 668.66 495.621 678.998 L 494.672 678.118 C 494.541 660.302 494.597 642.485 494.84 624.671 z"/>
<path transform="translate(0,0)" fill="rgb(195,200,202)" d="M 543.977 624.943 C 547.57 623.133 561.229 623.915 566.071 624.035 C 559.174 625.122 551.924 625.087 544.924 625.223 C 544.962 629.304 545.257 638.493 544.619 642.029 C 544.118 637.544 544.116 629.698 543.977 624.943 z"/>
<path transform="translate(0,0)" fill="rgb(253,253,253)" d="M 495.333 515.972 C 544.932 520.77 581.948 526.573 630.873 534.904 L 620.307 550.749 L 619.446 551.931 L 613.481 560.405 C 604.084 559.572 589.166 559.428 579.73 557.656 C 578.659 557.454 578.021 554.524 577.494 553.027 C 577.107 555.278 577.187 556.411 575.514 557.89 L 573.478 557.13 L 571.767 553.562 L 570.645 553.476 C 570.393 555.981 570.798 555.372 569.471 557.178 C 549.207 557.707 519.013 554.666 497.074 554.3 C 496.237 554.317 495.521 553.564 494.658 552.967 C 494.623 544.297 494.113 523.482 495.333 515.972 z"/>
<path transform="translate(0,0)" fill="rgb(178,182,183)" d="M 494.658 552.967 C 494.623 544.297 494.113 523.482 495.333 515.972 C 496.825 524.655 494.656 550.868 497.074 554.3 C 496.237 554.317 495.521 553.564 494.658 552.967 z"/>
<path transform="translate(0,0)" fill="rgb(178,182,183)" d="M 782.736 507.384 C 800.837 505.215 818.882 502.61 836.857 499.571 C 851.712 513.026 866.194 527.254 880.767 541.058 L 861.465 542.453 C 865.173 547.353 876.579 557.956 881.519 562.881 C 867.834 565.146 852.617 565.781 838.683 567.57 C 835.295 564.019 830.859 559.617 827.731 555.974 L 823.519 551.468 C 811.57 538.705 793.47 520.531 782.736 507.384 z"/>
<path transform="translate(0,0)" fill="rgb(178,182,183)" d="M 815.731 669.919 C 872.193 660.876 910.13 652.273 954.537 614.165 C 954.867 622.356 955.176 659.927 958.875 664.246 L 960.653 670.103 C 928.128 670.825 886.669 672.672 854.522 671.801 C 849.03 667.173 827.522 671.355 815.731 669.919 z"/>
<path transform="translate(0,0)" fill="rgb(253,253,253)" d="M 492.24 513.664 L 492.688 512.604 C 510.649 510.032 536.33 508.387 554.773 507.053 C 587.722 504.481 620.736 502.824 653.776 502.084 C 646.733 512.465 639.627 522.802 632.457 533.096 C 598.694 526.039 525.777 514.514 492.24 513.664 z"/>
<path transform="translate(0,0)" fill="rgb(178,182,183)" d="M 698.193 490.982 L 695.484 490.213 C 706.832 483.737 815.266 495.364 835.805 497.985 C 780.348 505.206 727.298 515.148 671.294 504.184 C 666.815 502.789 663.928 502.068 659.374 501.096 C 659.286 493.543 673.754 490.911 679.527 491.575 L 677.105 493.29 L 680.96 493.455 C 687.803 492.084 689.894 492.01 696.895 492.149 L 698.193 490.982 z"/>
<path transform="translate(0,0)" fill="rgb(195,200,202)" d="M 680.96 493.455 C 687.803 492.084 689.894 492.01 696.895 492.149 C 701.1 493.734 700.362 492.773 702.663 496.011 C 701.381 504.227 686.831 504.876 681.668 499.973 C 680.534 498.897 680.892 494.95 680.96 493.455 z"/>
<path transform="translate(0,0)" fill="rgb(67,67,66)" d="M 698.193 490.982 C 701.851 492.088 702.74 492.242 705.093 495.157 C 706.346 506.357 677.182 508.536 672.991 496.922 C 674.425 494.189 674.032 494.979 677.105 493.29 L 680.96 493.455 C 680.892 494.95 680.534 498.897 681.668 499.973 C 686.831 504.876 701.381 504.227 702.663 496.011 C 700.362 492.773 701.1 493.734 696.895 492.149 L 698.193 490.982 z"/>
<path transform="translate(0,0)" fill="rgb(67,67,66)" d="M 659.374 501.096 C 663.928 502.068 666.815 502.789 671.294 504.184 C 670.716 508.305 629.854 575.483 624.837 581.925 C 618.401 582.711 606.922 577.368 608.353 568.751 C 612.764 566.227 619.97 557.318 619.446 551.931 L 620.307 550.749 C 628.085 549.688 649.028 507.266 659.374 501.096 z"/>
<path transform="translate(0,0)" fill="rgb(195,200,202)" d="M 815.731 669.919 C 827.522 671.355 849.03 667.173 854.522 671.801 C 840.489 672.305 818.719 672.43 804.957 671.595 C 808.503 670.591 812.073 670.319 815.731 669.919 z"/>
<path transform="translate(0,0)" fill="rgb(253,253,253)" d="M 1196.68 645.092 C 1196.81 645.873 1198.49 649.166 1198.95 650.103 L 1198.32 650.966 C 1193.01 651.387 1188.53 648.392 1186.86 643.413 L 1187.92 641.64 L 1192.74 640.562 L 1196.68 645.092 z"/>
<path transform="translate(0,0)" fill="rgb(253,253,253)" d="M 395.746 679.448 C 415.783 678.785 438.805 679.892 459.038 680.475 L 556.46 683.27 C 542.706 689.242 522.114 693.594 507.462 696.782 C 466.239 704.914 399.009 712.548 359.192 696.774 L 359.064 683.063 C 370.693 680.621 383.866 680.048 395.746 679.448 z"/>
<path transform="translate(0,0)" fill="rgb(178,182,183)" d="M 839.251 568.318 C 854.939 567.957 887.487 564.736 903.242 562.463 C 913.433 571.185 927.086 585.003 937.191 594.643 C 938.516 595.841 942.286 599.064 943.046 600.342 L 952.93 609.808 C 929.126 611.539 905.303 612.998 881.466 614.184 L 839.251 568.318 z"/>
<path transform="translate(0,0)" fill="rgb(107,107,106)" d="M 937.191 594.643 C 938.516 595.841 942.286 599.064 943.046 600.342 C 940.966 599.753 938.73 596.503 937.191 594.643 z"/>
<path transform="translate(0,0)" fill="rgb(253,253,253)" d="M 957.201 625.955 C 967.592 626.647 977.988 627.274 988.387 627.836 C 1000.75 628.536 1057.7 631.776 1063.6 638.38 C 1061.17 642.326 1051.15 644.715 1046.25 646.289 C 1014.81 654.97 991.457 659.588 959.326 661.528 C 959.139 649.617 958.196 637.817 957.201 625.955 z"/>
<path transform="translate(0,0)" fill="rgb(178,182,183)" d="M 869.748 617.486 C 871.805 617.251 871.918 617.192 873.846 617.83 C 876.452 622.367 875.165 648.267 875.072 655.083 C 857.681 659.737 844.162 662.829 826.399 665.66 C 824.405 666.036 824.313 665.984 822.305 665.522 C 819.656 661.322 820.895 626.968 820.924 619.986 C 836.491 618.775 853.977 618.315 869.748 617.486 z"/>
<path transform="translate(0,0)" fill="rgb(178,182,183)" d="M 948.749 612.465 L 951.614 612.226 L 952.309 612.901 C 934.729 631.375 905.354 645.465 881.227 653.122 C 880.852 653.257 878.424 653.541 877.867 653.614 C 875.355 650.255 876.492 623.435 876.522 617.157 C 900.45 615.877 924.804 614.038 948.749 612.465 z"/>
<path transform="translate(0,0)" fill="rgb(178,182,183)" d="M 664.866 671.875 C 672.193 670.149 686.628 670.292 695.386 669.559 C 731.855 666.503 768.795 663.896 805.097 659.266 C 810.187 658.617 813.76 657.433 818.41 659.642 C 820.416 662.49 819.966 661.15 820.004 664.749 C 816.801 668.714 800.028 669.31 793.64 669.989 C 766.374 672.793 739.037 674.847 711.659 676.148 C 700.55 676.743 684.014 678.057 673.17 677.928 L 664.866 671.875 z"/>
<path transform="translate(0,0)" fill="rgb(178,182,183)" d="M 864.785 543.934 C 870.218 542.569 877.18 542.852 882.898 542.843 C 887.039 546.809 899.018 557.621 901.573 561.86 C 894.708 561.99 891.052 562.228 884.279 563.254 C 877.648 556.95 871.148 550.509 864.785 543.934 z"/>
<path transform="translate(0,0)" fill="rgb(253,253,253)" d="M 673.17 677.928 C 666.963 678.427 657.239 680.138 652.625 675.289 L 653.888 673.409 C 657.59 671.372 660.669 671.792 664.866 671.875 L 673.17 677.928 z"/>
<path transform="translate(0,0)" fill="rgb(238,232,226)" d="M 841.842 501.482 C 847.474 500.74 852.105 501.161 857.751 501.465 C 852.637 503.124 846.588 504.674 841.842 501.482 z"/>
<path transform="translate(0,0)" fill="rgb(231,94,35)" d="M 985.805 476.265 L 986.023 476.741 L 987.952 476.929 C 987.962 483.039 987.663 494.424 988.325 500.106 L 985.887 500.987 C 974.051 500.593 873.879 499.745 869.987 501.733 C 860.137 499.288 853.652 500.272 844.352 498.887 C 837.465 497.861 828.11 494.58 820.415 493.624 C 782.892 488.96 693.09 479.661 659.108 494.135 C 657.859 496.159 655.299 500.614 653.776 502.084 C 620.736 502.824 587.722 504.481 554.773 507.053 C 536.33 508.387 510.649 510.032 492.688 512.604 L 492.24 513.664 L 489.49 513.638 C 482.894 511.529 454.453 510.864 446.158 510.514 C 366.235 507.144 282.934 512.935 205.96 535.693 C 202.231 536.795 195.833 540.135 191.466 541.878 C 193.466 528.055 194.789 512.978 196.28 498.985 C 283.474 488.825 371.078 482.565 458.831 480.223 C 552.188 476.707 645.615 475.416 739.033 476.352 L 905.729 476.492 C 926.108 476.483 967.052 477.835 985.805 476.265 z"/>
<path transform="translate(0,0)" fill="rgb(148,39,15)" d="M 986.023 476.741 L 987.952 476.929 C 987.962 483.039 987.663 494.424 988.325 500.106 L 985.887 500.987 L 986.023 476.741 z"/>
<path transform="translate(0,0)" fill="rgb(253,253,253)" d="M 988.186 476.151 C 987.44 465.832 986.743 379.157 989.689 375.602 C 990.976 374.049 997.095 373.568 999.31 373.372 C 1019.4 371.586 1040.67 372.928 1060.87 372.945 C 1076.6 372.959 1093.5 371.661 1109.08 373.144 C 1111.75 373.397 1113.67 373.754 1115.76 375.511 C 1119.64 381.142 1118 462.434 1117.98 475.136 L 1117.97 476.369 L 1119.92 476.961 C 1119.95 484.326 1119.8 492.561 1120.04 499.844 L 1117.93 500.95 C 1109.97 500.063 1086.89 500.697 1077.26 500.692 L 988.269 500.853 L 988.325 500.106 C 987.663 494.424 987.962 483.039 987.952 476.929 L 988.186 476.151 z"/>
<path transform="translate(0,0)" fill="rgb(231,94,35)" d="M 1054.61 474.791 C 1064.64 474.141 1074.15 474.178 1084.64 473.388 C 1095.69 474.843 1106.84 475.427 1117.98 475.136 L 1117.97 476.369 L 1119.92 476.961 C 1119.95 484.326 1119.8 492.561 1120.04 499.844 L 1117.93 500.95 C 1109.97 500.063 1086.89 500.697 1077.26 500.692 L 988.269 500.853 L 988.325 500.106 C 987.663 494.424 987.962 483.039 987.952 476.929 L 988.186 476.151 L 988.695 476.096 C 1000.81 473.515 1044.58 477.748 1054.61 474.791 z"/>
<path transform="translate(0,0)" fill="rgb(238,232,226)" d="M 1054.61 474.791 C 1064.64 474.141 1074.15 474.178 1084.64 473.388 C 1095.69 474.843 1106.84 475.427 1117.98 475.136 L 1117.97 476.369 C 1111.82 477.731 995.259 477.271 988.695 476.096 C 1000.81 473.515 1044.58 477.748 1054.61 474.791 z"/>
<path transform="translate(0,0)" fill="rgb(148,39,15)" d="M 1117.97 476.369 L 1119.92 476.961 C 1119.95 484.326 1119.8 492.561 1120.04 499.844 L 1117.93 500.95 L 1117.97 476.369 z"/>
<path transform="translate(0,0)" fill="rgb(107,107,106)" d="M 1054.61 474.791 C 1050.83 473.149 1048.54 472.675 1047.45 468.559 C 1053.81 461.104 1087.11 464.625 1094.42 469.241 L 1094.48 470.871 C 1091.91 473.142 1088.13 473.062 1084.64 473.388 C 1074.15 474.178 1064.64 474.141 1054.61 474.791 z"/>
<path transform="translate(0,0)" fill="rgb(253,253,253)" d="M 1054.87 466.066 C 1064.25 465.764 1083.37 467.156 1092.31 469.615 L 1091.61 470.629 C 1083.18 471.164 1064 475.781 1055.97 471.595 C 1054.94 471.057 1055.02 467.703 1054.87 466.066 z"/>
<path transform="translate(0,0)" fill="rgb(253,253,253)" d="M 988.269 500.853 L 1077.26 500.692 C 1086.89 500.697 1109.97 500.063 1117.93 500.95 L 1118 574.088 C 1118.01 583.671 1118.66 607.662 1116.78 615.559 C 1113.89 618.598 1110.03 618.957 1105.96 619.256 C 1091.54 620.319 1076.37 619.076 1061.88 619.123 C 1040.88 619.191 1019.26 620.449 998.344 619.201 C 996.319 619.08 992.312 618.851 990.892 617.489 C 985.751 612.556 987.865 515.198 988.269 500.853 z"/>
<path transform="translate(0,0)" fill="rgb(53,52,50)" d="M 469.471 373.216 L 471.389 375.044 C 476.739 381.62 489.986 386.755 491.047 394.795 C 490.397 398.526 488.36 400.508 485.262 402.674 C 484.521 403.188 483.767 403.683 483 404.158 C 484.764 400.519 488.186 398.578 489.062 393.505 C 487.982 389.927 488.437 391.05 485.277 388.393 C 481.023 385.648 471.445 377.753 468.032 377.707 C 468.262 380.599 482.611 390.06 485.9 394.296 L 482.927 399.214 C 481.842 401.623 480.91 403.957 479.439 406.148 L 478.87 407.058 C 469.073 422.349 437.549 448.206 424.992 463.38 L 423.497 465.556 C 413.692 470.011 395.544 446.736 386.395 446.339 C 367.862 446.847 230.542 475.582 221.07 482.502 C 214.449 483.815 200.302 485.627 196.419 491.013 C 196.201 493.068 195.982 494.943 195.915 497.017 L 193.659 497.004 C 194.36 462.291 191.978 433.041 189.214 398.548 C 190.497 401.161 191.161 402.703 192.129 405.447 C 192.277 415.658 194.755 433.524 195.105 445.071 C 195.391 454.472 196.2 478.517 197.579 486.446 C 231.508 474 276.541 465.298 312.097 456.959 C 318.152 455.539 347.217 450.617 349.724 448.529 C 349.334 445.99 349.294 445.402 349.507 442.844 C 353.51 439.204 366.579 432.334 372.185 429.069 C 390.186 418.529 408.333 408.241 426.62 398.206 C 441.273 390.227 456.916 383.767 469.471 373.216 z M 358.24 447.622 C 366.297 446.319 375.458 444.618 383.487 443.764 C 392.433 436.951 401.917 430.356 409.313 421.885 C 411.417 419.474 411.345 417.248 412.399 414.443 L 411.927 414.151 C 406.488 417.453 357.689 446.468 357.378 447.139 L 358.24 447.622 z"/>
<path transform="translate(0,0)" fill="rgb(238,232,226)" d="M 482.927 399.214 C 481.842 401.623 480.91 403.957 479.439 406.148 L 478.87 407.058 C 474.276 410.328 461.671 423.606 457.237 428.151 C 445.063 440.811 432.69 453.279 420.125 465.551 C 414.321 462.393 394.94 448.047 390.361 443.985 C 394.764 445.758 419.12 462.736 422.307 459.881 C 443.174 441.188 461.627 417.29 482.927 399.214 z"/>
<path transform="translate(0,0)" fill="rgb(195,200,202)" d="M 465.564 379.777 C 470.263 383.229 479.659 389.841 482.579 394.285 C 481.084 398.592 427.695 452.621 420.274 458.632 C 417.296 458.947 418.074 458.784 415.026 457.154 L 391.979 441.057 C 415.125 420.405 441.407 399.579 465.564 379.777 z"/>
<path transform="translate(0,0)" fill="rgb(231,94,35)" d="M 1119.92 476.961 L 1120.67 476.576 L 1299.31 476.663 L 1299.44 500.856 L 1184.48 500.711 C 1164.58 500.698 1141.36 501.226 1121.82 500.438 L 1120.04 499.844 C 1119.8 492.561 1119.95 484.326 1119.92 476.961 z"/>
<path transform="translate(0,0)" fill="rgb(67,67,66)" d="M 221.07 482.502 C 230.542 475.582 367.862 446.847 386.395 446.339 C 388.89 451.241 403.88 457.776 411.063 467.897 C 375.509 469.687 340.571 471.56 305.095 474.379 C 277.592 476.564 248.335 481.087 221.07 482.502 z"/>
<path transform="translate(0,0)" fill="rgb(67,67,66)" d="M 484.218 410.519 C 486.839 408.718 487.503 407.992 490.678 408.233 C 493.252 409.755 495.187 411.144 495.547 414.414 C 496.53 423.336 500.732 466.786 487.309 466.598 C 478.708 466.477 448.827 468.615 442.385 465.033 C 439.297 460.945 440.004 459.091 441.497 454.219 C 446.037 446.771 475.08 419.158 483.135 410.409 L 484.218 410.519 z"/>
<path transform="translate(0,0)" fill="rgb(195,200,202)" d="M 488.468 409.582 C 494.347 410.706 494.584 417.53 494.388 422.464 C 493.958 433.3 496.768 453.7 490.692 462.74 C 485.8 466.596 454.763 465.02 446.92 464.957 C 443.929 464.601 442.913 462.379 442.282 459.917 C 443.45 454.471 481.677 416.222 488.468 409.582 z"/>
<path transform="translate(0,0)" fill="rgb(107,107,106)" d="M 1120.04 499.844 L 1121.82 500.438 C 1121.39 500.847 1120.42 501.545 1120.16 502.025 C 1116.23 509.229 1125.1 608.38 1116.49 618.515 C 1114.35 621.026 1111.09 621.14 1108.01 621.29 C 1085.31 622.398 1061.94 621.207 1039.19 621.155 C 1025.18 621.122 1009.19 622.63 995.372 621.008 C 993.079 620.739 990.706 620.089 989.028 618.421 C 986.933 616.338 986.264 613.212 985.977 610.375 C 984.82 598.954 985.93 586.664 985.937 575.146 L 985.887 500.987 L 988.325 500.106 L 988.269 500.853 C 987.865 515.198 985.751 612.556 990.892 617.489 C 992.312 618.851 996.319 619.08 998.344 619.201 C 1019.26 620.449 1040.88 619.191 1061.88 619.123 C 1076.37 619.076 1091.54 620.319 1105.96 619.256 C 1110.03 618.957 1113.89 618.598 1116.78 615.559 C 1118.66 607.662 1118.01 583.671 1118 574.088 L 1117.93 500.95 L 1120.04 499.844 z"/>
<path transform="translate(0,0)" fill="rgb(107,107,106)" d="M 985.805 476.265 C 986.063 462.22 984.59 381.259 987.513 374.847 C 998.525 366.731 1089.27 372.108 1108.66 371.51 C 1110.65 371.449 1116.77 373.233 1118.33 375.194 C 1122.96 388.715 1117.21 469.346 1120.67 476.576 L 1119.92 476.961 L 1117.97 476.369 L 1117.98 475.136 C 1118 462.434 1119.64 381.142 1115.76 375.511 C 1113.67 373.754 1111.75 373.397 1109.08 373.144 C 1093.5 371.661 1076.6 372.959 1060.87 372.945 C 1040.67 372.928 1019.4 371.586 999.31 373.372 C 997.095 373.568 990.976 374.049 989.689 375.602 C 986.743 379.157 987.44 465.832 988.186 476.151 L 987.952 476.929 L 986.023 476.741 L 985.805 476.265 z"/>
<path transform="translate(0,0)" fill="rgb(31,47,81)" d="M 1366.41 467.634 C 1371.57 456.901 1377.86 449.122 1388.54 443.33 C 1400.75 436.707 1415.09 435.208 1428.41 439.162 C 1444.26 443.886 1453.5 453.471 1461.17 467.527 L 1473.31 467.958 C 1486.72 466.951 1507.07 467.629 1521.03 467.66 C 1521.01 477.697 1521.4 491.527 1520.85 501.259 C 1521.05 503.831 1521.51 506.106 1520.18 508.313 C 1515.86 509.657 1468.28 509.06 1460.83 509.04 C 1455.36 519.846 1448.81 527.663 1437.94 533.516 C 1425.85 540.07 1411.65 541.535 1398.47 537.585 C 1382.5 532.722 1373.75 523.055 1366.15 508.926 L 1306.18 508.921 L 1306.15 467.677 L 1366.41 467.634 z"/>
<path transform="translate(0,0)" fill="rgb(253,253,253)" d="M 1413.37 444.709 C 1415.33 448.481 1421.88 469.522 1423.59 474.752 L 1456.47 474.684 C 1447.67 480.829 1438.52 487.865 1429.86 494.314 C 1433 504.251 1436.03 514.223 1438.95 524.228 L 1413.24 506.166 L 1387.63 525.131 C 1390.31 515.021 1394.06 504.442 1397.39 494.472 L 1370.14 474.709 L 1403.42 474.71 L 1413.37 444.709 z"/>
<path transform="translate(0,0)" fill="rgb(182,61,39)" d="M 1313.09 483.786 C 1313.06 481.123 1312.63 477.24 1314.03 475.221 C 1322.21 473.673 1358.01 474.818 1368.8 474.685 L 1366.46 483.698 C 1366.67 487.286 1366.89 489.449 1366.41 493.006 C 1366.86 495.833 1367.66 499.297 1368.24 502.163 C 1355.54 502.188 1325.52 503.029 1314.17 501.65 C 1312.65 499.346 1313.03 495.874 1313.02 492.969 C 1312.84 490.362 1313.04 486.504 1313.09 483.786 z"/>
<path transform="translate(0,0)" fill="rgb(253,253,253)" d="M 1313.02 492.969 L 1366.41 493.006 C 1366.86 495.833 1367.66 499.297 1368.24 502.163 C 1355.54 502.188 1325.52 503.029 1314.17 501.65 C 1312.65 499.346 1313.03 495.874 1313.02 492.969 z"/>
<path transform="translate(0,0)" fill="rgb(253,253,253)" d="M 1313.09 483.786 C 1313.06 481.123 1312.63 477.24 1314.03 475.221 C 1322.21 473.673 1358.01 474.818 1368.8 474.685 L 1366.46 483.698 L 1313.09 483.786 z"/>
<path transform="translate(0,0)" fill="rgb(182,61,39)" d="M 1477.57 474.574 C 1485.72 474.561 1506.15 474.086 1513.26 475.101 C 1514.58 477.939 1514.15 480.575 1513.99 483.716 L 1514.05 493.139 C 1514.09 496.612 1514.49 499.195 1512.83 501.735 C 1501.57 503.07 1471.89 502.155 1459.3 502.095 L 1460.87 492.888 L 1460.55 483.756 C 1460.4 481.268 1459.28 477.228 1458.65 474.656 L 1477.57 474.574 z"/>
<path transform="translate(0,0)" fill="rgb(253,253,253)" d="M 1477.57 474.574 C 1485.72 474.561 1506.15 474.086 1513.26 475.101 C 1514.58 477.939 1514.15 480.575 1513.99 483.716 L 1460.55 483.756 C 1460.4 481.268 1459.28 477.228 1458.65 474.656 L 1477.57 474.574 z"/>
<path transform="translate(0,0)" fill="rgb(253,253,253)" d="M 1460.87 492.888 L 1514.05 493.139 C 1514.09 496.612 1514.49 499.195 1512.83 501.735 C 1501.57 503.07 1471.89 502.155 1459.3 502.095 L 1460.87 492.888 z"/>
<path transform="translate(0,0)" fill="rgb(67,67,66)" d="M 517.895 396.956 C 526.592 396.482 557.422 396.127 564.738 397.077 C 573.624 398.174 581.692 402.807 587.117 409.929 C 599.773 426.777 594.72 449.168 578.056 461.35 C 561.406 470.292 546.311 465.326 528.529 466.864 C 509.275 469.225 506.52 452.657 507.516 437.438 C 508.484 422.643 503.295 405.88 517.895 396.956 z"/>
<path transform="translate(0,0)" fill="rgb(195,200,202)" d="M 519.327 464.588 C 516.208 462.903 511.054 459.449 510.751 455.794 C 510.123 448.23 508.329 409.296 511.932 404.797 C 520.574 394.008 566.968 396.815 578.109 404.794 C 593.818 416.046 596.185 436.051 586.066 450.695 C 581.041 457.838 573.403 462.714 564.809 464.267 C 564.599 464.301 564.39 464.336 564.18 464.37 C 558.269 465.663 525.589 465.332 519.327 464.588 z"/>
<path transform="translate(0,0)" fill="rgb(140,141,140)" d="M 519.327 464.588 C 531.351 464.033 552.456 463.349 564.18 464.37 C 558.269 465.663 525.589 465.332 519.327 464.588 z"/>
<path transform="translate(0,0)" fill="rgb(42,41,41)" d="M 881.129 397.471 C 899.296 394.294 916.638 406.324 920.026 424.453 C 923.414 442.582 911.587 460.063 893.499 463.662 C 881.609 466.028 869.365 461.819 861.443 452.643 C 853.52 443.467 851.142 430.741 855.216 419.323 C 859.29 407.905 869.187 399.559 881.129 397.471 z"/>
<path transform="translate(0,0)" fill="rgb(195,200,202)" d="M 882.601 399.503 C 893.801 397.965 904.964 402.56 911.834 411.538 C 918.705 420.516 920.224 432.492 915.812 442.9 C 911.4 453.309 901.737 460.546 890.508 461.851 C 873.395 463.841 857.87 451.682 855.702 434.59 C 853.535 417.498 865.533 401.848 882.601 399.503 z"/>
<path transform="translate(0,0)" fill="rgb(42,41,41)" d="M 794.487 397.479 C 812.759 394.487 830.005 406.851 833.037 425.117 C 836.069 443.384 823.742 460.657 805.483 463.728 C 787.167 466.809 769.829 454.436 766.788 436.113 C 763.747 417.791 776.158 400.481 794.487 397.479 z"/>
<path transform="translate(0,0)" fill="rgb(195,200,202)" d="M 796.505 399.454 C 813.684 397.572 829.145 409.95 831.069 427.125 C 832.993 444.299 820.653 459.791 803.484 461.757 C 786.254 463.731 770.695 451.339 768.765 434.104 C 766.834 416.868 779.265 401.341 796.505 399.454 z"/>
<path transform="translate(0,0)" fill="rgb(42,41,41)" d="M 706.732 397.532 C 725.004 394.255 742.467 406.428 745.714 424.705 C 748.962 442.982 736.76 460.426 718.478 463.643 C 700.237 466.852 682.843 454.685 679.604 436.451 C 676.364 418.216 688.503 400.802 706.732 397.532 z"/>
<path transform="translate(0,0)" fill="rgb(195,200,202)" d="M 707.686 399.607 C 724.817 396.854 740.927 408.537 743.633 425.675 C 746.339 442.814 734.612 458.892 717.466 461.551 C 700.386 464.2 684.384 452.528 681.689 435.456 C 678.993 418.383 690.621 402.349 707.686 399.607 z"/>
<path transform="translate(0,0)" fill="rgb(42,41,41)" d="M 1206.82 404.241 C 1223.21 402.462 1249.31 405.753 1255.54 424.072 C 1257.04 428.382 1256.66 433.128 1254.48 437.14 C 1249.65 446.177 1238.78 450.177 1229.62 452.945 C 1212.89 456.96 1185.04 452.635 1179.32 433.656 C 1177.86 428.858 1178.48 423.67 1181.02 419.348 C 1186.38 410.015 1197.17 406.699 1206.82 404.241 z"/>
<path transform="translate(0,0)" fill="rgb(195,200,202)" d="M 1209.4 406.224 C 1250.97 401.705 1277.34 439.216 1224.98 451.56 C 1209.74 452.992 1184.84 449.807 1181.14 431.519 C 1180.31 427.276 1181.21 422.877 1183.65 419.305 C 1189.31 410.856 1200.07 408.067 1209.4 406.224 z"/>
<path transform="translate(0,0)" fill="rgb(12,12,9)" d="M 1155.08 509.395 C 1158.31 509.285 1160.46 508.97 1163.44 510.229 C 1164.75 518.186 1164.09 529.572 1164.24 537.856 C 1164.36 544.935 1165.97 558.941 1159.41 562.895 C 1152.45 562.066 1140.59 535.295 1136.92 528.162 L 1136.83 562.123 C 1133.76 562.176 1130.99 562.486 1128.19 561.276 C 1127.06 550.969 1127.74 539.457 1127.48 529.007 C 1127.34 523.558 1126.72 509.23 1133.4 508.139 C 1138.93 510.577 1151.49 537.19 1154.96 543.818 L 1155.08 509.395 z"/>
<path transform="translate(0,0)" fill="rgb(12,12,9)" d="M 1186.43 509.517 C 1190.36 509.376 1193.01 508.835 1195.82 511.159 C 1198.06 516.994 1208.44 556.091 1208.65 561.221 C 1206.47 562.644 1205.58 562.57 1203.07 562.767 C 1199.31 560.584 1198.99 558.152 1197.45 553.766 L 1195.23 552.948 C 1180.01 552.316 1187.18 554.842 1178.53 562.058 C 1175.71 562.51 1175.13 562.087 1172.66 560.881 C 1173.08 555.801 1183.95 512.976 1186.43 509.517 z"/>
<path transform="translate(0,0)" fill="rgb(253,253,253)" d="M 1190.36 527.737 C 1192.74 530.077 1194.71 539.698 1194.55 543.313 L 1192.57 545.019 C 1190.24 544.633 1189.1 544.621 1187.22 543.095 C 1186.08 538.293 1188.73 532.772 1190.36 527.737 z"/>
<path transform="translate(0,0)" fill="rgb(12,12,9)" d="M 1216.67 509.436 C 1219.88 509.318 1222.55 508.932 1225.45 510.275 C 1228.1 515.302 1233.36 538.403 1235.01 545.134 C 1237.46 535.263 1240.92 519.658 1244.52 510.736 C 1246.43 509.226 1250.86 509.032 1252.82 510.523 C 1253.22 514.373 1250.48 522.179 1249.26 526.282 C 1247.13 534.697 1242.69 558.366 1237.01 562.553 C 1228.18 562.438 1225.91 547.401 1224.1 540.272 C 1221.56 530.266 1218.48 519.546 1216.67 509.436 z"/>
<path transform="translate(0,0)" fill="rgb(12,12,9)" d="M 1289.82 509.375 C 1292.57 509.336 1295.14 508.897 1297.25 510.392 C 1294.86 520 1286.55 528.508 1284.58 534.765 C 1283.3 538.817 1285.3 554.394 1283.02 561.657 C 1279.76 563.375 1277.75 561.958 1275.5 559.724 C 1273.62 554.61 1274.6 544.742 1274.7 538.75 C 1275.48 532.803 1261.47 518.617 1263.02 511.325 C 1265.72 509.143 1264.86 509.776 1268.81 509.497 C 1272.58 511.764 1276.75 521.306 1279.27 525.997 C 1281.7 521.27 1285.81 511.704 1289.82 509.375 z"/>
<path transform="translate(0,0)" fill="rgb(178,182,183)" d="M 944.008 523.386 C 949.051 522.971 970.167 522.136 974.048 523.834 C 974.87 526.997 975.096 525.999 973.916 528.169 C 963.259 531.967 955.587 533.775 945.19 527.661 C 944.623 527.328 944.185 524.221 944.008 523.386 z"/>
<path transform="translate(0,0)" fill="rgb(107,107,106)" d="M 944.008 523.386 L 947.924 523.886 L 948.463 525.332 L 947.669 525.492 C 955.721 531.331 957.697 532.084 967.32 527.98 C 969.226 527.167 971.046 527.037 972.249 525.253 L 970.956 524.548 C 972.408 523.871 972.364 523.805 974.048 523.834 C 974.87 526.997 975.096 525.999 973.916 528.169 C 963.259 531.967 955.587 533.775 945.19 527.661 C 944.623 527.328 944.185 524.221 944.008 523.386 z"/>
<path transform="translate(0,0)" fill="rgb(107,107,106)" d="M 966.839 590.106 C 969.854 589.855 973.045 589.317 975.841 590.311 C 977.684 593.277 977.131 592.452 976.977 596.46 L 975.109 597.549 C 974.478 597.518 973.847 597.478 973.218 597.428 C 970.279 597.196 966.002 596.746 964.02 594.436 C 964.363 591.516 964.114 592.472 966.839 590.106 z"/>
<path transform="translate(0,0)" fill="rgb(107,107,106)" d="M 964.827 446.084 C 969.053 445.745 973.336 444.77 975.913 448.412 C 975.4 450.719 975.33 451.528 973.918 453.483 C 970.457 453.258 964.761 452.858 962.308 450.332 L 962.348 448.339 L 964.827 446.084 z"/>
<path transform="translate(0,0)" fill="rgb(53,52,50)" fill-opacity="0.784314" d="M 1103.2 354.337 C 1104.52 349.021 1105.73 339.37 1113.13 339.458 C 1119.06 343.869 1113.18 350.263 1115.12 355.056 L 1113.29 355.995 L 1113.03 357.05 C 983.643 354.87 854.239 354.224 724.841 355.114 L 612.207 355.044 C 567.986 355.053 510.484 351.793 471.389 375.044 L 469.471 373.216 C 485.854 361.406 513.55 356.54 533.657 354.482 C 542.029 353.625 551.562 353.395 559.84 352.297 C 565.773 351.51 567.818 347.133 575.657 347.06 C 585.865 346.966 589.065 352.812 597.889 352.997 C 598.171 352.988 598.453 352.979 598.735 352.969 C 605.996 353.81 637.594 353.908 644.808 352.615 L 650.965 352.838 C 662.387 354.016 677.088 353.61 688.807 353.592 L 750.02 353.479 L 750.981 352.345 C 761.508 344.957 774.457 344.838 785 352.353 L 784.025 353.385 C 809.699 354.983 845.442 352.65 872.439 353.555 C 883.028 353.91 931.128 354.272 940.155 353.136 C 940.422 351.56 941.085 345.818 941.956 345.182 C 942.089 346.365 942.699 351.971 943.057 352.777 C 955.622 352.748 973.721 353.268 985.844 352.454 L 990.421 353.023 C 1028.02 352.413 1065.63 352.851 1103.2 354.337 z M 777.548 352.762 L 778.187 352.11 C 774.931 349.305 764.161 349.922 759.714 350.245 C 759.32 350.273 758.926 350.307 758.532 350.345 L 757.39 351.897 C 760.133 353.562 773.686 352.832 777.548 352.762 z M 1109.64 353.22 L 1111.43 352.715 C 1112.44 349.074 1112.67 348.475 1111.86 344.829 L 1110.02 343.232 C 1109.04 346.141 1107.23 350.285 1107.87 353.087 L 1109.64 353.22 z"/>
<path transform="translate(0,0)" fill="rgb(238,232,226)" fill-opacity="0.0509804" d="M 758.532 350.345 C 758.926 350.307 759.32 350.273 759.714 350.245 C 764.161 349.922 774.931 349.305 778.187 352.11 L 777.548 352.762 C 773.686 352.832 760.133 353.562 757.39 351.897 L 758.532 350.345 z"/>
<path transform="translate(0,0)" fill="rgb(253,253,253)" fill-opacity="0.184314" d="M 1110.02 343.232 L 1111.86 344.829 C 1112.67 348.475 1112.44 349.074 1111.43 352.715 L 1109.64 353.22 L 1107.87 353.087 C 1107.23 350.285 1109.04 346.141 1110.02 343.232 z"/>
<path transform="translate(0,0)" fill="rgb(42,41,41)" fill-opacity="0.690196" d="M 938.705 352.807 C 938.485 342.014 937.104 292.21 940.765 284.845 C 947.566 278.654 973.48 283.336 974.17 285.728 C 978.414 300.441 989.346 338.881 990.421 353.023 L 985.844 352.454 C 985.186 347.189 981.78 332.682 980.437 326.808 C 977.764 315.12 975.094 297.043 971.341 286.229 C 965.83 285.662 948.347 283.108 944.446 285.479 C 940.251 293.71 943.1 340.033 943.057 352.777 C 942.699 351.971 942.089 346.365 941.956 345.182 C 941.085 345.818 940.422 351.56 940.155 353.136 C 931.128 354.272 883.028 353.91 872.439 353.555 C 845.442 352.65 809.699 354.983 784.025 353.385 L 785 352.353 C 802.125 353.216 823.084 352.7 840.434 352.72 L 938.705 352.807 z"/>
<path transform="translate(0,0)" fill="rgb(42,41,41)" fill-opacity="0.709804" d="M 169.978 494.663 C 165.892 483.357 173.082 392.288 176.711 375.254 C 177.369 372.165 178.871 370.991 181.436 369.656 C 190.581 372.028 192.42 397.438 192.129 405.447 C 191.161 402.703 190.497 401.161 189.214 398.548 L 188.429 397.79 C 188.043 395.831 187.882 392.757 187.706 390.684 C 188.115 385.578 188.211 383.169 183.912 380.715 C 180.324 380.889 181.546 380.649 178.401 382.76 C 177.091 385.77 177.25 387.011 177.26 390.272 C 177.254 392.317 177.359 395.04 176.994 396.99 C 174.628 399.288 172.073 457.414 171.776 465.429 C 169.803 473.425 171.993 491.91 169.978 494.663 z"/>
<path transform="translate(0,0)" fill="rgb(53,52,50)" fill-opacity="0.670588" d="M 640.055 338.547 C 644.718 338.241 650.39 338.7 655.131 338.943 L 657.933 352.472 C 688.095 352.114 721.285 353.493 750.981 352.345 L 750.02 353.479 L 688.807 353.592 C 677.088 353.61 662.387 354.016 650.965 352.838 L 652.959 352.157 L 653.795 349.669 C 653.149 344.958 650.951 340.099 645.456 340.807 C 643.551 343.118 643.34 350.109 644.808 352.615 C 637.594 353.908 605.996 353.81 598.735 352.969 C 602.743 351.903 633.737 352.415 639.726 352.467 L 640.055 338.547 z"/>
<path transform="translate(0,0)" fill="rgb(53,52,50)" fill-opacity="0.670588" d="M 976.123 672.137 L 980.601 672.374 C 978.694 681.244 970.902 703.51 959.511 686.38 C 956.771 682.261 958.827 678.542 954.488 673.131 L 959.798 671.933 C 961.081 677.535 961.964 686.279 968.726 687.539 C 974.844 684.617 975.325 678.464 976.123 672.137 z"/>
<path transform="translate(0,0)" fill="rgb(253,253,253)" fill-opacity="0.00784314" d="M 644.808 352.615 C 643.34 350.109 643.551 343.118 645.456 340.807 C 650.951 340.099 653.149 344.958 653.795 349.669 L 652.959 352.157 L 650.965 352.838 L 644.808 352.615 z"/>
<path transform="translate(0,0)" fill="rgb(140,141,140)" d="M 177.26 390.272 C 177.25 387.011 177.091 385.77 178.401 382.76 C 181.546 380.649 180.324 380.889 183.912 380.715 C 188.211 383.169 188.115 385.578 187.706 390.684 C 184.56 390.219 180.508 390.305 177.26 390.272 z"/>
<path transform="translate(0,0)" fill="rgb(253,253,253)" fill-opacity="0.00784314" d="M 177.26 390.272 C 180.508 390.305 184.56 390.219 187.706 390.684 C 187.882 392.757 188.043 395.831 188.429 397.79 C 184.417 398.824 180.817 398.264 176.994 396.99 C 177.359 395.04 177.254 392.317 177.26 390.272 z"/>
</svg>